<svg xmlns="http://www.w3.org/2000/svg" width="38" height="38" fill="none" viewBox="0 0 38 38">
    <path fill="#65A2F7" fill-rule="evenodd" d="M19 38c10.493 0 19-8.507 19-19S29.493 0 19 0 0 8.507 0 19s8.507 19 19 19z" clip-rule="evenodd"/>
    <path fill="#fff" fill-rule="evenodd" d="M27.46 22.061h-.352V11.503c0-.277-.243-.503-.54-.503H11.432c-.297 0-.54.226-.54.503V22.06h-.351c-.298 0-.541.227-.541.503 0 .277.243.503.54.503h7.92v1.307a.575.575 0 0 0-.136.352l-3.621 3.394a.463.463 0 0 0 0 .704.554.554 0 0 0 .757 0l3-2.765v2.061c0 .277.243.503.54.503.297 0 .54-.226.54-.503V26.06l3 2.79a.554.554 0 0 0 .757 0 .463.463 0 0 0 0-.704l-3.621-3.394a.451.451 0 0 0-.135-.352v-1.307h7.919c.297 0 .54-.226.54-.503a.545.545 0 0 0-.54-.527zM11.972 12.006h14.054V22.06H11.973V12.006z" clip-rule="evenodd"/>
    <path fill="#fff" d="M27.108 22.061h-.15v.15h.15v-.15zm-16.216 0v.15h.15v-.15h-.15zm7.567 1.006h.15v-.15h-.15v.15zm0 1.307l.117.095.034-.042v-.053h-.15zm-.135.352l.103.11.047-.045v-.065h-.15zm-3.621 3.394l.102.11-.102-.11zm.757.704l-.102-.11.101.11zm3-2.765h.15v-.343l-.252.232.101.11zm1.08 0l.103-.11-.253-.235v.345h.15zm3 2.79l.103-.11-.102.11zm.757-.704l-.102.11.102-.11zm-3.621-3.394h-.15v.065l.047.045.103-.11zm-.135-.352h-.15v.066l.047.044.103-.11zm0-1.307v-.15h-.15v.15h.15zm-7.568-11.086v-.15h-.15v.15h.15zm14.054 0h.15v-.15h-.15v.15zm0 10.055v.15h.15v-.15h-.15zm-14.054 0h-.15v.15h.15v-.15zm15.486-.15h-.35v.3h.35v-.3zm-.2.15V11.503h-.3V22.06h.3zm0-10.558c0-.37-.322-.653-.691-.653v.3c.224 0 .39.17.39.353h.3zm-.691-.653H11.432v.3h15.136v-.3zm-15.136 0c-.37 0-.69.283-.69.653h.3c0-.184.166-.353.39-.353v-.3zm-.69.653V22.06h.3V11.503h-.3zm.15 10.409h-.351v.3h.35v-.3zm-.351 0c-.37 0-.691.283-.691.652h.3c0-.183.166-.352.39-.352v-.3zm-.691.652c0 .37.32.653.69.653v-.3c-.224 0-.39-.17-.39-.353h-.3zm.69.653h7.92v-.3h-7.92v.3zm7.77-.15v1.307h.3v-1.307h-.3zm.033 1.213a.725.725 0 0 0-.169.446h.3c0-.084.037-.177.102-.258l-.233-.188zm-.121.337L14.6 28.01l.205.219 3.622-3.394-.205-.22zM14.6 28.01a.63.63 0 0 0-.21.462c0 .17.074.335.21.462l.205-.22a.33.33 0 0 1-.114-.242.33.33 0 0 1 .114-.242l-.204-.22zm0 .924a.704.704 0 0 0 .481.19v-.3a.404.404 0 0 1-.276-.11l-.204.22zm.481.19a.704.704 0 0 0 .48-.19l-.204-.22a.404.404 0 0 1-.276.11v.3zm.48-.19l3-2.765-.203-.22-3 2.765.203.22zm2.748-2.875v2.061h.3V26.06h-.3zm0 2.061c0 .37.321.653.691.653v-.3c-.225 0-.39-.17-.39-.353h-.3zm.691.653c.37 0 .69-.284.69-.653h-.3c0 .184-.165.353-.39.353v.3zm.69-.653V26.06h-.3v2.061h.3zm-.252-1.951l3 2.79.205-.22-3-2.79-.205.22zm3 2.79a.704.704 0 0 0 .48.191v-.3a.404.404 0 0 1-.275-.11l-.205.219zm.48.191a.704.704 0 0 0 .482-.191l-.205-.22a.404.404 0 0 1-.276.111v.3zm.482-.191a.63.63 0 0 0 .21-.462.63.63 0 0 0-.21-.462l-.205.22a.33.33 0 0 1 .114.242.33.33 0 0 1-.114.242l.204.22zm0-.923l-3.622-3.394-.205.219 3.622 3.394.205-.22zm-3.574-3.285a.6.6 0 0 0-.183-.461l-.205.22c.066.06.088.137.088.241h.3zm-.136-.352v-1.307h-.3V24.4h.3zm-.15-1.307v.15H24v-.3H19.704 19.663h-.015-.007-.007-.003-.01-.003-.003-.003-.003-.003-.008-.003-.005-.005-.002-.007-.002-.002-.002-.002-.002-.001-.002-.002-.001-.002-.001-.002-.001-.001-.008-.001-.003v.15zm4.46.15H27.459v-.15-.15h-.001-.001-.003-.003-.001-.001-.001-.001-.001-.004-.001-.001-.002-.001-.004-.002-.002-.001-.002-.002-.001-.002-.002-.002-.002-.002-.002-.002-.002-.002-.002-.002-.005-.002-.002-.005-.005-.005-.003-.005-.003-.011-.003-.003-.003-.003-.003-.003H27.324h-.01-.028-.015H24v.3zm3.46 0c.37 0 .69-.283.69-.653h-.3c0 .184-.166.353-.39.353v.3zm.69-.653a.695.695 0 0 0-.69-.677v.3c.215 0 .39.184.39.377h.3zM11.973 12.156h14.054v-.3H11.973v.3zm13.904-.15V22.06h.3V12.006h-.3zm.15 9.905H11.973v.3h14.054v-.3zm-13.904.15V12.006h-.3V22.06h.3z"/>
</svg>
