<svg xmlns="http://www.w3.org/2000/svg" width="21" height="21" fill="none" viewBox="0 0 21 21">
    <g filter="url(#a)">
        <path fill="#F3876D" stroke="#EC7456" d="M9.5 17.5a7 7 0 1 0 0-14 7 7 0 0 0 0 14z"/>
        <path fill="#EC7456" d="M9.67 16.1a5.425 5.425 0 0 0 5.43-5.42c0-1.685-.77-3.191-1.98-4.185-.977 4.802-3.993 6.868-7.702 7.556A5.423 5.423 0 0 0 9.67 16.1z"/>
        <path fill="#fff" d="M9.511 14.275c-.492 0-.83-.38-.83-.871 0-.506.352-.872.83-.872.506 0 .83.366.83.872 0 .492-.324.871-.83.871zM9.838 10.947c-.126.428-.521.436-.653 0-.152-.502-.69-2.407-.69-3.644 0-1.633 2.042-1.64 2.042 0 0 1.245-.569 3.2-.7 3.644z"/>
    </g>
    <defs>
        <filter id="a" width="21" height="21" x="0" y="0" color-interpolation-filters="sRGB" filterUnits="userSpaceOnUse">
            <feFlood flood-opacity="0" result="BackgroundImageFix"/>
            <feColorMatrix in="SourceAlpha" values="0 0 0 0 0 0 0 0 0 0 0 0 0 0 0 0 0 0 127 0"/>
            <feOffset dx="1"/>
            <feGaussianBlur stdDeviation="1.5"/>
            <feColorMatrix values="0 0 0 0 1 0 0 0 0 0.105882 0 0 0 0 0.105882 0 0 0 0.112206 0"/>
            <feBlend in2="BackgroundImageFix" result="effect1_dropShadow"/>
            <feBlend in="SourceGraphic" in2="effect1_dropShadow" result="shape"/>
        </filter>
    </defs>
</svg>
