<svg xmlns="http://www.w3.org/2000/svg" width="18" height="18" fill="none" viewBox="0 0 18 18">
    <path fill="#9A9A9A" fill-rule="evenodd" d="M14.667 14.25c0 .48-.423.88-.85.88H4.546c-.426 0-.772-.39-.772-.87V3.822c0-.48.356-.947.782-.947h9.334c.427 0 .778.395.778.875v10.5zM13.889 2H4.555C3.702 2 3 2.861 3 3.822V14.26c0 .961.692 1.74 1.545 1.74h9.273c.853 0 1.626-.79 1.626-1.75V3.75c0-.961-.702-1.75-1.555-1.75zM6.111 6.235c-.215 0-.389.196-.389.437 0 .242.174.438.389.438h6.222c.215 0 .39-.196.39-.438 0-.24-.175-.437-.39-.437H6.111zm0 3.78c-.215 0-.389.196-.389.437 0 .242.174.438.389.438h4.262c.215 0 .39-.196.39-.438 0-.241-.175-.437-.39-.437H6.111z" clip-rule="evenodd"/>
    <path fill="#9A9A9A" d="M14.517 14.25c0 .399-.356.73-.7.73v.3c.511 0 1-.467 1-1.03h-.3zm-.7.73H4.546v.3h9.273v-.3zm-9.272 0c-.327 0-.622-.305-.622-.72h-.3c0 .546.397 1.02.922 1.02v-.3zm-.622-.72V3.822h-.3V14.26h.3zm0-10.438c0-.205.076-.409.198-.56.122-.151.278-.237.434-.237v-.3c-.27 0-.505.147-.668.35a1.212 1.212 0 0 0-.264.747h.3zm.632-.797h9.334v-.3H4.555v.3zm9.334 0c.328 0 .628.31.628.725h.3c0-.546-.402-1.025-.928-1.025v.3zm.628.725v10.5h.3V3.75h-.3zm-.628-1.9H4.555v.3h9.334v-.3zm-9.334 0c-.959 0-1.705.954-1.705 1.972h.3c0-.903.658-1.672 1.405-1.672v-.3zM2.85 3.822V14.26h.3V3.822h-.3zm0 10.438c0 1.027.743 1.89 1.695 1.89v-.3c-.754 0-1.395-.695-1.395-1.59h-.3zm1.695 1.89h9.273v-.3H4.545v.3zm9.273 0c.944 0 1.776-.864 1.776-1.9h-.3c0 .886-.713 1.6-1.476 1.6v.3zm1.776-1.9V3.75h-.3v10.5h.3zm0-10.5c0-1.027-.753-1.9-1.705-1.9v.3c.755 0 1.405.705 1.405 1.6h.3zM6.111 6.085c-.314 0-.539.28-.539.587h.3c0-.175.123-.287.239-.287v-.3zm-.539.587c0 .308.225.588.539.588v-.3c-.116 0-.239-.112-.239-.288h-.3zm.539.588h6.222v-.3H6.111v.3zm6.222 0c.314 0 .54-.28.54-.588h-.3c0 .176-.123.288-.24.288v.3zm.54-.588c0-.306-.226-.587-.54-.587v.3c.116 0 .24.112.24.287h.3zm-.54-.587H6.111v.3h6.222v-.3zm-6.222 3.78c-.314 0-.539.28-.539.587h.3c0-.175.123-.287.239-.287v-.3zm-.539.587c0 .308.225.588.539.588v-.3c-.116 0-.239-.111-.239-.288h-.3zm.539.588h4.262v-.3H6.111v.3zm4.262 0c.314 0 .54-.28.54-.588h-.3c0 .177-.123.288-.24.288v.3zm.54-.588c0-.307-.226-.587-.54-.587v.3c.116 0 .24.112.24.287h.3zm-.54-.587H6.111v.3h4.262v-.3z"/>
</svg>
