<svg xmlns="http://www.w3.org/2000/svg" width="24" height="24" fill="none" viewBox="0 0 24 24">
    <path fill="#fff" fill-rule="evenodd" d="M15.511 7.544h3.066c.786 0 1.423.645 1.423 1.444v2.259h-2.667v-.258a.716.716 0 0 0-.71-.721.717.717 0 0 0-.712.721v.258H8.133v-.258a.716.716 0 0 0-.71-.721.717.717 0 0 0-.712.721v.258H4V8.988c0-.797.637-1.444 1.423-1.444H8.49v-1.1C8.489 5.644 9.125 5 9.912 5h4.176c.785 0 1.423.647 1.423 1.443v1.1zm1.822 4.425H20v4.968a1.45 1.45 0 0 1-1.456 1.444H5.456A1.45 1.45 0 0 1 4 16.938v-4.968h2.711v.107c0 .398.318.72.711.72a.717.717 0 0 0 .711-.72v-.107h7.778v.107c0 .398.319.72.711.72a.717.717 0 0 0 .711-.72v-.107zM14.09 7.544l-.001-1.1H9.91l.001 1.099h4.177z" clip-rule="evenodd"/>
</svg>
