<svg xmlns="http://www.w3.org/2000/svg" width="24" height="24" fill="none" viewBox="0 0 24 24">
    <path fill="#F36C6E" fill-rule="evenodd" d="M4.5 4C3.678 4 3 4.678 3 5.5v13c0 .822.678 1.5 1.5 1.5h9c.822 0 1.5-.678 1.5-1.5V15h-1v3.5c0 .286-.214.5-.5.5h-9a.488.488 0 0 1-.5-.5v-13c0-.286.214-.5.5-.5h9c.286 0 .5.214.5.5V10h1V5.5c0-.822-.678-1.5-1.5-1.5h-9zm13.047 5.193l-.707.707 2.146 2.147h-7.793v1h7.793l-2.146 2.146.707.707 3.353-3.353-3.353-3.354z" clip-rule="evenodd"/>
    <path fill="#F36C6E" d="M15 15h.25a.25.25 0 0 0-.25-.25V15zm-1 0v-.25a.25.25 0 0 0-.25.25H14zm0-5h-.25c0 .138.112.25.25.25V10zm1 0v.25a.25.25 0 0 0 .25-.25H15zm2.547-.807l.177-.176a.25.25 0 0 0-.354 0l.177.176zm-.707.707l-.177-.176a.25.25 0 0 0 0 .353l.177-.177zm2.146 2.147v.25a.25.25 0 0 0 .177-.427l-.177.177zm-7.793 0v-.25a.25.25 0 0 0-.25.25h.25zm0 1h-.25c0 .138.112.25.25.25v-.25zm7.793 0l.177.177a.25.25 0 0 0-.177-.427v.25zm-2.146 2.146l-.177-.176a.25.25 0 0 0 0 .353l.177-.177zm.707.707l-.177.177a.25.25 0 0 0 .354 0l-.177-.177zm3.353-3.353l.177.177a.25.25 0 0 0 0-.354l-.177.177zM4.5 3.75c-.96 0-1.75.79-1.75 1.75h.5c0-.684.566-1.25 1.25-1.25v-.5zM2.75 5.5v13h.5v-13h-.5zm0 13c0 .96.79 1.75 1.75 1.75v-.5c-.684 0-1.25-.566-1.25-1.25h-.5zm1.75 1.75h9v-.5h-9v.5zm9 0c.96 0 1.75-.79 1.75-1.75h-.5c0 .684-.566 1.25-1.25 1.25v.5zm1.75-1.75V15h-.5v3.5h.5zM15 14.75h-1v.5h1v-.5zm-1.25.25v3.5h.5V15h-.5zm0 3.5c0 .148-.102.25-.25.25v.5c.424 0 .75-.326.75-.75h-.5zm-.25.25h-9v.5h9v-.5zm-9 0a.239.239 0 0 1-.25-.25h-.5c0 .424.326.75.75.75v-.5zm-.25-.25v-13h-.5v13h.5zm0-13c0-.148.102-.25.25-.25v-.5a.738.738 0 0 0-.75.75h.5zm.25-.25h9v-.5h-9v.5zm9 0c.148 0 .25.102.25.25h.5a.738.738 0 0 0-.75-.75v.5zm.25.25V10h.5V5.5h-.5zm.25 4.75h1v-.5h-1v.5zm1.25-.25V5.5h-.5V10h.5zm0-4.5c0-.96-.79-1.75-1.75-1.75v.5c.684 0 1.25.566 1.25 1.25h.5zM13.5 3.75h-9v.5h9v-.5zm3.87 5.267l-.707.707.354.353.707-.707-.354-.353zm-.707 1.06l2.147 2.147.353-.354-2.146-2.146-.354.353zm2.323 1.72h-7.793v.5h7.793v-.5zm-8.043.25v1h.5v-1h-.5zm.25 1.25h7.793v-.5h-7.793v.5zm7.617-.427l-2.147 2.147.354.353 2.146-2.146-.353-.354zm-2.147 2.5l.707.707.354-.353-.707-.707-.354.353zm1.06.707l3.354-3.353-.353-.354-3.354 3.354.354.353zm3.354-3.707l-3.353-3.353-.354.353 3.354 3.354.353-.354z"/>
</svg>
