<svg width="17" height="17" viewBox="0 0 17 17" fill="none" xmlns="http://www.w3.org/2000/svg">
<path fill-rule="evenodd" clip-rule="evenodd" d="M16.2439 0.0439276L0.330162 6.39147C0.132065 6.47933 0 6.69897 0 6.9186C0 7.13824 0.132065 7.33592 0.352173 7.42377L6.91137 9.94961L7.04344 10.0155L9.59669 16.6486C9.68473 16.8682 9.88282 17 10.1029 17C10.323 17 10.5211 16.8463 10.6092 16.6486L16.9703 0.768734C17.0363 0.571059 16.9923 0.329457 16.8382 0.175711C16.6841 0 16.442 -0.0439276 16.2439 0.0439276ZM9.97087 5.99612L7.10947 8.85142L2.02499 6.89664L15.4515 1.53747L10.0809 14.9354L7.9899 9.51034L10.7412 6.76486C10.9614 6.56718 10.9393 6.21576 10.7412 5.99612C10.5431 5.77649 10.191 5.77649 9.97087 5.99612Z" fill="#9A9A9A"/>
</svg>