<svg xmlns="http://www.w3.org/2000/svg" width="18" height="18" fill="none" viewBox="0 0 18 18">
    <path fill="#9A9A9A" fill-rule="evenodd" d="M13.163 4.036h-.96v-.64a.32.32 0 1 0-.641 0v.64H6.438v-.64a.32.32 0 0 0-.64 0v.64h-.961c-.884 0-1.602.718-1.602 1.601v7.687c0 .883.718 1.601 1.602 1.601h8.326c.883 0 1.602-.718 1.602-1.601V5.637c0-.883-.719-1.601-1.602-1.601zm.961 9.288c0 .53-.43.96-.96.96H4.837c-.53 0-.961-.43-.961-.96V7.238h10.248v6.086zM3.875 6.598h10.25v-.961c0-.53-.431-.96-.961-.96h-.96v.32a.32.32 0 1 1-.642 0v-.32H6.439v.32a.32.32 0 1 1-.641 0v-.32h-.961c-.53 0-.96.43-.96.96v.961z" clip-rule="evenodd"/>
    <path fill="#9A9A9A" d="M12.203 4.036h-.15v.15h.15v-.15zm-.641 0v.15h.15v-.15h-.15zm-5.124 0h-.15v.15h.15v-.15zm-.64 0v.15h.15v-.15h-.15zM3.875 7.238v-.15h-.15v.15h.15zm10.248 0h.15v-.15h-.15v.15zm0-.64v.15h.15v-.15h-.15zm-10.249 0h-.15v.15h.15v-.15zm8.328-1.922v-.15h-.15v.15h.15zm-.64 0h.15v-.15h-.15v.15zm-5.125 0v-.15h-.15v.15h.15zm-.641 0h.15v-.15h-.15v.15zm6.406-.49h.96v-.3h-.96v.3zm-.15-.79v.64h.3v-.64h-.3zm-.17-.171a.17.17 0 0 1 .17.17h.3a.47.47 0 0 0-.47-.47v.3zm-.171.17a.17.17 0 0 1 .17-.17v-.3a.47.47 0 0 0-.47.47h.3zm0 .64v-.64h-.3v.64h.3zm-5.274.15h5.124v-.3H6.438v.3zm-.15-.79v.64h.3v-.64h-.3zm-.17-.17a.17.17 0 0 1 .17.17h.3a.47.47 0 0 0-.47-.47v.3zm-.17.17a.17.17 0 0 1 .17-.17v-.3a.47.47 0 0 0-.47.47h.3zm0 .64v-.64h-.3v.64h.3zm-1.111.15h.96v-.3h-.96v.3zM3.385 5.638c0-.8.651-1.451 1.452-1.451v-.3c-.967 0-1.752.785-1.752 1.751h.3zm0 7.687V5.637h-.3v7.687h.3zm1.452 1.451c-.8 0-1.452-.651-1.452-1.451h-.3c0 .966.785 1.751 1.752 1.751v-.3zm8.326 0H4.837v.3h8.326v-.3zm1.452-1.451c0 .8-.651 1.451-1.452 1.451v.3c.966 0 1.752-.785 1.752-1.751h-.3zm0-6.086v6.086h.3V7.238h-.3zm0-.64v.64h.3v-.64h-.3zm0-.961v.961h.3v-.961h-.3zm-1.452-1.451c.8 0 1.452.651 1.452 1.451h.3c0-.965-.786-1.751-1.752-1.751v.3zm0 10.248c.614 0 1.111-.498 1.111-1.11h-.3c0 .447-.363.81-.81.81v.3zm-8.326 0h8.327v-.3H4.837v.3zm-1.111-1.11c0 .612.498 1.11 1.11 1.11v-.3a.812.812 0 0 1-.81-.81h-.3zm0-6.086v6.086h.3V7.238h-.3zm10.398-.15H3.876v.3h10.248v-.3zm.15 6.236V7.238h-.3v6.086h.3zm-.15-6.876H3.875v.3h10.25v-.3zm-.15-.811v.961h.3v-.961h-.3zm-.81-.81c.447 0 .81.363.81.81h.3c0-.613-.497-1.11-1.11-1.11v.3zm-.96 0h.96v-.3h-.96v.3zm.15.17v-.32h-.3v.32h.3zm-.471.47c.26 0 .47-.21.47-.47h-.3a.17.17 0 0 1-.17.17v.3zm-.47-.47c0 .26.21.47.47.47v-.3a.17.17 0 0 1-.17-.17h-.3zm0-.32v.32h.3v-.32h-.3zm-4.975.15h5.125v-.3H6.438v.3zm.15.17v-.32h-.3v.32h.3zm-.47.47c.26 0 .47-.21.47-.47h-.3a.17.17 0 0 1-.17.17v.3zm-.471-.47c0 .26.21.47.47.47v-.3a.17.17 0 0 1-.17-.17h-.3zm0-.32v.32h.3v-.32h-.3zm-.811.15h.96v-.3h-.96v.3zm-.81.81c0-.447.363-.81.81-.81v-.3c-.613 0-1.11.497-1.11 1.11h.3zm0 .961v-.961h-.3v.961h.3z"/>
    <path fill="#9A9A9A" fill-rule="evenodd" stroke="#9A9A9A" stroke-width=".2" d="M9.626 8.333v4.473h-.708V9.2c-.128.091-.266.17-.413.233-.148.064-.505.17-.505.17v-.604s.232-.08.342-.123a3.993 3.993 0 0 0 .648-.32 4.79 4.79 0 0 0 .337-.223h.3z" clip-rule="evenodd"/>
</svg>
