<svg xmlns="http://www.w3.org/2000/svg" width="18" height="18" fill="none" viewBox="0 0 18 18">
    <path fill="#525557" fill-rule="evenodd" d="M4.408 4.514c0 .007-.025.014-.056.014-.03 0-.055.006-.055.014 0 .007-.012.013-.028.013-.015 0-.027.007-.027.014 0 .008-.01.014-.021.014-.012 0-.043.022-.07.048-.026.026-.048.057-.048.07 0 .01-.006.02-.013.02-.008 0-.014.011-.014.025 0 .013-.013.033-.028.044-.015.011-.028.031-.028.045 0 .014-.006.025-.013.025-.008 0-.014.012-.014.027 0 .016-.006.028-.014.028s-.014.011-.014.025c0 .013-.012.033-.027.044-.016.011-.028.031-.028.045 0 .013-.006.024-.014.024s-.014.013-.014.028c0 .015-.006.028-.014.028-.007 0-.013.01-.013.024s-.013.034-.028.045c-.015.01-.028.03-.028.044 0 .014-.006.025-.014.025-.007 0-.013.011-.013.025 0 .013-.013.033-.028.044-.015.011-.028.031-.028.045 0 .013-.006.024-.014.024-.007 0-.013.013-.013.028 0 .015-.007.028-.014.028-.008 0-.014.01-.014.024s-.013.034-.028.045c-.015.01-.027.03-.027.044 0 .014-.007.025-.014.025-.008 0-.014.012-.014.028 0 .015-.006.027-.014.027s-.014.013-.014.028c0 .015-.006.028-.014.028-.007 0-.013.01-.013.024s-.013.034-.028.045c-.015.01-.028.03-.028.044 0 .014-.006.025-.014.025-.007 0-.013.012-.013.028 0 .015-.007.027-.014.027-.008 0-.014.011-.014.025 0 .013-.013.033-.028.044-.015.011-.027.031-.027.045 0 .013-.007.025-.014.025-.008 0-.014.012-.014.027s-.006.028-.014.028-.014.01-.014.024-.012.034-.027.045c-.016.011-.028.031-.028.045 0 .013-.006.024-.014.024s-.014.013-.014.028c0 .015-.006.027-.014.027-.007 0-.013.012-.013.025 0 .014-.013.034-.028.045-.015.01-.028.03-.028.044 0 .014-.006.025-.014.025-.007 0-.013.012-.013.027 0 .016-.007.028-.014.028-.008 0-.014.011-.014.025 0 .013-.013.033-.028.044-.015.011-.027.031-.027.045 0 .013-.007.024-.014.024-.008 0-.014.012-.014.025 0 .014-.013.034-.028.045-.015.01-.027.03-.027.044 0 .014-.007.025-.014.025-.008 0-.014.012-.014.027 0 .016-.006.028-.014.028s-.014.013-.014.028c0 .015-.006.027-.014.027-.007 0-.013.012-.013.025 0 .014-.013.034-.028.045-.015.01-.028.03-.028.044 0 .014-.006.025-.014.025-.007 0-.013.012-.013.027 0 .016-.007.028-.014.028-.008 0-.014.011-.014.025 0 .013-.013.033-.028.044-.015.011-.027.031-.027.045 0 .013-.007.024-.014.024-.008 0-.014.013-.014.028 0 .015-.006.028-.014.028-.007 0-.014.01-.014.024s-.012.034-.027.045c-.016.01-.028.03-.028.044 0 .014-.006.025-.014.025-.007 0-.014.013-.014.028 0 .015-.006.027-.014.027-.007 0-.013.011-.013.025 0 .014-.013.034-.028.045-.015.01-.028.03-.028.044 0 .014-.006.025-.014.025-.007 0-.013.012-.013.027 0 .016-.007.028-.014.028-.008 0-.014.011-.014.025 0 .013-.012.033-.028.044-.015.011-.027.031-.027.045 0 .013-.007.024-.014.024-.008 0-.014.013-.014.028 0 .015-.006.028-.014.028-.007 0-.014.012-.014.027 0 .016-.006.028-.014.028-.007 0-.013.012-.013.028 0 .015-.007.027-.014.027-.008 0-.014.046-.014.111s.006.11.014.11c.007 0 .014.02.014.042 0 .023.006.042.014.042.007 0 .013.01.013.02a.55.55 0 0 0 .17.173c.01 0 .027.013.038.028.01.015.03.028.044.028.014 0 .025.006.025.013 0 .008.012.014.028.014.015 0 .027.007.027.014 0 .008.011.014.025.014.013 0 .033.012.044.028.011.015.031.027.045.027.014 0 .025.006.025.014s.012.014.027.014.028.006.028.014c0 .007.011.014.025.014.013 0 .033.012.044.027.011.015.031.028.045.028.013 0 .024.006.024.014 0 .007.013.014.028.014.015 0 .028.006.028.013 0 .008.01.014.024.014s.034.013.045.028c.01.015.03.028.044.028.014 0 .025.006.025.013 0 .008.012.014.028.014.015 0 .027.006.027.014s.011.014.025.014c.013 0 .033.012.044.028.011.015.031.027.045.027.013 0 .025.006.025.014s.012.014.027.014.028.006.028.014c0 .007.011.014.024.014.014 0 .034.012.045.027.011.015.031.028.045.028.013 0 .024.006.024.014 0 .007.013.014.028.014.015 0 .028.006.028.013 0 .008.01.014.024.014s.034.013.045.028c.01.015.03.028.044.028.014 0 .025.006.025.013 0 .008.012.014.028.014.015 0 .027.006.027.014s.011.014.025.014c.013 0 .033.012.044.028.011.015.031.027.045.027.013 0 .025.006.025.014s.024.014.055.014c.03 0 .055.006.055.014s.042.014.097.014.097-.006.097-.014.017-.014.038-.014a.076.076 0 0 0 .059-.028c.01-.015.03-.027.041-.027.012 0 .03-.013.042-.028.02-.029.069-.038.069-.014 0 .008.01.014.024.014s.034.012.045.028c.01.015.028.027.038.027a.79.79 0 0 1 .197.197c0 .01.013.027.028.038.015.011.027.03.027.042 0 .012.013.03.028.041.015.011.028.031.028.045 0 .013.006.024.014.024.007 0 .013.013.013.028 0 .015.007.028.014.028.008 0 .014.012.014.027 0 .016.006.028.014.028s.014.019.014.042c0 .022.006.041.014.041.007 0 .013.019.013.042 0 .022.007.041.014.041.008 0 .014.013.014.028 0 .015.006.027.014.027s.014.013.014.028c0 .015.006.028.014.028.007 0 .013.01.013.021 0 .012.058.078.128.148.07.07.12.129.11.132-.009.003-.016.017-.016.032 0 .014-.007.026-.014.026-.008 0-.014.013-.014.028 0 .015-.006.028-.014.028-.007 0-.014.018-.014.041 0 .023-.006.042-.013.042-.009 0-.014.06-.014.152s.005.152.014.152c.007 0 .013.019.013.041 0 .023.007.042.014.042.008 0 .014.011.014.025 0 .013.012.033.028.044.015.011.027.028.027.039 0 .025.035.058.062.058.012 0 .021.006.021.014 0 .007.013.014.028.014.015 0 .028.006.028.014 0 .007.012.013.027.013.016 0 .028.007.028.014 0 .008.019.014.042.014.022 0 .041.006.041.014 0 .007.019.014.042.014.022 0 .041.006.041.014 0 .007.031.013.07.013.037 0 .068.007.068.014 0 .008.025.014.056.014h.055v.07c0 .037.006.068.014.068.007 0 .014.019.014.042 0 .023.006.041.013.041.008 0 .014.013.014.028 0 .015.007.028.014.028.008 0 .014.01.014.022 0 .012.019.04.041.06.023.022.042.047.042.056 0 .022.035.055.058.055.01 0 .028.013.039.028.01.015.03.028.044.028.014 0 .025.006.025.013 0 .008.019.014.041.014.023 0 .042.006.042.014s.031.014.07.014c.037 0 .068.006.068.014s.051.014.125.014c.115 0 .124.002.124.027 0 .016.006.028.014.028s.014.012.014.028c0 .015.006.027.014.027.007 0 .014.011.014.025 0 .013.012.034.027.044.015.011.028.031.028.045 0 .014.01.025.024.025s.034.012.045.027c.011.015.03.028.042.028.011 0 .03.012.041.028.011.015.03.027.042.027.011 0 .03.013.041.028.011.015.031.028.045.028.013 0 .024.006.024.013 0 .008.013.014.028.014.015 0 .028.006.028.014s.012.014.027.014.028.006.028.014c0 .007.012.014.027.014.016 0 .028.006.028.013 0 .008.019.014.042.014.022 0 .041.006.041.014s.019.014.042.014c.022 0 .041.006.041.014 0 .007.029.014.063.014.066 0 .103.022.103.06 0 .013.006.023.014.023s.014.01.014.022c0 .012.018.04.041.06.023.022.042.046.042.055 0 .022.092.111.114.111.01 0 .027.013.038.028.01.015.031.028.044.028.014 0 .025.006.025.014 0 .007.013.014.028.014.015 0 .027.006.027.013 0 .008.013.014.028.014.015 0 .028.006.028.014s.018.014.041.014c.023 0 .042.006.042.014 0 .007.036.014.082.014.052 0 .084.006.09.017.006.014.01.014.016 0 .004-.01.026-.018.048-.018.022 0 .04-.006.04-.013 0-.008.02-.014.042-.014.023 0 .041-.006.041-.014s.013-.014.028-.014c.015 0 .028-.006.028-.014 0-.007.01-.014.022-.014.012 0 .04-.018.06-.041.022-.023.048-.042.059-.042.01 0 .028-.012.039-.027a.076.076 0 0 1 .055-.028c.02 0 .044.013.055.028.011.015.031.027.045.027.013 0 .024.007.024.014 0 .009.065.014.166.014.102 0 .166-.005.166-.014 0-.007.019-.014.042-.014.023 0 .041-.006.041-.013 0-.008.013-.014.028-.014.015 0 .028-.006.028-.014s.012-.014.027-.014.028-.006.028-.014c0-.007.01-.014.022-.014.012 0 .04-.018.06-.041.022-.023.05-.042.062-.042.012 0 .022-.01.022-.022 0-.012.019-.04.041-.06.023-.022.042-.048.042-.058 0-.01.012-.028.028-.04a.073.073 0 0 0 .027-.052c0-.018.01-.041.02-.052.023-.023.063-.027.063-.006 0 .008.025.014.056.014.03 0 .055.006.055.014s.041.014.097.014c.055 0 .097.006.097.013 0 .009.06.014.152.014s.152-.005.152-.014c0-.008.055-.013.138-.013.083 0 .139-.006.139-.014s.041-.014.096-.014c.056 0 .097-.006.097-.014s.025-.014.056-.014c.03 0 .055-.006.055-.014 0-.007.019-.013.041-.013.023 0 .042-.007.042-.014 0-.008.01-.014.021-.014.012 0 .043-.022.07-.048.025-.026.047-.058.047-.07 0-.01.006-.02.014-.02s.014-.013.014-.028c0-.015.006-.028.014-.028.007 0 .013-.012.013-.027 0-.016.007-.028.014-.028.008 0 .014-.031.014-.07v-.068h.055c.03 0 .056-.007.056-.014 0-.008.018-.014.041-.014.023 0 .042-.006.042-.014s.018-.014.041-.014c.023 0 .042-.006.042-.014 0-.007.012-.013.027-.013.016 0 .028-.007.028-.014 0-.008.011-.014.025-.014.013 0 .033-.012.044-.028.011-.015.028-.027.038-.027a.79.79 0 0 0 .197-.198c0-.01.013-.027.028-.037.015-.011.028-.031.028-.045 0-.014.006-.025.014-.025.007 0 .013-.012.013-.027 0-.016.007-.028.014-.028.008 0 .014-.025.014-.055s.006-.056.014-.056.014-.04.014-.09c0-.115.014-.131.116-.131.043 0 .077-.006.077-.014 0-.007.019-.014.042-.014.023 0 .041-.006.041-.014 0-.007.025-.013.056-.013.03 0 .055-.006.055-.014s.012-.014.028-.014c.015 0 .027-.006.027-.014 0-.007.013-.014.028-.014.015 0 .028-.006.028-.014 0-.007.012-.013.027-.013s.028-.006.028-.014.012-.014.028-.014c.015 0 .027-.006.027-.014 0-.007.011-.014.025-.014.013 0 .033-.012.044-.027.011-.015.032-.028.045-.028.014 0 .025-.01.025-.025 0-.013.012-.033.027-.044.015-.011.028-.031.028-.045 0-.013.006-.024.014-.024.007 0 .014-.013.014-.028 0-.015.006-.028.013-.028.008 0 .014-.018.014-.041 0-.023.007-.042.014-.042.009 0 .014-.064.014-.166 0-.101-.005-.166-.014-.166-.008 0-.014-.018-.014-.041 0-.023-.006-.042-.014-.042-.007 0-.013-.01-.013-.024s-.013-.034-.028-.045c-.015-.01-.028-.028-.028-.04 0-.01-.014-.031-.03-.046-.022-.02-.026-.03-.015-.034.01-.004.018-.018.018-.033 0-.015.006-.027.013-.027.008 0 .014-.01.014-.022 0-.012.019-.04.042-.06.023-.022.041-.046.041-.055 0-.021.148-.167.17-.167.01 0 .027-.012.038-.027.01-.016.03-.028.041-.028.012 0 .03-.013.042-.028.01-.015.029-.027.04-.027.01 0 .03-.014.044-.03.023-.026.028-.027.047-.008a.074.074 0 0 1 .02.043c0 .012.007.022.015.022.007 0 .014.01.014.021 0 .037.175.2.214.2.019 0 .034.007.034.014 0 .008.02.014.042.014.023 0 .041.006.041.014s.025.014.056.014c.03 0 .055-.006.055-.014s.025-.014.056-.014c.03 0 .055-.006.055-.014 0-.007.012-.014.027-.014.016 0 .028-.006.028-.013 0-.008.013-.014.028-.014.015 0 .027-.006.027-.014s.013-.014.028-.014c.015 0 .028-.006.028-.014 0-.007.01-.014.024-.014s.034-.012.045-.027c.01-.015.031-.028.045-.028.013 0 .024-.006.024-.014 0-.007.011-.013.025-.013.013 0 .033-.013.044-.028.011-.015.031-.028.045-.028.013 0 .024-.006.024-.014 0-.007.013-.013.028-.013.015 0 .028-.007.028-.014 0-.008.01-.014.024-.014s.034-.013.045-.028c.01-.015.031-.027.044-.027.014 0 .025-.007.025-.014 0-.008.013-.014.028-.014.015 0 .027-.006.027-.014s.011-.014.025-.014c.014 0 .034-.012.045-.027.01-.016.03-.028.044-.028.014 0 .025-.006.025-.014s.012-.014.027-.014c.016 0 .028-.006.028-.014 0-.007.011-.013.025-.013.013 0 .033-.013.044-.028.011-.015.031-.028.045-.028.013 0 .024-.006.024-.014 0-.007.011-.013.025-.013.014 0 .034-.013.045-.028.01-.015.03-.028.044-.028.014 0 .025-.006.025-.014 0-.007.012-.013.027-.013.016 0 .028-.007.028-.014 0-.008.011-.014.025-.014.013 0 .033-.013.044-.028.011-.015.031-.027.045-.027.013 0 .024-.007.024-.014 0-.008.013-.014.028-.014.015 0 .028-.006.028-.014s.01-.014.024-.014.034-.012.045-.027c.01-.016.028-.028.038-.028.023 0 .114-.09.114-.114 0-.01.013-.027.028-.038a.076.076 0 0 0 .027-.059c0-.02.007-.038.014-.038.008 0 .014-.046.014-.11 0-.065-.006-.111-.014-.111-.007 0-.014-.02-.014-.042 0-.023-.006-.041-.013-.041-.008 0-.014-.013-.014-.028 0-.015-.007-.028-.014-.028-.008 0-.014-.01-.014-.024s-.012-.034-.028-.045c-.015-.01-.027-.03-.027-.044 0-.014-.007-.025-.014-.025-.008 0-.014-.012-.014-.028 0-.015-.006-.027-.014-.027-.007 0-.014-.011-.014-.025 0-.013-.012-.034-.027-.045-.015-.01-.028-.03-.028-.044 0-.014-.006-.025-.014-.025-.007 0-.014-.01-.014-.024s-.012-.034-.027-.045c-.015-.01-.028-.03-.028-.044 0-.014-.006-.025-.014-.025-.007 0-.014-.012-.014-.028 0-.015-.006-.027-.014-.027-.007 0-.013-.011-.013-.025 0-.013-.013-.033-.028-.044-.015-.011-.028-.031-.028-.045 0-.014-.006-.025-.014-.025-.007 0-.013-.012-.013-.027 0-.016-.006-.028-.014-.028s-.014-.011-.014-.025c0-.013-.012-.033-.028-.044-.015-.011-.027-.031-.027-.045 0-.013-.006-.024-.014-.024s-.014-.013-.014-.028c0-.015-.006-.028-.014-.028-.007 0-.014-.01-.014-.024s-.012-.034-.027-.045c-.016-.01-.028-.03-.028-.044 0-.014-.006-.025-.014-.025-.007 0-.014-.012-.014-.028 0-.015-.006-.027-.013-.027-.008 0-.014-.011-.014-.025 0-.013-.013-.033-.028-.044-.015-.011-.028-.031-.028-.045 0-.013-.006-.025-.013-.025-.008 0-.014-.01-.014-.024s-.013-.034-.028-.045c-.015-.01-.028-.03-.028-.044 0-.014-.006-.025-.013-.025-.008 0-.014-.012-.014-.028 0-.015-.007-.027-.014-.027-.008 0-.014-.011-.014-.025 0-.013-.012-.033-.028-.044-.015-.011-.027-.031-.027-.045 0-.013-.007-.025-.014-.025-.008 0-.014-.012-.014-.027s-.006-.028-.014-.028c-.007 0-.014-.01-.014-.024s-.012-.034-.027-.045c-.015-.011-.028-.031-.028-.045 0-.013-.006-.024-.014-.024-.007 0-.014-.013-.014-.028 0-.015-.006-.028-.013-.028-.008 0-.014-.01-.014-.024s-.013-.034-.028-.045c-.015-.01-.027-.03-.027-.044 0-.014-.007-.025-.014-.025-.008 0-.014-.012-.014-.027 0-.016-.006-.028-.014-.028s-.014-.011-.014-.025c0-.013-.012-.033-.028-.044-.015-.011-.027-.031-.027-.045 0-.013-.006-.024-.014-.024s-.014-.012-.014-.025c0-.014-.012-.034-.027-.045-.016-.01-.028-.03-.028-.044 0-.014-.006-.025-.014-.025s-.014-.012-.014-.027c0-.016-.006-.028-.014-.028-.007 0-.013-.011-.013-.025 0-.013-.013-.033-.028-.044-.015-.011-.028-.031-.028-.045 0-.013-.006-.024-.014-.024-.007 0-.014-.013-.014-.028 0-.015-.006-.028-.013-.028-.008 0-.014-.01-.014-.024s-.013-.034-.028-.045c-.015-.01-.027-.031-.027-.044 0-.014-.007-.025-.014-.025-.008 0-.014-.013-.014-.028 0-.015-.006-.027-.014-.027s-.014-.012-.014-.025c0-.014-.012-.034-.027-.045-.016-.01-.028-.03-.028-.044 0-.014-.006-.025-.014-.025s-.014-.012-.014-.027c0-.016-.006-.028-.014-.028-.007 0-.014-.011-.014-.025 0-.013-.012-.033-.027-.044-.015-.011-.028-.031-.028-.045 0-.013-.006-.024-.014-.024-.007 0-.014-.01-.014-.021 0-.028-.117-.145-.144-.145-.012 0-.022-.007-.022-.014 0-.008-.018-.014-.041-.014-.023 0-.041-.006-.041-.014s-.051-.014-.125-.014c-.074 0-.124.006-.124.014s-.02.014-.042.014c-.023 0-.041.006-.041.014 0 .007-.011.014-.025.014-.014 0-.034.012-.045.027-.01.016-.03.028-.044.028-.014 0-.025.006-.025.014 0 .007-.012.014-.027.014-.016 0-.028.006-.028.013 0 .008-.011.014-.025.014-.013 0-.033.013-.044.028-.011.015-.031.028-.045.028-.013 0-.024.006-.024.013 0 .008-.011.014-.025.014-.014 0-.034.013-.045.028-.01.015-.03.028-.044.028-.014 0-.025.006-.025.013 0 .008-.012.014-.027.014-.016 0-.028.006-.028.014s-.011.014-.025.014c-.013 0-.033.012-.044.028-.011.015-.031.027-.045.027-.013 0-.024.006-.024.014s-.013.014-.028.014c-.015 0-.028.006-.028.014 0 .007-.01.014-.024.014s-.034.012-.045.027c-.01.015-.03.028-.044.028-.014 0-.025.006-.025.014 0 .007-.011.014-.025.014-.013 0-.033.012-.044.027-.011.015-.031.028-.045.028-.013 0-.024.006-.024.014 0 .007-.013.014-.028.014-.015 0-.028.006-.028.013 0 .008-.01.014-.024.014s-.034.013-.045.028c-.01.015-.03.028-.044.028-.014 0-.025.006-.025.013 0 .008-.012.014-.028.014-.015 0-.027.006-.027.014s-.011.014-.025.014c-.013 0-.034.012-.044.028-.011.015-.032.027-.045.027-.014 0-.025.006-.025.014s-.01.014-.024.014-.034.012-.045.028c-.01.015-.028.027-.038.027-.024 0-.059.034-.059.058 0 .01-.012.028-.027.039-.016.011-.028.031-.028.045 0 .013-.006.024-.014.024-.007 0-.014.019-.014.042 0 .023-.006.041-.013.041-.008 0-.014.042-.014.097s.006.097.014.097c.007 0 .013.018.013.041 0 .037-.004.042-.041.042-.023 0-.042-.006-.042-.014s-.012-.014-.027-.014c-.016 0-.028-.006-.028-.014 0-.007-.019-.014-.041-.014-.023 0-.042-.006-.042-.013 0-.008-.012-.014-.028-.014-.015 0-.027-.006-.027-.014s-.013-.014-.028-.014c-.015 0-.028-.006-.028-.014 0-.007-.012-.013-.027-.013s-.028-.007-.028-.014c0-.008-.011-.014-.024-.014-.014 0-.034-.013-.045-.028-.011-.015-.031-.027-.045-.027-.013 0-.024-.007-.024-.014 0-.008-.011-.014-.025-.014-.013 0-.033-.013-.044-.028-.011-.015-.031-.027-.045-.027-.014 0-.024-.007-.024-.014 0-.008-.013-.014-.028-.014-.015 0-.028-.006-.028-.014s-.012-.014-.027-.014c-.016 0-.028-.006-.028-.014 0-.007-.013-.013-.028-.013-.015 0-.027-.007-.027-.014 0-.008-.013-.014-.028-.014-.015 0-.028-.006-.028-.014s-.018-.014-.041-.014c-.023 0-.042-.006-.042-.014 0-.007-.012-.013-.027-.013-.016 0-.028-.007-.028-.014 0-.008-.019-.014-.042-.014-.023 0-.041-.006-.041-.014s-.025-.014-.056-.014c-.03 0-.055-.006-.055-.014 0-.007-.037-.013-.083-.013-.046 0-.083-.007-.083-.014 0-.009-.055-.014-.138-.014-.083 0-.138.005-.138.014 0 .008-.042.014-.097.014-.056 0-.097.005-.097.013s-.031.014-.07.014c-.037 0-.068.006-.068.014s-.02.014-.042.014c-.023 0-.041.006-.041.014 0 .007-.02.014-.042.014-.023 0-.041.006-.041.013 0 .008-.02.014-.042.014-.023 0-.041.006-.041.014 0 .03-.074.013-.111-.028-.021-.022-.049-.041-.06-.041-.013 0-.023-.006-.023-.014S9.238 5.8 9.224 5.8c-.013 0-.033-.012-.044-.027-.011-.016-.031-.028-.045-.028-.013 0-.024-.006-.024-.014s-.013-.014-.028-.014c-.015 0-.028-.006-.028-.014 0-.007-.012-.013-.027-.013-.016 0-.028-.007-.028-.014 0-.008-.019-.014-.041-.014-.023 0-.042-.006-.042-.014s-.019-.014-.041-.014c-.023 0-.042-.006-.042-.014 0-.007-.025-.013-.055-.013s-.056-.007-.056-.014c0-.008-.037-.014-.083-.014-.046 0-.083-.006-.083-.014s-.06-.014-.152-.014-.152.006-.152.014-.031.014-.07.014c-.037 0-.068.006-.068.014 0 .007-.031.014-.07.014-.037 0-.069.006-.069.013 0 .008-.018.014-.041.014-.023 0-.042.006-.042.014s-.018.014-.041.014c-.023 0-.042.006-.042.014 0 .007-.018.014-.041.014-.023 0-.042.006-.042.013 0 .008-.012.014-.027.014s-.028.006-.028.014-.012.014-.028.014c-.015 0-.027.006-.027.014 0 .007-.019.014-.042.014-.023 0-.041.006-.041.013 0 .008-.013.014-.028.014-.015 0-.028.006-.028.014s-.012.014-.027.014-.028.006-.028.014c0 .007-.012.014-.028.014-.015 0-.027.006-.027.013 0 .008-.013.014-.028.014-.015 0-.027.006-.027.014s-.013.014-.028.014c-.015 0-.028.006-.028.014 0 .007-.012.014-.027.014-.016 0-.028.006-.028.013 0 .008-.019.014-.042.014-.022 0-.041.006-.041.014s-.019.014-.042.014c-.022 0-.041.006-.041.014 0 .007-.019.014-.042.014-.022 0-.041.006-.041.013 0 .008-.025.014-.055.014s-.056.006-.056.014-.03.014-.069.014c-.038 0-.07.006-.07.014s-.068.014-.179.014c-.11 0-.18-.006-.18-.014s-.025-.014-.055-.014-.055-.006-.055-.014.006-.014.013-.014c.008 0 .014-.01.014-.024s.013-.034.028-.045a.076.076 0 0 0 .028-.058c0-.021.006-.039.013-.039.008 0 .014-.046.014-.11 0-.065-.006-.111-.014-.111-.007 0-.013-.019-.013-.042 0-.022-.007-.041-.014-.041-.008 0-.014-.01-.014-.021a.52.52 0 0 0-.173-.173c-.011 0-.02-.006-.02-.014 0-.007-.012-.013-.025-.013-.014 0-.034-.013-.045-.028-.01-.015-.03-.028-.044-.028-.014 0-.025-.006-.025-.014 0-.007-.012-.013-.028-.013-.015 0-.027-.007-.027-.014 0-.008-.011-.014-.025-.014-.014 0-.034-.013-.045-.028-.01-.015-.03-.027-.044-.027-.014 0-.025-.007-.025-.014 0-.008-.012-.014-.027-.014-.016 0-.028-.006-.028-.014s-.011-.014-.025-.014c-.013 0-.033-.012-.044-.027-.011-.016-.031-.028-.045-.028-.013 0-.024-.006-.024-.014s-.013-.014-.028-.014c-.015 0-.028-.006-.028-.014 0-.007-.01-.013-.024-.013s-.034-.013-.045-.028c-.01-.015-.03-.028-.044-.028-.014 0-.025-.006-.025-.014 0-.007-.012-.013-.028-.013-.015 0-.027-.007-.027-.014 0-.008-.013-.014-.028-.014-.015 0-.028-.006-.028-.014 0-.007-.01-.014-.024-.014s-.034-.012-.045-.027c-.01-.016-.03-.028-.044-.028-.014 0-.025-.006-.025-.014 0-.007-.012-.014-.028-.014-.015 0-.027-.006-.027-.014 0-.007-.011-.013-.025-.013-.013 0-.033-.013-.044-.028-.011-.015-.031-.028-.045-.028-.014 0-.025-.006-.025-.014 0-.007-.012-.013-.027-.013s-.028-.007-.028-.014c0-.008-.011-.014-.025-.014-.013 0-.033-.012-.044-.028-.011-.015-.031-.027-.045-.027-.013 0-.024-.007-.024-.014 0-.008-.013-.014-.028-.014-.015 0-.028-.006-.028-.014 0-.007-.012-.014-.027-.014s-.028-.006-.028-.013c0-.008-.025-.014-.055-.014s-.056-.007-.056-.014c0-.008-.024-.014-.055-.014-.03 0-.055.006-.055.014zm.11.47c0 .008.013.014.028.014.015 0 .028.006.028.014 0 .007.01.014.024.014s.034.012.045.027c.01.015.03.028.044.028.014 0 .025.006.025.014 0 .007.013.014.028.014.015 0 .027.006.027.013 0 .008.011.014.025.014.014 0 .034.013.045.028.01.015.03.028.044.028.014 0 .025.006.025.013 0 .008.012.014.027.014.016 0 .028.006.028.014s.011.014.025.014c.013 0 .033.012.044.028.011.015.031.027.045.027.013 0 .024.006.024.014s.013.014.028.014c.015 0 .028.006.028.014 0 .007.01.014.024.014s.034.012.045.027c.01.015.03.028.044.028.014 0 .025.006.025.014 0 .007.012.014.028.014.015 0 .027.006.027.013 0 .008.013.014.028.014.015 0 .028.006.028.014s.01.014.024.014.034.012.045.028c.01.015.03.027.044.027.014 0 .025.006.025.014s.012.014.028.014c.015 0 .027.006.027.014 0 .007.011.014.025.014.013 0 .034.012.045.027.01.015.03.028.044.028.014 0 .025.006.025.014 0 .007.012.014.027.014.016 0 .028.006.028.013 0 .008.01.014.021.014.012 0 .038.016.057.035l.035.036-.029.025c-.016.014-.029.035-.029.048 0 .012-.006.022-.014.022-.007 0-.013.013-.013.028 0 .015-.007.028-.014.028-.008 0-.014.01-.014.024s-.012.034-.028.045c-.015.01-.027.03-.027.044 0 .014-.007.025-.014.025-.008 0-.014.012-.014.028 0 .015-.006.027-.014.027-.007 0-.014.011-.014.025 0 .013-.012.033-.027.044-.016.011-.028.031-.028.045 0 .013-.006.024-.014.024-.007 0-.014.013-.014.028 0 .015-.006.028-.014.028-.007 0-.013.01-.013.024s-.013.034-.028.045c-.015.011-.028.031-.028.045 0 .013-.006.024-.013.024-.008 0-.014.013-.014.028 0 .015-.007.027-.014.027-.008 0-.014.012-.014.025 0 .014-.012.034-.028.045-.015.01-.027.03-.027.044 0 .014-.007.025-.014.025-.008 0-.014.012-.014.027 0 .016-.006.028-.014.028-.007 0-.014.011-.014.025 0 .013-.012.033-.027.044-.016.011-.028.031-.028.045 0 .013-.006.024-.014.024-.007 0-.014.013-.014.028 0 .015-.006.028-.013.028-.008 0-.014.01-.014.024s-.013.034-.028.045c-.015.01-.028.03-.028.044 0 .014-.006.025-.013.025-.008 0-.014.013-.014.028 0 .015-.007.027-.014.027-.008 0-.014.011-.014.025 0 .014-.012.034-.028.045-.015.01-.027.03-.027.044 0 .014-.006.025-.014.025s-.014.012-.014.027c0 .016-.006.028-.014.028-.007 0-.014.011-.014.025 0 .013-.012.033-.027.044-.015.011-.028.031-.028.045 0 .013-.006.024-.014.024-.007 0-.014.013-.014.028 0 .015-.006.028-.013.028-.008 0-.014.01-.014.024s-.013.034-.028.045c-.015.01-.028.03-.028.044 0 .014-.006.025-.013.025-.008 0-.014.012-.014.028 0 .015-.006.027-.014.027s-.014.011-.014.025c0 .013-.012.034-.028.045-.015.01-.027.03-.027.044 0 .014-.006.025-.014.025s-.014.012-.014.027c0 .016-.006.028-.014.028-.007 0-.014.011-.014.025 0 .013-.012.033-.027.044-.015.011-.028.031-.028.045 0 .013-.006.024-.014.024-.007 0-.014.013-.014.028 0 .015-.006.028-.013.028-.008 0-.014.01-.014.024s-.013.034-.028.045c-.015.01-.028.03-.028.044 0 .014-.006.025-.013.025-.008 0-.014.012-.014.028 0 .015-.006.027-.014.027s-.014.011-.014.025c0 .013-.012.033-.028.044-.015.011-.027.031-.027.045 0 .014-.006.025-.014.025s-.014.012-.014.027-.006.028-.014.028c-.007 0-.014.011-.014.025 0 .013-.012.033-.027.044-.015.011-.028.031-.028.045 0 .013-.006.024-.014.024-.007 0-.014.013-.014.028 0 .015-.006.028-.013.028-.008 0-.014.01-.014.024s-.013.034-.028.045c-.015.01-.028.03-.028.044 0 .014-.006.025-.013.025-.008 0-.014.01-.014.022 0 .012-.01.031-.021.043-.02.019-.024.018-.047-.008-.014-.016-.035-.03-.048-.03-.012 0-.023-.006-.023-.013 0-.008-.012-.014-.027-.014s-.028-.006-.028-.014-.01-.014-.024-.014-.034-.012-.045-.027c-.011-.016-.031-.028-.045-.028-.013 0-.024-.006-.024-.014s-.013-.014-.028-.014c-.015 0-.027-.006-.027-.014 0-.007-.012-.013-.025-.013-.014 0-.034-.013-.045-.028-.01-.015-.03-.028-.044-.028-.014 0-.025-.006-.025-.014 0-.007-.012-.013-.027-.013-.016 0-.028-.007-.028-.014 0-.008-.011-.014-.025-.014-.013 0-.033-.013-.044-.028-.011-.015-.031-.027-.045-.027-.013 0-.024-.007-.024-.014 0-.008-.013-.014-.028-.014-.015 0-.028-.006-.028-.014s-.012-.014-.027-.014c-.016 0-.028-.006-.028-.014 0-.007-.011-.013-.025-.013-.013 0-.033-.013-.044-.028-.011-.015-.031-.028-.045-.028-.013 0-.024-.006-.024-.014 0-.007-.013-.013-.028-.013-.015 0-.028-.007-.028-.014 0-.008-.01-.014-.024-.014s-.034-.012-.045-.028c-.01-.015-.03-.027-.044-.027-.014 0-.025-.007-.025-.014 0-.008-.013-.014-.028-.014-.015 0-.027-.006-.027-.014 0-.007-.011-.014-.025-.014-.014 0-.034-.012-.045-.027-.01-.016-.03-.028-.044-.028-.014 0-.025-.006-.025-.014 0-.007-.012-.014-.027-.014-.016 0-.028-.006-.028-.014 0-.007-.013-.013-.028-.013-.017 0-.027-.01-.027-.025 0-.014.012-.034.027-.045.015-.01.028-.03.028-.044 0-.014.006-.025.014-.025.007 0 .014-.012.014-.027 0-.016.006-.028.013-.028.008 0 .014-.011.014-.025 0-.013.013-.033.028-.044.015-.011.028-.031.028-.045 0-.013.006-.024.013-.024.008 0 .014-.013.014-.028 0-.015.006-.028.014-.028s.014-.01.014-.024.012-.034.028-.045c.015-.01.027-.03.027-.044 0-.014.006-.025.014-.025s.014-.012.014-.028c0-.015.006-.027.014-.027.007 0 .014-.011.014-.025 0-.013.012-.033.027-.044.015-.011.028-.031.028-.045 0-.014.006-.025.014-.025.007 0 .014-.012.014-.027s.006-.028.013-.028c.008 0 .014-.011.014-.025 0-.013.013-.033.028-.044.015-.011.028-.031.028-.045 0-.013.006-.024.013-.024.008 0 .014-.013.014-.028 0-.015.006-.028.014-.028s.014-.01.014-.024.012-.034.028-.045c.015-.01.027-.03.027-.044 0-.014.006-.025.014-.025s.014-.012.014-.028c0-.015.006-.027.014-.027.007 0 .014-.011.014-.025 0-.013.012-.033.027-.044.015-.011.028-.031.028-.045 0-.013.006-.025.014-.025.007 0 .014-.012.014-.027s.006-.028.013-.028c.008 0 .014-.011.014-.024 0-.014.013-.034.028-.045.015-.011.028-.031.028-.045 0-.013.006-.024.013-.024.008 0 .014-.013.014-.028 0-.015.006-.028.014-.028s.014-.01.014-.024.012-.034.028-.045c.015-.01.027-.03.027-.044 0-.014.006-.025.014-.025s.014-.012.014-.028c0-.015.006-.027.014-.027.007 0 .014-.011.014-.025 0-.013.012-.033.027-.044.015-.011.028-.031.028-.045 0-.013.006-.024.014-.024.007 0 .014-.013.014-.028 0-.015.006-.028.013-.028.008 0 .014-.01.014-.024s.013-.034.028-.045c.015-.011.028-.031.028-.045 0-.013.006-.024.013-.024.008 0 .014-.013.014-.028 0-.015.006-.027.014-.027s.014-.012.014-.025c0-.014.012-.034.027-.045.016-.01.028-.03.028-.044 0-.014.006-.025.014-.025s.014-.012.014-.027c0-.016.006-.028.014-.028.007 0 .013-.011.013-.025 0-.013.013-.033.028-.044.015-.011.028-.031.028-.045 0-.013.006-.024.014-.024.007 0 .013-.013.013-.028 0-.015.007-.028.014-.028.008 0 .014-.01.014-.024s.013-.034.028-.045c.015-.01.027-.03.027-.044 0-.014.007-.025.014-.025.008 0 .014-.013.014-.028 0-.015.006-.027.014-.027s.014-.011.014-.025c0-.014.012-.034.027-.045.016-.01.028-.03.028-.044 0-.014.006-.025.014-.025s.014-.012.014-.027c0-.016.006-.028.014-.028.007 0 .013-.011.013-.025 0-.013.013-.033.028-.044.015-.011.028-.031.028-.045 0-.013.006-.024.014-.024.007 0 .013-.013.013-.028 0-.022.01-.028.042-.028.023 0 .041.007.041.014zm9.027.366c.01.01.02.03.02.041 0 .012.006.022.013.022.008 0 .014.012.014.028 0 .015.006.027.014.027s.014.011.014.025c0 .013.012.033.028.044.015.011.027.031.027.045 0 .013.006.025.014.025s.014.01.014.024.012.034.027.045c.016.01.028.03.028.044 0 .014.006.025.014.025s.014.012.014.028c0 .015.006.027.014.027.007 0 .013.011.013.025 0 .013.013.033.028.044.015.011.028.031.028.045 0 .013.006.025.014.025.007 0 .014.012.014.027s.006.028.013.028c.008 0 .014.01.014.024s.013.034.028.045c.015.011.027.031.027.045 0 .013.007.024.014.024.008 0 .014.013.014.028 0 .015.006.027.014.027s.014.012.014.025c0 .014.012.034.027.045.016.01.028.03.028.044 0 .014.006.025.014.025s.014.01.014.024.012.034.027.045c.016.011.028.031.028.045 0 .013.006.024.014.024s.014.013.014.028c0 .015.006.027.014.027.007 0 .014.012.014.025 0 .014.012.034.027.045.015.01.028.03.028.044 0 .014.006.025.014.025.007 0 .014.012.014.027 0 .016.006.028.013.028.008 0 .014.011.014.025 0 .013.013.033.028.044.015.011.027.031.027.045 0 .013.007.024.014.024.008 0 .014.013.014.028 0 .015.006.028.014.028s.014.01.014.024.012.034.027.045c.016.01.028.03.028.044 0 .014.006.025.014.025s.014.011.014.025c0 .013.012.033.027.044.016.011.028.031.028.045 0 .013.006.024.014.024s.014.013.014.028c0 .015.006.028.014.028.007 0 .013.01.013.024s.013.034.028.045c.015.01.028.03.028.044 0 .014.006.025.014.025.007 0 .013.013.013.028 0 .015.007.027.014.027.008 0 .014.011.014.025 0 .014.013.034.028.045.015.01.027.03.027.044 0 .014.007.025.014.025.008 0 .014.012.014.027 0 .016.006.028.014.028.007 0 .014.011.014.025 0 .013.012.033.027.044.016.011.028.031.028.045 0 .013.006.024.014.024s.014.013.014.028c0 .015.006.028.014.028.007 0 .013.01.013.024s.013.034.028.045c.015.01.028.03.028.044 0 .014.006.025.014.025.007 0 .013.011.013.025 0 .013.013.033.028.044.015.011.028.031.028.045 0 .013.006.024.014.024.007 0 .013.013.013.028 0 .015.007.028.014.028.008 0 .014.01.014.024s.012.034.028.045c.015.01.027.03.027.044 0 .014.007.025.014.025.008 0 .014.012.014.028 0 .015.006.027.014.027s.014.012.014.027c0 .014.007.029.017.032.023.008-.02.052-.05.052-.013 0-.023.006-.023.014 0 .007-.012.014-.027.014s-.028.006-.028.013c0 .008-.011.014-.024.014-.014 0-.034.013-.045.028-.011.015-.031.028-.045.028-.013 0-.024.006-.024.013 0 .008-.013.014-.028.014-.015 0-.028.006-.028.014s-.01.014-.024.014-.034.012-.045.028c-.01.015-.03.027-.044.027-.014 0-.025.006-.025.014s-.012.014-.028.014c-.015 0-.027.006-.027.014 0 .007-.011.014-.025.014-.013 0-.033.012-.044.027-.011.015-.031.028-.045.028-.013 0-.025.006-.025.014 0 .007-.012.014-.027.014s-.028.006-.028.013c0 .008-.012.014-.027.014-.016 0-.028.006-.028.014s-.011.014-.025.014c-.013 0-.033.012-.044.028-.011.015-.031.027-.045.027-.014 0-.024.006-.024.014s-.013.014-.028.014c-.015 0-.028.006-.028.014 0 .007-.01.014-.024.014s-.034.012-.045.027c-.011.015-.031.028-.045.028-.013 0-.024.006-.024.014 0 .007-.013.014-.028.014-.015 0-.027.006-.027.013 0 .008-.012.014-.025.014-.014 0-.034.013-.045.028-.01.015-.03.028-.044.028-.014 0-.025.006-.025.013 0 .008-.012.014-.027.014-.016 0-.028.006-.028.014s-.013.014-.028.014c-.015 0-.027.006-.027.014 0 .007-.013.014-.028.014-.019 0-.028-.01-.028-.028 0-.015-.006-.028-.014-.028-.007 0-.014-.012-.014-.027 0-.016-.006-.028-.013-.028-.008 0-.014-.011-.014-.025 0-.013-.013-.033-.028-.044-.015-.011-.027-.031-.027-.045 0-.013-.007-.024-.014-.024-.008 0-.014-.013-.014-.028 0-.015-.006-.028-.014-.028s-.014-.01-.014-.024-.012-.034-.027-.045c-.016-.01-.028-.03-.028-.044 0-.014-.006-.025-.014-.025s-.014-.013-.014-.028c0-.015-.006-.027-.014-.027-.007 0-.013-.011-.013-.025 0-.014-.013-.034-.028-.045-.015-.01-.028-.03-.028-.044 0-.014-.006-.025-.014-.025-.007 0-.013-.012-.013-.027 0-.016-.007-.028-.014-.028-.008 0-.014-.011-.014-.025 0-.013-.013-.033-.028-.044-.015-.011-.027-.031-.027-.045 0-.013-.007-.024-.014-.024-.008 0-.014-.013-.014-.028 0-.015-.006-.028-.014-.028-.007 0-.014-.01-.014-.024s-.012-.034-.027-.045c-.016-.01-.028-.03-.028-.044 0-.014-.006-.025-.014-.025-.007 0-.014-.012-.014-.028 0-.015-.006-.027-.014-.027-.007 0-.013-.011-.013-.025 0-.014-.013-.034-.028-.045-.015-.01-.028-.03-.028-.044 0-.014-.006-.025-.014-.025-.007 0-.013-.012-.013-.027 0-.016-.007-.028-.014-.028-.008 0-.014-.011-.014-.025 0-.013-.012-.033-.028-.044-.015-.011-.027-.031-.027-.045 0-.013-.007-.024-.014-.024-.008 0-.014-.013-.014-.028 0-.015-.006-.028-.014-.028s-.014-.01-.014-.024-.012-.034-.027-.045c-.016-.01-.028-.03-.028-.044 0-.014-.006-.025-.014-.025s-.014-.012-.014-.028c0-.015-.006-.027-.014-.027-.007 0-.013-.011-.013-.025 0-.013-.013-.033-.028-.044-.015-.011-.028-.031-.028-.045 0-.014-.006-.025-.014-.025-.007 0-.013-.012-.013-.027 0-.016-.007-.028-.014-.028-.008 0-.014-.011-.014-.025 0-.013-.012-.033-.028-.044-.015-.011-.027-.031-.027-.045 0-.013-.007-.024-.014-.024-.008 0-.014-.013-.014-.028 0-.015-.006-.028-.014-.028s-.014-.01-.014-.024-.012-.034-.027-.045c-.016-.01-.028-.03-.028-.044 0-.014-.006-.025-.014-.025s-.014-.012-.014-.028c0-.015-.006-.027-.014-.027-.007 0-.013-.011-.013-.025 0-.013-.013-.033-.028-.044-.015-.011-.028-.031-.028-.045 0-.013-.006-.025-.014-.025-.007 0-.013-.012-.013-.027s-.007-.028-.014-.028c-.008 0-.014-.011-.014-.025 0-.013-.013-.033-.028-.044-.015-.011-.027-.031-.027-.045 0-.013-.007-.024-.014-.024-.008 0-.014-.013-.014-.028 0-.015-.006-.028-.014-.028-.007 0-.014-.01-.014-.024s-.012-.034-.027-.045c-.015-.01-.028-.03-.028-.044 0-.014-.006-.025-.014-.025-.007 0-.014-.012-.014-.028 0-.015-.006-.027-.013-.027-.008 0-.014-.011-.014-.025 0-.013-.013-.033-.028-.044-.015-.011-.028-.031-.028-.045 0-.013-.006-.025-.013-.025-.008 0-.014-.012-.014-.027s-.006-.028-.014-.028-.014-.012-.014-.027c0-.016-.006-.028-.014-.028a.014.014 0 0 1-.014-.014c0-.008.013-.014.028-.014.015 0 .028-.006.028-.014 0-.007.01-.013.024-.013s.034-.013.045-.028c.01-.015.03-.028.044-.028.014 0 .025-.006.025-.014 0-.007.011-.013.025-.013.013 0 .033-.013.044-.028.011-.015.031-.028.045-.028.013 0 .024-.006.024-.014 0-.007.013-.013.028-.013.015 0 .028-.007.028-.014 0-.008.01-.014.024-.014s.034-.013.045-.028c.01-.015.03-.027.044-.027.014 0 .025-.007.025-.014 0-.008.012-.014.028-.014.015 0 .027-.006.027-.014s.011-.014.025-.014c.013 0 .034-.012.044-.027.011-.016.032-.028.045-.028.014 0 .025-.006.025-.014s.01-.014.024-.014.034-.012.045-.027c.01-.016.03-.028.044-.028.014 0 .025-.006.025-.014s.012-.014.028-.014c.015 0 .027-.006.027-.014 0-.007.011-.013.025-.013.013 0 .034-.013.044-.028.011-.015.031-.028.045-.028.014 0 .025-.006.025-.014 0-.007.012-.013.027-.013.016 0 .028-.007.028-.014 0-.008.011-.014.024-.014.014 0 .034-.013.045-.028.011-.015.031-.027.045-.027.013 0 .024-.007.024-.014 0-.008.013-.014.028-.014.015 0 .028-.006.028-.014s.01-.014.024-.014.034-.012.045-.027c.023-.033.05-.036.077-.008zm-8.418.381c0 .008-.016.014-.035.014-.039 0-.13.082-.13.117 0 .012-.007.021-.015.021-.007 0-.014.019-.014.042 0 .023-.006.041-.013.041-.008 0-.014.013-.014.028 0 .015.006.028.014.028.007 0 .013.021.013.048 0 .04.012.061.062.11.034.035.072.063.083.063.012 0 .021.006.021.014s.042.013.097.013c.056 0 .097-.005.097-.013s.01-.014.021-.014c.028 0 .117-.09.117-.117 0-.012.007-.021.014-.021.008 0 .014-.019.014-.04 0-.023.008-.045.017-.05.014-.006.014-.009 0-.015-.01-.005-.017-.033-.017-.063s-.006-.054-.014-.054c-.007 0-.014-.01-.014-.021 0-.035-.092-.117-.13-.117-.02 0-.036-.006-.036-.014s-.03-.014-.069-.014c-.038 0-.069.006-.069.014zm3.486.304c0 .008.025.014.055.014s.055.006.055.014.019.014.042.014c.023 0 .041.006.041.014 0 .007.013.014.028.014.015 0 .028.006.028.013 0 .008.012.014.027.014.016 0 .028.006.028.014s-.012.014-.028.014c-.015 0-.027.006-.027.014 0 .007-.013.013-.028.013-.015 0-.028.007-.028.014 0 .008-.018.014-.041.014-.023 0-.042.006-.042.014s-.012.014-.027.014c-.016 0-.028.006-.028.014 0 .007-.019.013-.041.013-.023 0-.042.007-.042.014 0 .008-.012.014-.028.014-.015 0-.027.006-.027.014s-.019.014-.042.014c-.023 0-.041.006-.041.014 0 .007-.013.013-.028.013-.015 0-.028.007-.028.014 0 .008-.018.014-.041.014-.023 0-.042.006-.042.014s-.018.014-.041.014c-.023 0-.042.006-.042.014 0 .007-.018.013-.041.013-.023 0-.042.007-.042.014 0 .008-.018.014-.041.014-.023 0-.042.006-.042.014s-.024.014-.055.014c-.03 0-.055.006-.055.014 0 .007-.019.013-.042.013-.023 0-.041.007-.041.014 0 .008-.025.014-.056.014-.03 0-.055.006-.055.014s-.025.014-.055.014-.056.006-.056.014c0 .007-.024.013-.055.013-.03 0-.055.007-.055.014 0 .008-.031.014-.07.014-.037 0-.069.006-.069.014s-.03.014-.069.014c-.038 0-.069.006-.069.014 0 .007-.037.013-.083.013-.046 0-.083.007-.083.014 0 .008-.016.014-.035.014-.039 0-.13.082-.13.117 0 .012-.007.021-.015.021-.007 0-.013.025-.013.056 0 .03-.007.055-.014.055-.009 0-.014.083-.014.221 0 .139.005.222.014.222.007 0 .014.025.014.055s.006.055.013.055c.008 0 .014.013.014.028 0 .015.006.028.014.028s.014.018.014.041c0 .023.006.042.014.042.007 0 .014.012.014.027 0 .016.006.028.013.028.008 0 .014.011.014.025 0 .013.013.033.028.044.015.011.028.028.028.038 0 .023.229.253.252.253.01 0 .027.012.038.027.011.016.03.028.041.028.012 0 .031.012.042.028.011.015.031.027.045.027.013 0 .024.007.024.014 0 .008.019.014.042.014.022 0 .041.006.041.014 0 .007.019.014.042.014.022 0 .041.006.041.013 0 .008.025.014.055.014s.056.007.056.014c0 .009.083.014.221.014s.221-.005.221-.014c0-.008.037-.014.083-.014.046 0 .083-.006.083-.014 0-.007.025-.013.056-.013.03 0 .055-.007.055-.014 0-.008.025-.014.055-.014s.056-.006.056-.014c0-.007.025-.014.055-.014s.055-.006.055-.014c0-.007.025-.013.056-.013.03 0 .055-.007.055-.014 0-.008.031-.014.07-.014.037 0 .068-.006.068-.014s.056-.014.139-.014c.083 0 .138.006.138.014s.019.014.041.014c.023 0 .042.006.042.014 0 .007.01.014.02.014.012 0 .168.146.347.325.178.178.325.334.325.345 0 .012.006.021.013.021.008 0 .014.01.014.022 0 .025.033.061.056.061.009 0 .034.019.055.042.021.023.047.041.058.041.01 0 .028.013.039.028.01.015.03.028.041.028.012 0 .03.012.042.027.01.015.03.028.041.028.012 0 .03.012.042.028.01.015.03.027.044.027.014 0 .025.006.025.014s.012.014.027.014c.016 0 .028.006.028.014 0 .007.011.014.025.014.013 0 .033.012.044.027.011.015.031.028.045.028.013 0 .024.006.024.014 0 .007.012.014.025.014.014 0 .034.012.045.027.01.015.03.028.044.028.014 0 .025.006.025.014 0 .007.012.014.027.014.016 0 .028.006.028.013 0 .008.013.014.028.014.015 0 .027.006.027.014s.012.014.025.014c.014 0 .034.012.045.028.01.015.03.027.044.027.014 0 .025.006.025.014s.012.014.027.014c.016 0 .028.006.028.014 0 .007.013.014.028.014.015 0 .027.006.027.013 0 .008.013.014.028.014.015 0 .028.006.028.014s.012.014.027.014c.016 0 .028.006.028.014 0 .007.013.013.028.013.015 0 .027.007.027.014 0 .008.013.014.028.014.015 0 .028.006.028.014s.012.014.027.014c.016 0 .028.006.028.014 0 .007.019.013.042.013.022 0 .041.007.041.014 0 .008.012.014.028.014.015 0 .027.006.027.014s.013.014.028.014c.015 0 .028.006.028.014 0 .007.012.013.027.013.016 0 .028.007.028.014 0 .008.012.014.028.014.015 0 .027.006.027.014s.02.014.042.014c.023 0 .041.006.041.014 0 .007.013.013.028.013.015 0 .028.007.028.014 0 .008.018.014.041.014.023 0 .042.006.042.014s.012.014.027.014c.016 0 .028.006.028.014 0 .007.019.013.042.013.022 0 .041.007.041.014 0 .008.013.014.028.014.015 0 .027.006.027.014s.013.014.028.014c.015 0 .028.006.028.014 0 .007.018.013.041.013.023 0 .042.007.042.014 0 .008.018.014.041.014.028 0 .042.007.042.022 0 .011.015.036.034.055.018.019.043.034.055.034.012 0 .021.006.021.014 0 .007.019.013.042.013h.041v.091c0 .094-.017.13-.061.13-.012 0-.022.007-.022.015 0 .007-.018.013-.041.013-.023 0-.042.007-.042.014 0 .008-.018.014-.041.014-.023 0-.042.006-.042.014s-.025.014-.055.014-.055.006-.055.014c0 .007-.025.013-.056.013-.03 0-.055.007-.055.014 0 .008-.037.014-.083.014-.046 0-.083.006-.083.014s-.05.014-.124.014-.125-.006-.125-.014-.012-.014-.028-.014c-.015 0-.027-.006-.027-.014 0-.007-.013-.014-.028-.014-.015 0-.028-.006-.028-.013 0-.008-.012-.014-.027-.014-.016 0-.028-.007-.028-.014 0-.008-.012-.014-.028-.014-.015 0-.027-.006-.027-.014 0-.007-.013-.014-.028-.014-.015 0-.028-.006-.028-.013 0-.008-.01-.014-.024-.014s-.034-.013-.045-.028c-.01-.015-.03-.028-.044-.028-.014 0-.025-.006-.025-.013 0-.008-.012-.014-.028-.014-.015 0-.027-.007-.027-.014 0-.008-.013-.014-.028-.014-.015 0-.027-.006-.027-.014 0-.007-.013-.014-.028-.014-.015 0-.028-.006-.028-.013 0-.008-.012-.014-.028-.014-.015 0-.027-.007-.027-.014 0-.008-.013-.014-.028-.014-.015 0-.027-.006-.027-.014 0-.007-.012-.014-.025-.014-.014 0-.034-.012-.045-.027-.016-.023-.035-.028-.113-.028-.054 0-.094.006-.094.014s-.01.014-.021.014c-.012 0-.037.015-.056.034-.018.018-.034.043-.034.055 0 .012-.006.021-.014.021-.007 0-.014.032-.014.07 0 .038.007.069.014.069.008 0 .014.01.014.021 0 .027.09.117.117.117.012 0 .021.006.021.014s.013.014.028.014c.015 0 .028.006.028.014 0 .007.01.013.024.013s.034.013.045.028c.01.015.031.028.045.028.013 0 .024.006.024.014 0 .007.013.013.028.013.015 0 .027.007.027.014 0 .008.013.014.028.014.015 0 .028.006.028.014s.012.014.027.014c.016 0 .028.006.028.014 0 .007.013.013.028.013.015 0 .027.007.027.014 0 .008.013.014.028.014.015 0 .028.006.028.014s.01.014.024.014.034.012.045.027c.01.016.031.028.044.028.014 0 .025.006.025.014s.013.014.028.014c.015 0 .027.006.027.014 0 .007.013.013.028.013.015 0 .028.007.028.014 0 .008.012.014.027.014.016 0 .028.006.028.014s.012.014.028.014c.015 0 .027.006.027.014 0 .007.02.013.042.013.04 0 .041.003.041.056 0 .03-.006.055-.013.055-.008 0-.014.01-.014.021a.52.52 0 0 1-.173.173c-.011 0-.02.006-.02.013 0 .008-.013.014-.029.014-.015 0-.027.007-.027.014 0 .008-.042.014-.097.014s-.097-.006-.097-.014c0-.007-.019-.014-.041-.014-.023 0-.042-.006-.042-.014 0-.007-.012-.013-.028-.013-.015 0-.027-.007-.027-.014 0-.008-.013-.014-.028-.014-.015 0-.027-.006-.027-.014 0-.007-.013-.014-.028-.014-.015 0-.028-.006-.028-.014 0-.007-.01-.013-.024-.013s-.034-.013-.045-.028c-.011-.015-.031-.028-.045-.028-.013 0-.024-.006-.024-.013 0-.008-.013-.014-.028-.014-.015 0-.027-.007-.027-.014 0-.008-.013-.014-.028-.014-.015 0-.028-.006-.028-.014 0-.007-.01-.014-.024-.014s-.034-.012-.045-.027c-.011-.015-.031-.028-.045-.028-.013 0-.024-.006-.024-.014 0-.007-.013-.014-.028-.014-.015 0-.027-.006-.027-.013 0-.008-.013-.014-.028-.014-.015 0-.028-.006-.028-.014s-.01-.014-.024-.014-.034-.012-.045-.028c-.01-.015-.031-.027-.045-.027-.013 0-.024-.006-.024-.014s-.013-.014-.028-.014c-.015 0-.027-.006-.027-.014 0-.007-.013-.014-.028-.014-.015 0-.028-.006-.028-.014 0-.007-.01-.013-.024-.013s-.034-.013-.045-.028c-.01-.015-.031-.028-.044-.028-.014 0-.025-.006-.025-.014 0-.007-.013-.013-.028-.013-.015 0-.027-.006-.027-.014s-.013-.014-.028-.014c-.015 0-.028-.006-.028-.014s-.04-.014-.09-.014c-.088 0-.092.002-.152.062s-.062.064-.062.152c0 .051.006.09.014.09.007 0 .014.01.014.022 0 .027.032.062.058.062.01 0 .027.012.038.027.011.016.031.028.045.028.014 0 .025.006.025.014 0 .007.012.014.027.014s.028.006.028.014c0 .007.011.013.025.013.013 0 .033.013.044.028.011.015.031.028.045.028.013 0 .024.006.024.013 0 .008.013.014.028.014.015 0 .028.007.028.014 0 .008.012.014.027.014s.028.006.028.014c0 .007.011.014.024.014.014 0 .034.012.045.027.011.015.031.028.045.028.013 0 .024.006.024.014 0 .007.013.014.028.014.015 0 .027.006.027.013 0 .008.012.014.025.014.014 0 .034.013.045.028.01.015.03.028.044.028.014 0 .025.006.025.014 0 .007.012.013.027.013.016 0 .028.006.028.014s.013.014.028.014c.015 0 .027.006.027.014 0 .007.013.014.028.014.015 0 .028.006.028.014 0 .007.01.013.024.013s.034.013.045.028c.011.015.031.028.045.028.013 0 .024.006.024.014 0 .007.013.013.028.013.015 0 .027.006.027.014s.013.014.028.014c.024 0 .028.01.028.07v.068h-.07c-.037 0-.069.007-.069.014 0 .008-.036.014-.082.014-.047 0-.084.006-.084.014s-.078.014-.207.014c-.13 0-.207-.006-.207-.014s-.04-.014-.094-.014c-.078 0-.097-.005-.114-.028-.01-.015-.028-.027-.038-.027-.01 0-.086-.069-.17-.152a1.003 1.003 0 0 0-.172-.153c-.012 0-.021-.006-.021-.014 0-.007-.031-.013-.07-.013-.037 0-.068.006-.068.014 0 .007-.01.013-.022.013-.027 0-.089.062-.089.09 0 .011-.006.021-.014.021s-.014.037-.014.083c0 .046.006.083.014.083s.014.01.014.022c0 .012.025.046.055.075.049.047.056.06.056.116 0 .035-.007.064-.014.064-.008 0-.014.018-.014.041 0 .023-.006.042-.014.042-.007 0-.014.01-.014.02 0 .028-.09.118-.117.118-.011 0-.021.006-.021.014 0 .007-.025.014-.055.014s-.056-.007-.056-.014c0-.008.007-.014.014-.014.008 0 .014-.019.014-.042 0-.022.006-.041.014-.041.007 0 .014-.025.014-.055s.006-.056.013-.056c.008 0 .014-.03.014-.069 0-.038.007-.07.014-.07.009 0 .014-.091.014-.248s-.005-.249-.014-.249c-.007 0-.014-.025-.014-.055s-.006-.056-.014-.056c-.007 0-.013-.01-.013-.024s-.013-.034-.028-.045c-.015-.01-.028-.028-.028-.039 0-.022-.033-.058-.055-.058-.025 0-.092-.073-.072-.08.01-.002.017-.023.017-.045s.006-.04.013-.04c.009 0 .014-.065.014-.167 0-.101-.005-.166-.014-.166-.007 0-.013-.01-.013-.024s-.013-.034-.028-.045c-.015-.01-.028-.028-.028-.038a.618.618 0 0 0-.167-.17c-.008 0-.033-.018-.054-.04-.021-.024-.049-.042-.06-.042-.013 0-.023-.007-.023-.014 0-.008-.019-.014-.041-.014-.023 0-.042-.006-.042-.014s-.092-.014-.249-.014-.249.006-.249.014-.025.014-.055.014-.056.006-.056.014c0 .007-.016.014-.035.014-.024 0-.057-.022-.103-.07-.037-.037-.077-.069-.089-.069-.012 0-.022-.006-.022-.013 0-.008-.012-.014-.027-.014s-.028-.006-.028-.014-.012-.014-.028-.014c-.015 0-.027-.006-.027-.014 0-.007-.013-.014-.028-.014-.015 0-.028-.006-.028-.013 0-.008-.012-.014-.027-.014s-.028-.006-.028-.014-.025-.014-.055-.014-.056-.006-.056-.014-.082-.014-.22-.014c-.14 0-.222.006-.222.014s-.025.014-.055.014-.056.006-.056.014-.016.014-.035.014c-.039 0-.13-.082-.13-.117a.022.022 0 0 0-.023-.022c-.012 0-.04-.018-.06-.041-.022-.023-.05-.042-.062-.042-.012 0-.022-.006-.022-.013 0-.008-.012-.014-.027-.014-.016 0-.028-.006-.028-.014s-.019-.014-.042-.014c-.022 0-.041-.006-.041-.014s-.07-.014-.18-.014c-.11 0-.18.006-.18.014s-.025.014-.055.014-.055.006-.055.014-.019.014-.042.014c-.023 0-.041.006-.041.014 0 .007-.013.013-.028.013-.015 0-.028.007-.028.014 0 .008-.012.014-.027.014-.016 0-.028.006-.028.014s-.012.014-.028.014c-.015 0-.027.006-.027.014 0 .024-.049.014-.07-.014-.01-.015-.03-.028-.044-.028-.014 0-.025-.01-.025-.022 0-.012-.018-.04-.041-.06-.031-.03-.042-.052-.042-.09 0-.027-.006-.05-.013-.05-.008 0-.014-.012-.014-.027s-.007-.028-.014-.028c-.008 0-.014-.018-.014-.041 0-.023-.006-.041-.014-.041-.007 0-.014-.013-.014-.028 0-.015-.006-.028-.013-.028-.008 0-.014-.012-.014-.027 0-.016-.007-.028-.014-.028-.008 0-.014-.013-.014-.028 0-.015-.006-.027-.014-.027-.007 0-.014-.012-.014-.025 0-.014-.012-.034-.027-.045-.016-.01-.028-.028-.028-.039 0-.01-.019-.036-.041-.057-.023-.022-.042-.046-.042-.055 0-.02-.202-.222-.222-.222-.009 0-.033-.019-.055-.042-.02-.022-.047-.041-.057-.041-.01 0-.028-.013-.04-.028-.01-.015-.03-.027-.044-.027-.015 0-.025-.01-.025-.028 0-.015.007-.028.014-.028.008 0 .014-.01.014-.024s.013-.034.028-.045c.015-.01.027-.03.027-.044 0-.014.007-.025.014-.025.008 0 .014-.013.014-.028 0-.015.006-.027.014-.027s.014-.011.014-.025c0-.014.012-.034.027-.045.016-.01.028-.03.028-.044 0-.014.006-.025.014-.025s.014-.012.014-.027c0-.016.006-.028.014-.028.007 0 .013-.011.013-.025 0-.013.013-.033.028-.044.015-.011.028-.031.028-.045 0-.013.006-.024.014-.024.007 0 .013-.013.013-.028 0-.015.007-.028.014-.028.008 0 .014-.01.014-.024s.013-.034.028-.045c.015-.01.027-.03.027-.044 0-.014.007-.025.014-.025.008 0 .014-.012.014-.028 0-.015.006-.027.014-.027.007 0 .014-.011.014-.025 0-.013.012-.034.027-.045.016-.01.028-.03.028-.044 0-.014.006-.025.014-.025.007 0 .014-.01.014-.024s.012-.034.027-.045c.016-.01.028-.03.028-.044 0-.014.006-.025.014-.025.007 0 .014-.012.014-.028 0-.015.006-.027.014-.027.007 0 .013-.011.013-.025 0-.013.013-.033.028-.044.015-.011.028-.031.028-.045 0-.014.006-.025.014-.025.007 0 .013-.012.013-.027 0-.016.007-.028.014-.028.008 0 .014-.011.014-.025 0-.013.012-.033.028-.044.015-.011.027-.031.027-.045 0-.013.007-.024.014-.024.008 0 .014-.013.014-.028 0-.015.006-.028.014-.028.007 0 .014-.01.014-.024s.012-.034.027-.045c.016-.01.028-.03.028-.044 0-.014.006-.025.014-.025.007 0 .014-.012.014-.028 0-.015.006-.027.014-.027.007 0 .013-.011.013-.025 0-.013.013-.033.028-.044.015-.011.028-.031.028-.045 0-.013.006-.025.013-.025.008 0 .014-.012.014-.027s.007-.028.014-.028c.008 0 .014-.011.014-.025 0-.013.012-.033.028-.044.015-.011.027-.031.027-.045 0-.013.007-.024.014-.024.008 0 .014-.011.014-.025 0-.013.012-.033.028-.044.015-.011.027-.031.027-.045 0-.013.007-.025.014-.025.008 0 .014-.012.014-.027s.006-.028.014-.028c.007 0 .014-.012.014-.028 0-.021.009-.027.041-.027.023 0 .042.006.042.014 0 .007.037.013.083.013.046 0 .083.007.083.014 0 .01.106.014.29.014s.29-.005.29-.014c0-.007.032-.014.07-.014.038 0 .069-.006.069-.013 0-.008.025-.014.055-.014s.056-.006.056-.014.018-.014.041-.014c.023 0 .042-.006.042-.014 0-.007.012-.014.027-.014s.028-.006.028-.013c0-.008.019-.014.041-.014.023 0 .042-.006.042-.014s.019-.014.041-.014c.023 0 .042-.006.042-.014 0-.007.012-.014.027-.014.016 0 .028-.006.028-.013 0-.008.013-.014.028-.014.015 0 .027-.006.027-.014s.013-.014.028-.014c.015 0 .028-.006.028-.014 0-.007.012-.014.027-.014.016 0 .028-.006.028-.013 0-.008.013-.014.028-.014.015 0 .027-.006.027-.014s.013-.014.028-.014c.015 0 .028-.006.028-.014 0-.007.018-.013.041-.013.023 0 .042-.007.042-.014 0-.008.012-.014.027-.014.016 0 .028-.006.028-.014s.019-.014.042-.014c.022 0 .041-.006.041-.014 0-.007.019-.013.042-.013.022 0 .041-.007.041-.014 0-.008.019-.014.042-.014.022 0 .041-.006.041-.014s.025-.014.055-.014.056-.006.056-.014.078-.013.207-.013c.13 0 .208.005.208.013zm4.053.097c-.011.015-.029.028-.04.028-.024 0-.057.034-.057.061 0 .012-.007.022-.014.022-.008 0-.014.018-.014.041 0 .023-.006.042-.014.042-.007 0-.014.018-.014.041 0 .023.007.042.014.042.008 0 .014.018.014.041 0 .023.006.042.014.042.007 0 .014.01.014.021 0 .028.061.09.089.09.012 0 .021.006.021.013 0 .008.046.014.111.014s.11-.006.11-.014c0-.007.01-.014.022-.014.027 0 .117-.09.117-.117 0-.011.006-.02.014-.02s.014-.042.014-.098c0-.055-.006-.097-.014-.097s-.014-.012-.014-.027-.006-.028-.014-.028-.014-.01-.014-.022c0-.028-.033-.06-.061-.06-.012 0-.022-.007-.022-.015s-.05-.013-.121-.013c-.106 0-.124.003-.142.027zm-2.393.07c0 .007.03.013.069.013.038 0 .069.006.069.014s.019.014.041.014c.023 0 .042.006.042.014 0 .007.018.013.041.013.023 0 .042.007.042.014 0 .008.012.014.027.014.016 0 .028.006.028.014s.013.014.028.014c.015 0 .027.006.027.014 0 .007.013.013.028.013.015 0 .028.007.028.014 0 .008.012.014.027.014.016 0 .028.006.028.014s.013.014.028.014c.015 0 .027.006.027.014 0 .007.012.013.025.013.014 0 .034.013.045.028.01.015.03.028.041.028.012 0 .03.012.042.027.01.016.03.028.044.028.014 0 .025.006.025.014s.012.014.027.014c.016 0 .028.006.028.014 0 .007.013.013.028.013.015 0 .027.007.027.014 0 .008.013.014.028.014.015 0 .028.006.028.014s.012.014.027.014c.016 0 .028.006.028.014 0 .007.019.013.042.013.022 0 .041.007.041.014 0 .008.013.014.028.014.015 0 .027.006.027.014s.025.014.056.014c.03 0 .055.006.055.014 0 .007.025.013.055.013s.056.007.056.014c0 .008.04.014.095.014.063 0 .099.006.104.017.007.014.01.014.016 0 .02-.04.117-.006.117.041 0 .01.012.028.027.039.016.01.028.03.028.044 0 .014.006.025.014.025s.014.013.014.028c0 .015.006.027.014.027.007 0 .013.011.013.025 0 .014.013.034.028.045.015.01.028.03.028.044 0 .014.006.025.014.025.007 0 .013.01.013.024s.013.034.028.045c.015.01.028.03.028.044 0 .014.006.025.014.025.007 0 .013.013.013.028 0 .015.007.027.014.027.008 0 .014.011.014.025 0 .014.013.034.028.045.015.01.027.03.027.044 0 .014.007.025.014.025.008 0 .014.012.014.027 0 .016.006.028.014.028.007 0 .014.011.014.025 0 .013.012.033.027.044.015.011.028.031.028.045 0 .013.006.024.014.024.007 0 .014.013.014.028 0 .015.006.028.013.028.008 0 .014.01.014.024s.013.034.028.045c.015.01.028.03.028.044 0 .014.006.025.013.025.008 0 .014.011.014.025 0 .013.013.033.028.044.015.011.028.031.028.045 0 .013.006.024.014.024.007 0 .013.013.013.028 0 .015.006.028.014.028s.014.01.014.024.012.034.028.045c.015.01.027.03.027.044 0 .014.006.025.014.025s.014.012.014.028c0 .015.006.027.014.027.007 0 .014.011.014.025 0 .013.012.033.027.044.015.011.028.031.028.045 0 .014.006.025.014.025.007 0 .014.012.014.027s.006.028.013.028c.008 0 .014.011.014.025 0 .013.013.033.028.044.015.011.028.031.028.045 0 .013.006.024.013.024.008 0 .014.011.014.025 0 .013.013.033.028.044.015.011.028.031.028.045 0 .014.006.025.013.025.008 0 .014.012.014.027s.007.028.014.028c.008 0 .014.011.014.025 0 .013.012.033.028.044.015.011.027.031.027.045 0 .013.007.024.014.024.008 0 .014.013.014.028 0 .021-.01.028-.042.028-.022 0-.041.006-.041.013 0 .008-.012.014-.028.014-.015 0-.027.006-.027.014s-.01.014-.023.014c-.012 0-.04.019-.06.041-.022.023-.046.042-.054.042-.022 0-.306.286-.306.308 0 .01-.013.027-.028.038-.015.01-.027.03-.027.041 0 .012-.013.03-.028.042-.015.01-.028.028-.028.038 0 .033-.038.058-.089.058-.027 0-.049-.006-.049-.013 0-.008-.012-.014-.028-.014-.015 0-.027-.006-.027-.014s-.019-.014-.042-.014c-.023 0-.041-.006-.041-.014 0-.007-.013-.014-.028-.014-.015 0-.028-.006-.028-.013 0-.008-.018-.014-.041-.014-.023 0-.042-.006-.042-.014s-.012-.014-.027-.014-.028-.006-.028-.014c0-.007-.019-.013-.041-.013-.023 0-.042-.007-.042-.014 0-.008-.012-.014-.028-.014-.015 0-.027-.006-.027-.014s-.013-.014-.028-.014c-.015 0-.028-.006-.028-.014 0-.007-.012-.013-.027-.013s-.028-.007-.028-.014c0-.008-.012-.014-.028-.014-.015 0-.027-.006-.027-.014s-.019-.014-.042-.014c-.023 0-.041-.006-.041-.014 0-.007-.013-.013-.028-.013-.015 0-.028-.007-.028-.014 0-.008-.01-.014-.024-.014s-.034-.013-.045-.028c-.01-.015-.03-.027-.044-.027-.014 0-.025-.007-.025-.014 0-.008-.012-.014-.028-.014-.015 0-.027-.006-.027-.014s-.013-.014-.028-.014c-.015 0-.028-.006-.028-.014 0-.007-.012-.013-.027-.013s-.028-.007-.028-.014c0-.008-.012-.014-.028-.014-.015 0-.027-.006-.027-.014s-.011-.014-.025-.014c-.013 0-.033-.012-.044-.027-.011-.016-.031-.028-.045-.028-.014 0-.025-.006-.025-.014s-.012-.014-.027-.014c-.019 0-.028-.009-.028-.027 0-.023.01-.028.055-.028.03 0 .056-.006.056-.014s.019-.014.041-.014c.023 0 .042-.006.042-.014 0-.007.018-.013.041-.013.023 0 .042-.007.042-.014 0-.008.012-.014.027-.014.016 0 .028-.006.028-.014s.019-.014.042-.014c.022 0 .041-.006.041-.014 0-.007.011-.013.025-.013.013 0 .033-.013.044-.028.011-.015.031-.028.045-.028.013 0 .024-.006.024-.014 0-.007.013-.013.028-.013.015 0 .028-.007.028-.014 0-.008.01-.014.02-.014.012 0 .05-.028.084-.062.06-.06.062-.064.062-.152 0-.051-.006-.09-.014-.09s-.014-.01-.014-.022c0-.028-.033-.061-.061-.061-.012 0-.022-.007-.022-.014 0-.008-.012-.014-.028-.014-.015 0-.027-.006-.027-.014 0-.007-.019-.014-.042-.014-.023 0-.041.007-.041.014 0 .008-.016.014-.036.014-.022 0-.051.016-.075.041-.021.023-.049.042-.06.042-.013 0-.023.006-.023.014 0 .007-.011.014-.024.014-.014 0-.034.012-.045.027a.075.075 0 0 1-.058.028c-.022 0-.039.006-.039.014 0 .007-.012.014-.027.014-.016 0-.028.006-.028.013 0 .008-.019.014-.042.014-.022 0-.041.007-.041.014 0 .008-.025.014-.055.014-.031 0-.056.006-.056.014s-.088.014-.235.014-.235-.006-.235-.014-.022-.014-.049-.014c-.045 0-.075-.026-.421-.374a5.271 5.271 0 0 0-.394-.373c-.012 0-.021-.006-.021-.014 0-.007-.013-.014-.028-.014-.015 0-.028-.006-.028-.013 0-.008-.012-.014-.027-.014-.016 0-.028-.007-.028-.014 0-.008-.012-.014-.028-.014-.015 0-.027-.006-.027-.014 0-.007-.025-.014-.056-.014-.03 0-.055-.006-.055-.013 0-.01-.088-.014-.235-.014-.148 0-.235.005-.235.014 0 .007-.025.013-.056.013-.03 0-.055.007-.055.014 0 .008-.031.014-.07.014-.037 0-.068.006-.068.014 0 .007-.019.014-.042.014-.023 0-.041.006-.041.014 0 .007-.025.013-.056.013-.03 0-.055.007-.055.014 0 .008-.025.014-.055.014s-.056.006-.056.014-.046.014-.11.014c-.065 0-.11.005-.11.013s-.042.014-.098.014c-.055 0-.097-.006-.097-.014 0-.007-.03-.013-.069-.013-.038 0-.069-.007-.069-.014 0-.008-.012-.014-.028-.014-.015 0-.027-.006-.027-.014 0-.007-.013-.014-.028-.014-.015 0-.028-.006-.028-.013 0-.008-.009-.014-.02-.014a.741.741 0 0 1-.2-.198c0-.01-.013-.026-.029-.037-.015-.011-.027-.031-.027-.045 0-.014-.006-.025-.014-.025s-.014-.025-.014-.055-.006-.055-.014-.055-.013-.046-.013-.11V7.1h.041c.023 0 .041-.006.041-.013 0-.008.032-.014.07-.014.038 0 .069-.006.069-.014s.025-.014.055-.014.055-.006.055-.014c0-.007.032-.014.07-.014.038 0 .069-.006.069-.013 0-.008.025-.014.055-.014s.055-.006.055-.014.02-.014.042-.014c.023 0 .041-.006.041-.014 0-.007.025-.014.056-.014.03 0 .055-.006.055-.013 0-.008.019-.014.042-.014.022 0 .041-.006.041-.014s.025-.014.055-.014.056-.006.056-.014c0-.007.018-.014.041-.014.023 0 .042-.006.042-.013 0-.008.018-.014.041-.014.023 0 .042-.006.042-.014s.012-.014.027-.014c.016 0 .028-.006.028-.014 0-.007.019-.014.042-.014.022 0 .041-.006.041-.013 0-.008.019-.014.042-.014.022 0 .041-.006.041-.014s.012-.014.028-.014c.015 0 .027-.006.027-.014 0-.007.019-.014.042-.014.023 0 .041-.006.041-.013 0-.008.013-.014.028-.014.015 0 .028-.006.028-.014s.018-.014.041-.014c.023 0 .042-.006.042-.014 0-.007.012-.014.027-.014.016 0 .028-.006.028-.013 0-.008.012-.014.028-.014.015 0 .027-.006.027-.014s.013-.014.028-.014c.015 0 .028-.006.028-.014 0-.007.012-.014.027-.014.016 0 .028-.006.028-.013 0-.008.019-.014.041-.014.023 0 .042-.006.042-.014s.012-.014.028-.014c.015 0 .027-.006.027-.014 0-.007.013-.014.028-.014.015 0 .028-.006.028-.013 0-.008.018-.014.041-.014.023 0 .042-.006.042-.014s.012-.014.027-.014.028-.006.028-.014c0-.007.012-.014.028-.014.015 0 .027-.006.027-.013 0-.008.013-.014.028-.014.015 0 .028-.006.028-.014s.018-.014.041-.014c.023 0 .042-.006.042-.014 0-.007.018-.014.041-.014.023 0 .042-.006.042-.013 0-.008.024-.014.055-.014.03 0 .055-.006.055-.014s.042-.014.097-.014.097-.006.097-.014.041-.013.097-.013c.055 0 .097.005.097.013zM6.26 10.24c0 .008.01.014.022.014.033 0 .089.064.089.103 0 .02-.006.035-.014.035s-.014.013-.014.028c0 .015-.006.028-.014.028-.007 0-.013.012-.013.027 0 .016-.007.028-.014.028-.008 0-.014.011-.014.025 0 .013-.013.033-.028.044-.015.011-.027.03-.027.042 0 .012-.013.03-.028.041-.015.011-.028.029-.028.039 0 .025-.034.058-.061.058-.012 0-.022.006-.022.014s-.012.014-.027.014c-.016 0-.028.006-.028.014 0 .007-.031.013-.07.013-.037 0-.068-.006-.068-.014 0-.007-.025-.013-.056-.013-.03 0-.055-.006-.055-.014s-.025-.014-.055-.014H5.68v-.083c0-.046.006-.083.014-.083s.014-.012.014-.028c0-.015.006-.027.014-.027.007 0 .014-.011.014-.025 0-.013.012-.034.027-.044.016-.011.028-.029.028-.039 0-.024.034-.058.058-.058.01 0 .028-.013.039-.028.01-.015.03-.028.044-.028.014 0 .025-.006.025-.013 0-.008.019-.014.041-.014.023 0 .042-.007.042-.014 0-.008.025-.014.055-.014s.056-.006.056-.014c0-.007.025-.014.055-.014s.055.007.055.014zm.969.25c0 .007.03.013.069.013.038 0 .069.006.069.014s.012.014.027.014c.016 0 .028.006.028.014 0 .007.01.013.022.013.011 0 .036.016.055.034.034.035.045.077.02.077-.008 0-.014.011-.014.025 0 .013-.012.033-.028.044-.015.011-.027.028-.027.038 0 .01-.05.068-.11.128a.734.734 0 0 0-.111.125.581.581 0 0 1-.097.11.573.573 0 0 0-.097.111c0 .023-.036.055-.061.055-.012 0-.022.007-.022.014 0 .008-.016.014-.036.014-.022 0-.05.016-.075.041-.038.041-.042.042-.171.042-.08 0-.133-.006-.133-.014 0-.007-.016-.014-.035-.014-.053 0-.103-.057-.103-.117 0-.027-.007-.049-.014-.049-.008 0-.014-.022-.014-.049 0-.042.013-.062.097-.144a.507.507 0 0 0 .097-.114c0-.01.012-.027.027-.038s.028-.032.028-.045c0-.014.006-.025.014-.025.007 0 .014-.012.014-.027 0-.016.009-.028.021-.028.027 0 .062-.033.062-.058 0-.01.012-.028.027-.039.015-.01.028-.03.028-.044 0-.016.01-.025.028-.025.015 0 .027-.006.027-.014 0-.007.013-.014.028-.014.015 0 .028-.006.028-.013 0-.008.018-.014.041-.014.023 0 .042-.007.042-.014 0-.008.024-.014.055-.014.03 0 .055-.006.055-.014 0-.007.031-.014.07-.014.037 0 .069.007.069.014zm1.32.324c.05.05.063.071.063.11 0 .027-.007.05-.014.05-.008 0-.014.012-.014.027s-.006.028-.014.028c-.007 0-.014.012-.014.027 0 .016-.006.028-.013.028-.008 0-.014.013-.014.028 0 .015-.007.027-.014.027-.008 0-.014.011-.014.025 0 .014-.012.034-.028.045-.015.01-.027.027-.027.037a2.9 2.9 0 0 1-.36.364.331.331 0 0 0-.083.069.316.316 0 0 1-.083.069c-.01 0-.034.019-.055.041-.022.023-.049.042-.061.042-.012 0-.022.006-.022.014 0 .007-.025.014-.056.014-.03 0-.055.006-.055.013 0 .008-.01.014-.022.014-.028 0-.06.034-.06.062 0 .014-.014.021-.042.021-.023 0-.042-.006-.042-.014 0-.007-.012-.013-.028-.013-.015 0-.027-.007-.027-.014 0-.008-.013-.014-.028-.014-.015 0-.028-.006-.028-.014s-.012-.014-.027-.014-.028-.006-.028-.014c0-.007-.01-.013-.024-.013s-.034-.013-.045-.028c-.011-.015-.028-.028-.039-.028-.022 0-.058-.033-.058-.055 0-.02.063-.083.083-.083.02 0 .083-.064.083-.084 0-.008.019-.033.042-.054.022-.022.041-.046.041-.055 0-.008.075-.09.166-.18.091-.091.166-.173.166-.181 0-.009.019-.033.042-.055.022-.021.041-.047.041-.057 0-.01.013-.029.028-.04.015-.01.027-.028.027-.038 0-.025.064-.086.09-.086.011 0 .021-.006.021-.014 0-.007.013-.014.028-.014.015 0 .027-.006.027-.014 0-.007.025-.013.056-.013.03 0 .055-.006.055-.014s.062-.014.16-.014h.159l.062.062zm.256.962c0 .138-.005.22-.013.22s-.014.029-.014.063c0 .06-.005.067-.132.194a1.006 1.006 0 0 1-.146.131.226.226 0 0 0-.068.056c-.047.048-.06.055-.117.055-.034 0-.063-.006-.063-.014s-.01-.014-.021-.014a.52.52 0 0 1-.173-.172c0-.012-.006-.021-.013-.021-.008 0-.014-.01-.014-.022 0-.026.032-.061.055-.061.009 0 .04-.025.07-.056.028-.03.06-.055.068-.055a.89.89 0 0 0 .139-.125.936.936 0 0 1 .138-.124c.019 0 .194-.175.194-.194 0-.024.06-.08.086-.082.022 0 .024.019.024.22z" clip-rule="evenodd"/>
</svg>
