<svg xmlns="http://www.w3.org/2000/svg" width="24" height="24" fill="none" viewBox="0 0 24 24">
    <path fill="#0091FF" fill-rule="evenodd" d="M19 18.75c0 .618-.543 1.132-1.091 1.132H5.987c-.548 0-.993-.5-.993-1.119V5.343c0-.618.457-1.218 1.006-1.218h12c.55 0 1 .508 1 1.125v13.5zM18 3H6C4.903 3 4 4.108 4 5.343v13.42C4 19.998 4.89 21 5.987 21h11.922C19.006 21 20 19.985 20 18.75V5.25C20 4.014 19.097 3 18 3zM8 8.445c-.276 0-.5.252-.5.562 0 .311.224.563.5.563h8c.276 0 .5-.252.5-.563 0-.31-.224-.562-.5-.562H8zm0 4.86c-.276 0-.5.252-.5.562 0 .311.224.563.5.563h5.48c.276 0 .5-.252.5-.563 0-.31-.224-.562-.5-.562H8z" clip-rule="evenodd"/>
</svg>
