<svg xmlns="http://www.w3.org/2000/svg" width="20" height="20" fill="none" viewBox="0 0 20 20">
    <g fill-rule="evenodd" clip-rule="evenodd" filter="url(#a)">
        <path fill="#FFE25F" d="M11.713 7.174l3.037.422a.832.832 0 0 1 .47 1.417l-2.183 2.154a.832.832 0 0 0-.235.738l.537 3.02a.832.832 0 0 1-1.202.884l-2.723-1.41a.832.832 0 0 0-.775.004l-2.705 1.444a.832.832 0 0 1-1.213-.87l.5-3.026a.832.832 0 0 0-.244-.735L2.767 9.09a.832.832 0 0 1 .454-1.422l3.031-.46a.832.832 0 0 0 .624-.459l1.34-2.758a.832.832 0 0 1 1.493-.009l1.374 2.741a.833.833 0 0 0 .63.452z"/>
        <path fill="#FDEA97" d="M5.448 8.701c0-.474.047-.935.116-1.39l-2.344.356a.832.832 0 0 0-.452 1.422l2.209 2.127c.197.19.288.465.244.736l-.5 3.025a.832.832 0 0 0 1.213.87l1.89-1.008A9.11 9.11 0 0 1 5.448 8.7z"/>
        <path fill="#FFBD54" d="M15.22 9.013a.832.832 0 0 0-.47-1.417l-3.037-.422a.832.832 0 0 1-.63-.452L9.71 3.981a.832.832 0 0 0-1.492.009l-.572 1.176a7.25 7.25 0 0 1 3.235 6.04 7.225 7.225 0 0 1-.894 3.49l2.15 1.113a.832.832 0 0 0 1.203-.885l-.537-3.019a.833.833 0 0 1 .235-.738l2.183-2.154z"/>
        <path fill="#E09A29" stroke="#E09A29" stroke-width=".5" d="M15.389 9.184c.292-.289.394-.71.264-1.1a1.066 1.066 0 0 0-.87-.725.24.24 0 0 0-.066.475.58.58 0 0 1 .48.4.58.58 0 0 1-.146.608l-2.183 2.154a1.072 1.072 0 0 0-.302.951l.537 3.02a.581.581 0 0 1-.232.58.58.58 0 0 1-.624.049l-2.722-1.41a1.072 1.072 0 0 0-.999.006l-2.705 1.443a.581.581 0 0 1-.624-.04.581.581 0 0 1-.24-.579l.5-3.025a1.072 1.072 0 0 0-.313-.947l-2.21-2.127a.58.58 0 0 1-.153-.606.581.581 0 0 1 .476-.406l3.031-.46c.35-.053.65-.274.804-.592l1.34-2.758a.58.58 0 0 1 .53-.333h.004a.58.58 0 0 1 .529.327l1.373 2.741c.159.316.462.533.812.582l3.149.438a.24.24 0 0 0 .066-.476l-3.15-.438a.592.592 0 0 1-.447-.321L9.924 3.874a1.066 1.066 0 0 0-.959-.592H8.96A1.066 1.066 0 0 0 8 3.885L6.66 6.643a.592.592 0 0 1-.444.327l-3.031.46a1.066 1.066 0 0 0-.862.735c-.125.392-.018.812.278 1.098l2.21 2.127c.14.135.204.33.173.523l-.5 3.025c-.067.406.099.807.433 1.046a1.069 1.069 0 0 0 1.13.075l2.705-1.443a.592.592 0 0 1 .551-.004l2.723 1.41c.366.19.798.156 1.13-.088.33-.244.492-.647.42-1.052l-.537-3.019a.592.592 0 0 1 .167-.525l2.183-2.154z"/>
        <path fill="#fff" d="M5.76 14.757a.24.24 0 0 1-.191-.281l.298-1.54a.24.24 0 0 1 .472.092l-.298 1.539a.24.24 0 0 1-.282.19zM6.224 12.356a.24.24 0 0 1-.19-.281l.03-.16a.24.24 0 0 1 .473.091l-.031.16a.24.24 0 0 1-.282.19z"/>
    </g>
    <defs>
        <filter id="a" width="20" height="19.468" x="0" y="0" color-interpolation-filters="sRGB" filterUnits="userSpaceOnUse">
            <feFlood flood-opacity="0" result="BackgroundImageFix"/>
            <feColorMatrix in="SourceAlpha" values="0 0 0 0 0 0 0 0 0 0 0 0 0 0 0 0 0 0 127 0"/>
            <feOffset dx="1"/>
            <feGaussianBlur stdDeviation="1.5"/>
            <feColorMatrix values="0 0 0 0 1 0 0 0 0 0.658824 0 0 0 0 0.117647 0 0 0 0.373953 0"/>
            <feBlend in2="BackgroundImageFix" result="effect1_dropShadow"/>
            <feBlend in="SourceGraphic" in2="effect1_dropShadow" result="shape"/>
        </filter>
    </defs>
</svg>
