<svg width="201" height="180" viewBox="0 0 201 180" fill="none" xmlns="http://www.w3.org/2000/svg">
<g opacity="0.9">
<path fill-rule="evenodd" clip-rule="evenodd" d="M111.003 171.096C119.747 172.325 128.258 173.956 135.363 174.519C149.65 175.653 154.451 174.02 154.707 172.196C155.091 169.465 138.72 164.907 112.393 161.207C86.066 157.507 67.2208 155.208 66.837 157.939C66.6405 159.337 65.473 165.641 74.3405 167.805C82.7924 169.867 98.1555 169.29 111.003 171.096Z" fill="#EEEFF1"/>
<path opacity="0.9" fill-rule="evenodd" clip-rule="evenodd" d="M188.538 65.7485C188.588 50.5367 181.716 35.326 168.487 27.8163C159.646 22.7973 150.875 17.9451 148.071 16.8113C129.108 9.14287 100.971 28.5156 79.4616 25.1496C56.9545 21.6276 42.5226 29.9511 33.607 39.532C23.1127 50.8093 11.9077 67.8759 7.09807 82.5106C5.53601 87.2636 3.9886 93.0982 2.54713 100.261C-0.992752 117.85 0.259232 130.463 2.6219 138.935C5.34286 148.691 15.2786 153 25.4074 153H149.582C158.957 153 168.071 149.403 173.72 141.921C182.291 130.569 193.163 111.99 190.463 93.3583C188.981 83.1323 188.513 73.7143 188.538 65.7485Z" fill="#F6F5FB"/>
<path fill-rule="evenodd" clip-rule="evenodd" d="M166.318 62.3297C162.764 66.7145 154.372 79.5191 153.861 80.2776C153.349 81.036 153 80.7233 153 82.0783C153 83.4333 153.844 82.9075 153.861 84.0403C153.943 89.4766 153.861 136.445 153.861 136.445C153.861 136.445 157.465 149.697 160.366 151.558C162.708 153.061 172.691 153.697 176.701 151.558C180.175 149.705 183.393 136.445 183.393 136.445C183.393 136.445 183.909 100.024 183.393 83.0416C183.374 82.447 184 82.0783 184 81.383C184 80.0621 182.682 79.849 182.682 79.849L171.841 62.3297H166.318Z" fill="#EEEDF7"/>
<path fill-rule="evenodd" clip-rule="evenodd" d="M168.366 62.3297C168.366 69.9887 172.281 79.2674 171.766 80.0339C171.252 80.8004 174.914 83.2428 174.914 84.6121C174.914 85.9814 174.897 104.577 174.914 105.722C174.996 111.215 175.597 139.949 175.597 139.949C175.597 139.949 169.295 152.247 166.208 153.292C163.908 154.071 172.621 154.662 176.656 152.5C180.151 150.627 183.389 137.227 183.389 137.227C183.389 137.227 183.908 100.422 183.389 83.2602C183.371 82.6594 184 82.2868 184 81.5841C184 80.2493 182.674 80.0339 182.674 80.0339L171.766 62.3297H168.366Z" fill="#E0DFED"/>
<path fill-rule="evenodd" clip-rule="evenodd" d="M156.369 85.5141C156.027 102.396 154.616 119.291 155.343 136.16C155.503 139.868 160.505 153.444 160.55 149.733L162.619 151.868C162.706 144.706 159.808 135.683 159.222 128.547C157.999 113.661 160.852 89.128 156.805 84.7143L156.369 85.5141Z" fill="white"/>
<path fill-rule="evenodd" clip-rule="evenodd" d="M162.621 57.2905C166.015 57.2975 169.489 56.6195 172.803 57.3114C173.55 57.4674 173.338 58.8142 173.015 59.4612C172.365 60.7637 172.036 62.1126 170.725 62.2476C168.931 62.4323 168.904 62.2476 165.98 62.2476C164.328 62.2476 163.451 60.6126 162.621 59.4612" fill="#FFE126"/>
<path fill-rule="evenodd" clip-rule="evenodd" d="M46.2116 75.9023C40.9116 73.8077 41.3881 69.5094 40.7394 64.9745C39.8657 58.8666 35.9293 52.4284 26.8847 57.7622C21.1589 61.1388 21.7981 69.8846 26.8847 75.9023C32.0278 81.987 42.7599 86.5061 47.2595 83.1696C48.548 82.2141 46.6577 79.4355 47.2595 77.3149L46.2116 75.9023Z" fill="#EFEFF5"/>
<path opacity="0.5" d="M26.1122 59.5765C30.7802 72.3274 30.7876 77.4471 43.4269 81.2585" stroke="white"/>
<path d="M30.9515 57.1609C39.8267 68.3364 36.0805 61.9854 41.655 76.5108" stroke="#E7E6F1"/>
<path d="M28.4678 59.1199C38.9306 78.1633 32.2509 73.1621 42.989 79.3751" stroke="#E7E6F1"/>
<path fill-rule="evenodd" clip-rule="evenodd" d="M66.4045 100.86C72.9503 98.2753 72.3618 92.9708 73.163 87.3744C74.2421 79.8366 79.1038 71.8913 90.2744 78.4737C97.3459 82.6407 96.5565 93.4339 90.2744 100.86C83.9223 108.369 70.6676 113.946 65.1104 109.829C63.519 108.649 65.8537 105.221 65.1104 102.603L66.4045 100.86Z" fill="#EFEFF5"/>
<path opacity="0.5" d="M84.9391 77.4839C76.5813 86.2992 77.2024 98.5279 65.8635 103.519" stroke="white"/>
<path d="M88.8013 78.3759C75.0778 101.038 83.5144 92.969 66.0493 104.932" stroke="#E7E6F1"/>
<path d="M90.3892 82.7557C89.7596 98.7412 80.441 104.684 64.9769 106.823" stroke="#E7E6F1"/>
<path fill-rule="evenodd" clip-rule="evenodd" d="M44.1317 128.032C44.1182 117.984 42.3205 106.467 42.1113 96.4138C41.8539 84.0456 43.2379 73.142 44.041 60.8024C44.5312 53.2688 66.4268 50.0567 68.5111 59.3372C72.4117 76.7057 68.5111 79.7534 68.5111 99.1134C68.5111 110.137 67.0501 118.118 66.4503 122.814C65.5394 129.945 60.6416 131.871 45.7178 130.596L44.1317 128.032Z" fill="#EDEEF9"/>
<path d="M59.8283 55.1479C68.041 75.4847 60.8823 125.94 60.8823 128.577" stroke="#E4E3EF"/>
<path d="M58.2362 54.9577C62.0325 78.2769 59.1049 59.6558 57.2556 128.517" stroke="#E4E3EF"/>
<path opacity="0.7" d="M53.3181 54.8062C49.5218 78.1255 52.4494 59.5043 54.2987 128.366" stroke="#FAFAFA"/>
<path opacity="0.7" d="M49.2658 54.8194C45.0631 78.0688 48.3152 59.5016 48.9625 128.385" stroke="#FAFAFA"/>
<path d="M101.564 87.5579C94.8969 91.675 94.571 90.1687 101.912 92.1679" stroke="#E4E3EF"/>
<path opacity="0.6" d="M77.0972 74.3832C82.3967 78.8882 80.4416 79.0649 82.039 71.187" stroke="white"/>
<path d="M64.2503 52.187C65.6642 59.1399 63.8697 57.6498 71.2188 52.8893" stroke="#E4E3EF"/>
<path opacity="0.5" d="M20.0972 69.187C25.5023 70.8792 25.4654 69.6767 21.0294 72.6742" stroke="white"/>
<path d="M34.8657 59.4047C34.7422 57.5472 34.6187 55.6896 34.4952 53.8321" stroke="#E4E3EF"/>
<path d="M35.3217 59.0306C36.5081 57.8462 37.6945 56.6617 38.8808 55.4773" stroke="#E4E3EF"/>
<path fill-rule="evenodd" clip-rule="evenodd" d="M37.8298 123.374C48.8562 123.402 59.9378 121.879 70.0221 124.205C81.293 126.804 85.5458 144.251 66.5432 152.019C58.9492 155.123 47.416 152.685 41.7823 152.019C36.4111 151.384 31.228 145.925 30.738 135.127C30.5777 131.592 29.8697 126.242 30.738 124.657C31.6064 123.073 37.8298 123.374 37.8298 123.374Z" fill="#ECEAF6"/>
<path fill-rule="evenodd" clip-rule="evenodd" d="M66.618 123.179C74.2122 123.2 69.4471 122.284 76.263 123.719C81.8606 124.898 81.8606 135.674 77.2006 145.74C75.0949 150.288 66.4295 154.274 62.5495 153.77C58.8501 153.289 62.8869 141.997 62.5495 133.818C62.439 131.141 60.4274 125.496 61.0254 124.296C61.6235 123.096 66.618 123.179 66.618 123.179Z" fill="#DCDBEB"/>
<path d="M27 153.457H72.0357" stroke="#76797E" stroke-width="2" stroke-linecap="round"/>
<path d="M112.041 153.457H180.539" stroke="#76797E" stroke-width="2" stroke-linecap="round"/>
<path d="M184.6 153.457H187.272" stroke="#76797E" stroke-width="2" stroke-linecap="round"/>
<path opacity="0.3" fill-rule="evenodd" clip-rule="evenodd" d="M104.927 10C106.43 10 105.755 7.90542 106.716 6.86478C107.618 5.8884 110 6.45488 110 5C110 3.57336 107.587 4.20291 106.716 3.23242C105.752 2.15838 106.457 0 104.927 0C103.469 0 104.186 2.24636 103.231 3.23242C102.278 4.21706 100 3.49833 100 5C100 6.5067 102.272 5.87937 103.231 6.86478C104.185 7.84503 103.474 10 104.927 10Z" fill="#DDDDDD"/>
<path fill-rule="evenodd" clip-rule="evenodd" d="M194.449 124.431C195.568 124.431 196.475 123.508 196.475 122.37C196.475 121.232 195.568 120.309 194.449 120.309C193.33 120.309 192.422 121.232 192.422 122.37C192.422 123.508 193.33 124.431 194.449 124.431Z" fill="#D9D9D9"/>
<path opacity="0.4" fill-rule="evenodd" clip-rule="evenodd" d="M199.274 76.4784C200.097 76.4784 200.764 75.7998 200.764 74.9628C200.764 74.1257 200.097 73.4471 199.274 73.4471C198.451 73.4471 197.783 74.1257 197.783 74.9628C197.783 75.7998 198.451 76.4784 199.274 76.4784Z" fill="#D9D9D9"/>
<path fill-rule="evenodd" clip-rule="evenodd" d="M72.7515 146.822C74.1668 146.822 75.3141 145.655 75.3141 144.216C75.3141 142.776 74.1668 141.61 72.7515 141.61C71.3362 141.61 70.1889 142.776 70.1889 144.216C70.1889 145.655 71.3362 146.822 72.7515 146.822Z" fill="#D9D9D9"/>
<path opacity="0.5" fill-rule="evenodd" clip-rule="evenodd" d="M173.004 147.861C174.123 147.861 175.031 146.939 175.031 145.801C175.031 144.662 174.123 143.74 173.004 143.74C171.885 143.74 170.978 144.662 170.978 145.801C170.978 146.939 171.885 147.861 173.004 147.861Z" fill="#D9D9D9"/>
<path fill-rule="evenodd" clip-rule="evenodd" d="M77.6944 42.5609C78.8788 42.5609 79.8389 41.6073 79.8389 40.4309C79.8389 39.2545 78.8788 38.3008 77.6944 38.3008C76.5101 38.3008 75.55 39.2545 75.55 40.4309C75.55 41.6073 76.5101 42.5609 77.6944 42.5609Z" fill="#D9D9D9"/>
<path opacity="0.3" fill-rule="evenodd" clip-rule="evenodd" d="M86.2722 78.7724C87.4566 78.7724 88.4167 77.8187 88.4167 76.6423C88.4167 75.4659 87.4566 74.5122 86.2722 74.5122C85.0879 74.5122 84.1278 75.4659 84.1278 76.6423C84.1278 77.8187 85.0879 78.7724 86.2722 78.7724Z" fill="#D9D9D9"/>
<path opacity="0.6" fill-rule="evenodd" clip-rule="evenodd" d="M36.95 53.2114C38.1343 53.2114 39.0944 52.2577 39.0944 51.0813C39.0944 49.9049 38.1343 48.9512 36.95 48.9512C35.7657 48.9512 34.8056 49.9049 34.8056 51.0813C34.8056 52.2577 35.7657 53.2114 36.95 53.2114Z" fill="#D9D9D9"/>
<path opacity="0.1" fill-rule="evenodd" clip-rule="evenodd" d="M89.4889 47.8862C90.0811 47.8862 90.5611 47.4093 90.5611 46.8211C90.5611 46.2329 90.0811 45.7561 89.4889 45.7561C88.8967 45.7561 88.4167 46.2329 88.4167 46.8211C88.4167 47.4093 88.8967 47.8862 89.4889 47.8862Z" fill="#D9D9D9"/>
<path fill-rule="evenodd" clip-rule="evenodd" d="M170.352 34.8333C171.463 35.7656 172.255 33.8092 173.606 33.6411C174.874 33.4833 176.286 35.3771 177.183 34.3088C178.062 33.2613 175.89 32.2266 175.844 30.9739C175.794 29.5875 177.644 28.4398 176.513 27.4905C175.435 26.5862 174.582 28.6806 173.268 28.8124C171.957 28.944 170.716 27.0033 169.79 28.1059C168.862 29.2123 170.928 30.1611 171.03 31.4796C171.131 32.7911 169.278 33.9321 170.352 34.8333Z" fill="#D9D9D9"/>
<path opacity="0.3" fill-rule="evenodd" clip-rule="evenodd" d="M48.7043 76.0401C49.8209 76.6848 50.2121 74.8499 51.3692 74.4941C52.4549 74.1603 53.9834 75.6001 54.6032 74.5266C55.2109 73.4739 53.15 72.9034 52.9166 71.8138C52.6584 70.608 54.1014 69.3177 52.9645 68.6613C51.8816 68.036 51.4574 70.0012 50.3281 70.3193C49.2004 70.637 47.8143 69.1296 47.1746 70.2377C46.5327 71.3495 48.488 71.8611 48.7806 72.9996C49.0717 74.1321 47.625 75.4169 48.7043 76.0401Z" fill="#D9D9D9"/>
<path opacity="0.3" fill-rule="evenodd" clip-rule="evenodd" d="M11.2149 99.8456C12.1919 100.41 12.5342 98.8042 13.5467 98.4929C14.4966 98.2008 15.8341 99.4606 16.3764 98.5213C16.9082 97.6002 15.1049 97.101 14.9007 96.1476C14.6747 95.0926 15.9373 93.9635 14.9425 93.3891C13.995 92.8421 13.6239 94.5616 12.6357 94.84C11.6489 95.1179 10.4362 93.799 9.87639 94.7685C9.31474 95.7413 11.0256 96.189 11.2817 97.1852C11.5364 98.1761 10.2705 99.3004 11.2149 99.8456Z" fill="#D9D9D9"/>
<path opacity="0.3" fill-rule="evenodd" clip-rule="evenodd" d="M44.4538 25.2927C45.4308 25.8568 45.7731 24.2513 46.7855 23.94C47.7355 23.6479 49.0729 24.9078 49.6153 23.9684C50.1471 23.0473 48.3438 22.5481 48.1396 21.5948C47.9136 20.5397 49.1762 19.4106 48.1814 18.8363C47.2339 18.2892 46.8628 20.0088 45.8746 20.2871C44.8878 20.565 43.675 19.2461 43.1153 20.2157C42.5536 21.1885 44.2645 21.6362 44.5206 22.6323C44.7753 23.6232 43.5094 24.7475 44.4538 25.2927Z" fill="#D9D9D9"/>
<path d="M125.847 107.99L127.911 107.432L138.33 145.95L136.266 146.508L125.847 107.99Z" fill="#E0DFED"/>
<path d="M129.314 110.45L131.378 109.892L141.797 148.411L139.734 148.969L129.314 110.45Z" fill="#E7E7EC"/>
<path d="M135.589 120.332L139.313 120.333L139.631 144.823L135.908 144.823L135.589 120.332Z" fill="#E7E7EC"/>
<path d="M135.59 114.113L139.314 114.114L139.315 120.064L135.591 120.064L135.59 114.113Z" fill="#E0DFED"/>
<path d="M142.982 113.458L144.141 111.496L145.078 113.841L141.052 146.325L138.956 145.942L142.982 113.458Z" fill="#E7E7EC"/>
<path d="M147.653 113.179L149.252 111.556L149.594 114.058L137.829 144.603L135.888 143.724L147.653 113.179Z" fill="#E0DFED"/>
<path fill-rule="evenodd" clip-rule="evenodd" d="M127.129 127.407C126.983 125.575 128.5 124.041 130.335 124.157C132.89 124.32 136.145 124.507 137.53 124.507C138.943 124.507 142.311 124.312 144.893 124.147C146.675 124.034 148.168 125.48 148.094 127.263C147.916 131.538 147.592 138.779 147.314 142.029C147.15 143.94 146.866 146.046 146.585 147.883C146.151 150.726 143.676 152.766 140.8 152.766H134.264C131.033 152.766 128.382 150.208 128.262 146.979C128.125 143.309 127.955 138.949 127.861 137.278C127.753 135.353 127.389 130.679 127.129 127.407Z" fill="#F0EFF8"/>
<path opacity="0.809096" fill-rule="evenodd" clip-rule="evenodd" d="M142.669 130.683C142.575 129.762 142.059 128.941 141.284 128.432C139.24 127.088 135.546 124.505 137.351 124.505C138.759 124.505 142.106 124.311 144.684 124.147C146.477 124.033 147.975 125.498 147.885 127.292C147.667 131.679 147.276 139.171 146.996 142.437C146.785 144.893 146.414 147.562 146.104 149.571C145.835 151.311 144.137 152.426 142.423 152.022C140.376 151.54 139.39 149.184 140.387 147.333C141.856 144.603 143.528 141.074 143.429 139.315C143.304 137.099 142.893 132.902 142.669 130.683Z" fill="#E4E3EF"/>
<path d="M129.81 126.83L130.879 148.193" stroke="white" stroke-width="0.5" stroke-linecap="square"/>
<path d="M73.7834 152.142C71.252 151.579 71.3437 151.432 73.6342 152.627" stroke="#212429"/>
<path d="M73.7038 152.698C107.727 157.312 122.842 152.913 144.39 169.176" stroke="#9FA0A2"/>
<path d="M142.266 167.693C149.062 171.184 143.824 171.161 141.227 166.873" stroke="#212429"/>
<path d="M141.453 161.552C144.045 161.618 143.992 161.453 141.48 162.059" stroke="#212429"/>
<path d="M141.395 162.111C107.267 158.356 93.6652 150.431 68.8226 160.998" stroke="#9FA0A2"/>
<path d="M71.2424 160.073C63.8035 161.817 68.8918 163.061 72.449 159.529" stroke="#212429"/>
<path fill-rule="evenodd" clip-rule="evenodd" d="M113.478 155.876C117.499 155.703 121.504 155.219 125.541 155.356C153.632 156.307 141.04 176.482 120.55 169.29C113.624 166.86 107.942 161.798 112.74 156.732L113.478 155.876Z" stroke="#F9CEA6" stroke-width="1.5"/>
<path fill-rule="evenodd" clip-rule="evenodd" d="M102.167 154.487C98.3076 153.346 94.5384 151.908 90.5879 151.064C63.1018 145.192 70.4385 167.813 92.0601 165.792C99.3677 165.109 106.106 161.572 102.676 155.497L102.167 154.487Z" stroke="#FBDBBC" stroke-width="1.5"/>
<path d="M103.045 154.594C110.207 152.501 106.65 152.249 113.701 155.575" stroke="#F9CEA6" stroke-width="1.5"/>
</g>
</svg>
