<svg width="115" height="108" viewBox="0 0 115 108" fill="none" xmlns="http://www.w3.org/2000/svg">
<path opacity="0.7" fill-rule="evenodd" clip-rule="evenodd" d="M12.606 29.1291C14.8413 26.4624 17.7203 24.4815 20.911 23.0931C29.093 19.5328 46.9277 12.574 67.3095 9.61215C73.2341 8.75119 78.0859 8.9572 82.0537 9.8169C96.4707 12.9406 107.938 31.4854 110.09 46.0791C110.379 48.0386 110.617 50.1818 110.79 52.5257C111.228 58.4579 111.213 63.6641 110.931 68.1618C110.058 82.0898 97.4496 90.1651 83.4943 90.1651H30.544C19.8259 90.1651 9.28084 85.5255 4.65768 75.8557C1.57496 69.4079 -0.851618 61.6202 0.285362 54.3352C2.01217 43.2708 8.4801 34.0515 12.606 29.1291Z" fill="#F6F5FB"/>
<path d="M67.851 60.7901L69.2362 60.4147L76.2459 86.4018L74.8607 86.7773L67.851 60.7901Z" fill="#E0DFED"/>
<path d="M70.1782 62.4501L71.5633 62.0747L78.573 88.0619L77.1879 88.4373L70.1782 62.4501Z" fill="#E7E7EC"/>
<path d="M74.4048 69.1206L76.9044 69.1188L77.104 85.6375L74.6044 85.6393L74.4048 69.1206Z" fill="#E7E7EC"/>
<path d="M74.3999 64.9242L76.8996 64.9224L76.8966 68.936L74.397 68.9379L74.3999 64.9242Z" fill="#E0DFED"/>
<path d="M79.3747 64.4846L80.1546 63.1608L80.7819 64.7409L78.0474 86.6493L76.6403 86.393L79.3747 64.4846Z" fill="#E7E7EC"/>
<path d="M82.5215 64.2995L83.5986 63.2036L83.8249 64.8885L75.8715 85.4846L74.5682 84.8956L82.5215 64.2995Z" fill="#E0DFED"/>
<path fill-rule="evenodd" clip-rule="evenodd" d="M68.8087 75.0246C68.6654 73.1923 70.1836 71.6596 72.0182 71.7696C73.4628 71.8563 74.9697 71.9345 75.7007 71.9345C76.458 71.9345 78.0509 71.8505 79.5444 71.7602C81.3265 71.6525 82.8219 73.0977 82.7457 74.8814C82.6217 77.7843 82.4329 81.8193 82.2677 83.7549C82.203 84.5134 82.1105 85.3173 82.0069 86.1029C81.6308 88.9562 79.1399 90.9981 76.262 90.9981H75.4144C72.1825 90.9981 69.5325 88.4381 69.4089 85.2085C69.3348 83.2758 69.2585 81.3984 69.2109 80.5497C69.15 79.4611 68.9687 77.0699 68.8087 75.0246Z" fill="#F0EFF8"/>
<path opacity="0.809096" fill-rule="evenodd" clip-rule="evenodd" d="M79.1967 76.5731C79.1051 75.6528 78.5884 74.8341 77.8223 74.316C76.4279 73.3731 74.479 71.9332 75.5803 71.9332C76.3325 71.9332 77.9092 71.8503 79.3939 71.7607C81.1867 71.6526 82.6868 73.1148 82.5962 74.9086C82.4451 77.8961 82.2203 82.0798 82.0539 84.0302C81.9123 85.6883 81.663 87.4901 81.4547 88.8459C81.2748 90.0176 80.1312 90.7676 78.9776 90.4947C77.605 90.17 76.9436 88.5912 77.6097 87.3479C78.5975 85.5044 79.7265 83.1137 79.6599 81.9243C79.5843 80.5745 79.3521 78.1358 79.1967 76.5731Z" fill="#E4E3EF"/>
<path d="M70.5189 73.5013L71.2364 87.9133" stroke="white" stroke-width="0.5" stroke-linecap="square"/>
<path fill-rule="evenodd" clip-rule="evenodd" d="M98.0563 26.7523C95.6858 36.489 90.3988 56.7207 93.1252 70.4236C93.6989 73.3067 94.3479 80.2621 95.4264 77.7368C97.4076 73.0982 96.3688 66.2651 96.7072 60.7554C97.3879 49.6754 97.4875 38.8783 98.4896 27.8551L98.0563 26.7523Z" fill="white"/>
<path fill-rule="evenodd" clip-rule="evenodd" d="M97.8972 28.1526C99.0408 32.7288 99.6429 46.3934 100.262 57.8812C100.708 66.1643 100.708 75.6655 99.4347 77.4472C98.3153 79.014 94.5872 78.1096 94.8441 76.8501C95.4708 73.7767 94.1259 66.0332 94.4593 61.3726C94.8791 55.5054 96.2355 50.84 96.7319 44.5841C97.1659 39.1138 97.0281 32.2239 97.2959 26.7523L97.8972 28.1526Z" fill="#EAECF8"/>
<path fill-rule="evenodd" clip-rule="evenodd" d="M108.019 32.8542L107.778 33.331C100.023 43.5439 100.998 55.6843 100.467 66.8003C100.203 72.328 101.014 79.1832 99.4686 83.8369C98.6275 86.3704 98.1214 79.3924 97.6741 76.4999C97.196 73.4085 97.0389 67.0753 97.183 64.9118C97.3272 62.7483 96.8307 58.5453 97.4406 54.8169C97.9881 51.4699 98.6571 48.7413 99.805 45.7958C101.806 40.6617 104.677 35.6186 108.019 32.8542Z" fill="white"/>
<path fill-rule="evenodd" clip-rule="evenodd" d="M103.826 41.6992C101.818 48.1692 101.086 53.4415 101.565 64.7685C101.911 72.9355 101.684 72.2798 101.266 77.5005C100.928 81.7237 98.2306 83.1579 98.4296 81.9161C98.9153 78.8857 97.5848 74.8219 97.8432 70.2266C98.1686 64.4415 98.4179 62.8112 98.8025 56.6429C99.1389 51.2492 102.35 37.6569 108.02 33.5322L103.826 41.6992Z" fill="#EAECF8"/>
<path fill-rule="evenodd" clip-rule="evenodd" d="M114.209 57.0846L113.935 57.3356C106.405 62.074 103.997 70.2183 100.879 77.3246C99.3277 80.8584 98.1344 85.521 95.9798 88.1702C94.8068 89.6124 96.2258 84.9447 96.6616 82.9513C97.1273 80.8209 98.6092 76.6589 99.2425 75.2859C99.8757 73.9129 100.607 71.0542 101.931 68.7771C103.119 66.7329 104.23 65.1213 105.703 63.4865C108.27 60.6369 111.373 58.0608 114.209 57.0846Z" fill="white"/>
<path fill-rule="evenodd" clip-rule="evenodd" d="M109.354 62.1061C106.544 65.7731 104.805 68.9725 102.317 76.3255C100.523 81.6272 100.546 81.1549 99.0103 84.3948C97.7683 87.0157 95.7746 87.3023 96.2005 86.5549C97.2397 84.7312 97.4273 81.8225 98.7122 78.9452C100.33 75.3229 100.882 74.339 102.629 70.4856C104.158 67.1161 109.447 59.1771 113.91 57.8648L109.354 62.1061Z" fill="#EAECF8"/>
<path fill-rule="evenodd" clip-rule="evenodd" d="M91.9319 55.2276L92.6783 59.3284C91.921 64.8272 93.4504 65.0059 92.9361 70.533C92.6803 73.2815 92.724 77.2876 90.6783 80.0855C89.8566 81.2094 89.3728 77.8756 88.9392 76.4374C86.8787 69.6018 90.1404 60.0846 91.9319 55.2276Z" fill="white"/>
<path fill-rule="evenodd" clip-rule="evenodd" d="M92.0244 55.237C92.805 57.4836 93.216 64.1919 93.6383 69.8316C93.6489 69.9727 93.6591 70.1146 93.6689 70.257C93.9417 74.2172 93.1717 78.2408 92.3329 79.0852C91.5688 79.8544 89.7649 79.7622 89.9402 79.1439C90.368 77.6351 89.4499 73.8336 89.6775 71.5456C89.9641 68.6652 90.89 66.3748 91.2288 63.3037C91.5251 60.6181 91.4311 57.2357 91.6139 54.5496L92.0244 55.237Z" fill="#EAECF8"/>
<path fill-rule="evenodd" clip-rule="evenodd" d="M85.0483 64.5824L86.5497 67.0657C87.4376 70.8277 88.4613 70.568 89.5117 74.2887C90.0341 76.1389 91.062 78.7332 90.4509 81.0554C90.2054 81.9882 89.0635 79.9392 88.4269 79.1104C85.4016 75.1716 85.1139 68.1811 85.0483 64.5824Z" fill="white"/>
<path fill-rule="evenodd" clip-rule="evenodd" d="M85.1267 64.174C86.2706 65.4112 88.2521 69.6557 89.9753 73.2021C90.0184 73.2909 90.0615 73.3802 90.1043 73.47C91.2967 75.9671 91.726 78.8044 91.3103 79.5939C90.9316 80.3132 89.5613 80.7705 89.5379 80.3181C89.4808 79.2143 87.8461 77.0054 87.445 75.4523C86.94 73.497 87.0598 71.7421 86.5462 69.6478C86.0971 67.8165 85.1825 65.6439 84.6485 63.8447L85.1267 64.174Z" fill="#EAECF8"/>
<path fill-rule="evenodd" clip-rule="evenodd" d="M86.6264 75.7713C91.1916 75.7838 95.7796 75.1127 99.9547 76.1377C104.621 77.2833 106.382 84.9728 98.5144 88.3965C95.3703 89.7648 90.7801 89.9842 88.4476 89.6906C86.2238 89.4107 83.8931 85.7106 83.6903 80.9515C83.6239 79.3937 83.3307 77.0355 83.6903 76.3371C84.0498 75.6388 86.6264 75.7713 86.6264 75.7713Z" fill="#ECEAF6"/>
<path fill-rule="evenodd" clip-rule="evenodd" d="M97.0796 75.7098C101.547 75.7212 98.7438 75.234 102.753 75.9973C106.046 76.6241 106.046 82.353 103.305 87.705C102.066 90.1234 98.1734 89.9175 95.891 89.6492C93.7149 89.3935 94.8848 85.715 94.6863 81.3667C94.6214 79.9433 93.438 76.9418 93.7898 76.3037C94.1417 75.6657 97.0796 75.7098 97.0796 75.7098Z" fill="#DCDBEB"/>
<path d="M15.1143 90.1652H101.845" stroke="#76797E" stroke-width="2" stroke-linecap="round"/>
<path d="M103.29 90.1652H104.942" stroke="#76797E" stroke-width="2" stroke-linecap="round"/>
<path fill-rule="evenodd" clip-rule="evenodd" d="M80.6669 70.3487C81.4878 70.3487 82.1532 69.6832 82.1532 68.8624C82.1532 68.0416 81.4878 67.3762 80.6669 67.3762C79.8461 67.3762 79.1807 68.0416 79.1807 68.8624C79.1807 69.6832 79.8461 70.3487 80.6669 70.3487Z" fill="#FFDD0E"/>
<path opacity="0.4" fill-rule="evenodd" clip-rule="evenodd" d="M104.942 64.4037C105.489 64.4037 105.933 63.9601 105.933 63.4128C105.933 62.8656 105.489 62.422 104.942 62.422C104.395 62.422 103.951 62.8656 103.951 63.4128C103.951 63.9601 104.395 64.4037 104.942 64.4037Z" fill="#FFDD0E"/>
<path fill-rule="evenodd" clip-rule="evenodd" d="M29.6389 75.3028C30.7333 75.3028 31.6205 74.4156 31.6205 73.3211C31.6205 72.2267 30.7333 71.3395 29.6389 71.3395C28.5445 71.3395 27.6572 72.2267 27.6572 73.3211C27.6572 74.4156 28.5445 75.3028 29.6389 75.3028Z" fill="#FFDD0E"/>
<path opacity="0.5" fill-rule="evenodd" clip-rule="evenodd" d="M72.7402 94.1284C73.561 94.1284 74.2264 93.463 74.2264 92.6422C74.2264 91.8214 73.561 91.156 72.7402 91.156C71.9193 91.156 71.2539 91.8214 71.2539 92.6422C71.2539 93.463 71.9193 94.1284 72.7402 94.1284Z" fill="#FFDD0E"/>
<path fill-rule="evenodd" clip-rule="evenodd" d="M32.5368 20.2999C33.2756 20.2999 33.8745 19.6939 33.8745 18.9465C33.8745 18.1991 33.2756 17.5932 32.5368 17.5932C31.7981 17.5932 31.1992 18.1991 31.1992 18.9465C31.1992 19.6939 31.7981 20.2999 32.5368 20.2999Z" fill="#FFDD0E"/>
<path opacity="0.3" fill-rule="evenodd" clip-rule="evenodd" d="M37.8874 43.3063C38.6262 43.3063 39.225 42.7004 39.225 41.953C39.225 41.2056 38.6262 40.5997 37.8874 40.5997C37.1487 40.5997 36.5498 41.2056 36.5498 41.953C36.5498 42.7004 37.1487 43.3063 37.8874 43.3063Z" fill="#FFDD0E"/>
<path opacity="0.6" fill-rule="evenodd" clip-rule="evenodd" d="M61.2956 27.0665C62.0344 27.0665 62.6333 26.4606 62.6333 25.7131C62.6333 24.9657 62.0344 24.3598 61.2956 24.3598C60.5569 24.3598 59.958 24.9657 59.958 25.7131C59.958 26.4606 60.5569 27.0665 61.2956 27.0665Z" fill="#F6BF26"/>
<path opacity="0.1" fill-rule="evenodd" clip-rule="evenodd" d="M39.8934 23.6832C40.2628 23.6832 40.5622 23.3802 40.5622 23.0065C40.5622 22.6328 40.2628 22.3298 39.8934 22.3298C39.5241 22.3298 39.2246 22.6328 39.2246 23.0065C39.2246 23.3802 39.5241 23.6832 39.8934 23.6832Z" fill="#F6BF26"/>
<path fill-rule="evenodd" clip-rule="evenodd" d="M87.8102 42.5757C88.7012 42.7329 88.5228 41.4061 89.2025 40.8824C89.8401 40.3911 91.1925 40.9799 91.3464 40.1073C91.4972 39.2517 90.0001 39.377 89.5866 38.704C89.1289 37.9591 89.775 36.7383 88.8677 36.5783C88.0036 36.4259 88.1912 37.8482 87.521 38.3397C86.8517 38.8306 85.5773 38.1615 85.4185 39.0621C85.2592 39.9657 86.6725 39.827 87.1368 40.5182C87.5987 41.2058 86.949 42.4239 87.8102 42.5757Z" fill="#FFD80E"/>
<path opacity="0.3" fill-rule="evenodd" clip-rule="evenodd" d="M56.235 6.08995C57.1398 6.08995 56.7337 4.81436 57.3121 4.18062C57.8547 3.58601 59.2888 3.93099 59.2888 3.04498C59.2888 2.17616 57.8362 2.55955 57.3121 1.96853C56.7321 1.31444 57.1563 0 56.235 0C55.3575 0 55.7893 1.36802 55.2146 1.96853C54.6407 2.56817 53.2695 2.13047 53.2695 3.04498C53.2695 3.96255 54.6373 3.58051 55.2146 4.18062C55.7889 4.77759 55.3605 6.08995 56.235 6.08995Z" fill="#FFDD0E"/>
<path opacity="0.3" fill-rule="evenodd" clip-rule="evenodd" d="M14.4297 48.3374C15.1262 48.7395 15.3805 47.5771 16.1074 47.3463C16.7894 47.1297 17.74 48.0327 18.1338 47.3506C18.52 46.6818 17.2313 46.3313 17.0906 45.6434C16.9348 44.8821 17.8455 44.0588 17.1363 43.6494C16.4609 43.2594 16.1852 44.5044 15.4759 44.7112C14.7676 44.9178 13.9066 43.9714 13.5002 44.6754C13.0924 45.3817 14.3151 45.6956 14.4928 46.4141C14.6695 47.1289 13.7565 47.9487 14.4297 48.3374Z" fill="#FFDD0E"/>
<path opacity="0.3" fill-rule="evenodd" clip-rule="evenodd" d="M44.553 53.9887C45.1624 54.3406 45.385 53.3234 46.021 53.1215C46.6178 52.932 47.4496 53.7221 47.7941 53.1253C48.132 52.54 47.0044 52.2334 46.8813 51.6315C46.7449 50.9653 47.5418 50.2449 46.9213 49.8867C46.3303 49.5454 46.0891 50.6348 45.4684 50.8158C44.8487 50.9965 44.0953 50.1684 43.7397 50.7844C43.3828 51.4025 44.4527 51.6771 44.6082 52.3058C44.7628 52.9312 43.9639 53.6486 44.553 53.9887Z" fill="#FFDD0E"/>
<path opacity="0.3" fill-rule="evenodd" clip-rule="evenodd" d="M63.76 44.3252C64.3695 44.677 64.592 43.6599 65.228 43.458C65.8248 43.2685 66.6566 44.0585 67.0011 43.4617C67.339 42.8765 66.2115 42.5699 66.0883 41.9679C65.952 41.3018 66.7489 40.5814 66.1283 40.2231C65.5373 39.8819 65.2961 40.9713 64.6755 41.1523C64.0557 41.333 63.3024 40.5049 62.9467 41.1209C62.5899 41.739 63.6598 42.0136 63.8152 42.6423C63.9699 43.2677 63.171 43.9851 63.76 44.3252Z" fill="#FFDD0E"/>
<path opacity="0.7" fill-rule="evenodd" clip-rule="evenodd" d="M50.9257 107.834C55.8642 107.834 60.7053 108.207 64.6842 107.834C72.6851 107.084 75.2169 105.103 75.2169 103.507C75.2169 101.117 65.7948 99.1791 50.9257 99.1791C36.0565 99.1791 38.8086 99.0549 31.9904 101.065C28.8381 101.994 26.0857 105.109 31.1654 105.896C36.007 106.646 43.6695 107.834 50.9257 107.834Z" fill="#EEEFF1"/>
<path fill-rule="evenodd" clip-rule="evenodd" d="M56.3379 106.643C60.1558 106.643 64.9008 105.895 67.8133 105.55C72.4825 104.995 74.3335 104.073 74.3335 103.029C74.3335 102.712 74.8147 101.763 74.3335 101.492C73.2114 100.86 70.107 101.009 66.7598 100.623C63.8863 100.292 60.068 99.9607 56.3379 99.9607C53.3634 99.9607 50.4211 100.405 47.9492 100.623C43.7604 100.992 39.7672 100.808 38.3423 101.492C37.7985 101.753 38.3423 102.701 38.3423 103.029C38.3423 103.871 40.2395 104.995 43.4553 105.55C46.7172 106.112 51.3331 106.643 56.3379 106.643Z" fill="#DCDBEB"/>
<path fill-rule="evenodd" clip-rule="evenodd" d="M56.324 104.972C60.1902 104.972 64.9953 104.225 67.9446 103.879C72.6729 103.325 74.5474 102.403 74.5474 101.359C74.5474 100.3 71.7212 99.5041 66.8778 98.9526C63.9679 98.6212 60.1013 98.2901 56.324 98.2901C53.3118 98.2901 50.3323 98.7347 47.8291 98.9526C41.9685 99.4627 38.1006 100.171 38.1006 101.359C38.1006 102.2 40.0219 103.325 43.2783 103.879C46.5815 104.441 51.2559 104.972 56.324 104.972Z" fill="#EAECF8"/>
<path fill-rule="evenodd" clip-rule="evenodd" d="M55.9101 101.631C57.9688 101.631 59.6377 101.257 59.6377 100.796C59.6377 100.335 57.9688 99.9607 55.9101 99.9607C53.8515 99.9607 52.1826 100.335 52.1826 100.796C52.1826 101.257 53.8515 101.631 55.9101 101.631Z" fill="#DCDBEB"/>
<path fill-rule="evenodd" clip-rule="evenodd" d="M54.668 11.4024C54.668 10.03 55.7806 8.91742 57.153 8.91742C58.5254 8.91742 59.638 10.03 59.638 11.4024V103.302H57.168C55.7873 103.302 54.668 102.182 54.668 100.802V11.4024Z" fill="#EAECF8"/>
<path fill-rule="evenodd" clip-rule="evenodd" d="M57.1524 10.1599C57.1524 9.47371 57.7086 8.91742 58.3949 8.91742C59.0811 8.91742 59.6374 9.47371 59.6374 10.1599V101.234L57.1524 101.631L57.1524 10.1599Z" fill="#DCDBEB"/>
<path d="M55.9105 10.9942V99.6476" stroke="white" stroke-linecap="square"/>
<mask id="path-45-inside-1" fill="white">
<path fill-rule="evenodd" clip-rule="evenodd" d="M52.1826 101.005C52.1826 100.94 52.2368 100.889 52.3011 100.894C52.6822 100.921 53.863 101.005 54.0657 101.005C54.1553 101.005 54.9037 101.1 56.0383 101.076C56.7209 101.061 58.722 100.863 59.4056 100.794C59.5304 100.781 59.6377 100.879 59.6377 101.005C59.6377 101.005 58.8676 101.398 58.5047 101.421C58.4005 101.428 57.3476 101.557 56.5518 101.564C56.176 101.568 55.5713 101.648 54.6748 101.628C54.3692 101.621 53.7721 101.473 52.9095 101.216C52.6822 101.149 52.1826 101.005 52.1826 101.005Z"/>
</mask>
<path fill-rule="evenodd" clip-rule="evenodd" d="M52.1826 101.005C52.1826 100.94 52.2368 100.889 52.3011 100.894C52.6822 100.921 53.863 101.005 54.0657 101.005C54.1553 101.005 54.9037 101.1 56.0383 101.076C56.7209 101.061 58.722 100.863 59.4056 100.794C59.5304 100.781 59.6377 100.879 59.6377 101.005C59.6377 101.005 58.8676 101.398 58.5047 101.421C58.4005 101.428 57.3476 101.557 56.5518 101.564C56.176 101.568 55.5713 101.648 54.6748 101.628C54.3692 101.621 53.7721 101.473 52.9095 101.216C52.6822 101.149 52.1826 101.005 52.1826 101.005Z" fill="#D8D8D8"/>
<path d="M56.0383 101.076L56.0167 100.076L56.0383 101.076ZM58.5047 101.421L58.4419 100.423L58.5047 101.421ZM56.5518 101.564L56.5611 102.564L56.5518 101.564ZM54.6748 101.628L54.6522 102.628L54.6748 101.628ZM52.9095 101.216L53.1941 100.258L52.9095 101.216ZM52.2296 101.891C52.5776 101.916 53.8158 102.005 54.0657 102.005V100.005C54.0679 100.005 54.063 100.005 54.0477 100.004C54.0337 100.004 54.0152 100.003 53.9918 100.002C53.9451 100 53.8853 99.997 53.8148 99.993C53.6741 99.985 53.499 99.9739 53.3161 99.9619C52.9508 99.9378 52.5626 99.9102 52.3727 99.8966L52.2296 101.891ZM54.0657 102.005C54.0317 102.005 54.019 102.003 54.1674 102.016C54.2722 102.025 54.4182 102.037 54.5993 102.048C54.9612 102.07 55.46 102.088 56.0599 102.075L56.0167 100.076C55.482 100.087 55.0394 100.071 54.721 100.051C54.5619 100.042 54.4332 100.031 54.3369 100.023C54.2843 100.019 54.1445 100.005 54.0657 100.005V102.005ZM56.0599 102.075C56.793 102.06 58.8462 101.856 59.5063 101.789L59.3049 99.7991C58.5977 99.8706 56.6488 100.062 56.0167 100.076L56.0599 102.075ZM59.6377 101.005C59.1826 100.114 59.1827 100.114 59.1827 100.114C59.1827 100.114 59.1828 100.114 59.1828 100.114C59.1829 100.114 59.183 100.114 59.183 100.114C59.1831 100.114 59.1832 100.114 59.1832 100.114C59.1832 100.114 59.1831 100.114 59.1828 100.114C59.1821 100.115 59.1808 100.115 59.1788 100.116C59.1748 100.118 59.1681 100.122 59.1592 100.126C59.1412 100.135 59.1141 100.148 59.0801 100.165C59.0114 100.198 58.9176 100.241 58.8157 100.284C58.7118 100.329 58.6108 100.368 58.5253 100.396C58.4241 100.429 58.4043 100.426 58.4419 100.423L58.5674 102.419C58.7865 102.406 58.9991 102.345 59.1443 102.297C59.3053 102.245 59.4648 102.182 59.5989 102.125C59.7348 102.067 59.8562 102.01 59.9432 101.969C59.9871 101.948 60.0229 101.93 60.0485 101.918C60.0613 101.911 60.0716 101.906 60.0791 101.902C60.0828 101.9 60.0858 101.899 60.0881 101.898C60.0893 101.897 60.0902 101.897 60.091 101.896C60.0914 101.896 60.0917 101.896 60.092 101.896C60.0921 101.896 60.0923 101.896 60.0924 101.896C60.0925 101.895 60.0925 101.895 60.0926 101.895C60.0927 101.895 60.0927 101.895 59.6377 101.005ZM58.4419 100.423C58.21 100.438 57.3216 100.557 56.5426 100.564L56.5611 102.564C57.3737 102.557 58.591 102.418 58.5674 102.419L58.4419 100.423ZM56.5426 100.564C56.3227 100.566 56.0164 100.591 55.7507 100.607C55.4564 100.624 55.1098 100.637 54.6973 100.628L54.6522 102.628C55.1363 102.639 55.5403 102.622 55.8665 102.603C56.2212 102.583 56.4051 102.566 56.5611 102.564L56.5426 100.564ZM54.6973 100.628C54.657 100.627 54.5185 100.611 54.2316 100.543C53.9629 100.479 53.6185 100.384 53.1941 100.258L52.6248 102.175C53.063 102.305 53.4485 102.412 53.7705 102.489C54.0741 102.561 54.3869 102.622 54.6522 102.628L54.6973 100.628ZM53.1941 100.258C53.077 100.223 52.8924 100.169 52.7394 100.125C52.6624 100.103 52.5925 100.082 52.5419 100.068C52.5166 100.06 52.4961 100.055 52.482 100.05C52.4749 100.048 52.4693 100.047 52.4656 100.046C52.4637 100.045 52.4623 100.045 52.4613 100.044C52.4608 100.044 52.4604 100.044 52.4602 100.044C52.4601 100.044 52.46 100.044 52.4599 100.044C52.4599 100.044 52.4599 100.044 52.4598 100.044C52.4598 100.044 52.4598 100.044 52.4598 100.044C52.4598 100.044 52.4598 100.044 52.1826 101.005C51.9055 101.966 51.9055 101.966 51.9055 101.966C51.9055 101.966 51.9055 101.966 51.9055 101.966C51.9055 101.966 51.9055 101.966 51.9055 101.966C51.9056 101.966 51.9057 101.966 51.9058 101.966C51.906 101.966 51.9064 101.966 51.9068 101.966C51.9078 101.966 51.9092 101.967 51.911 101.967C51.9147 101.968 51.9201 101.97 51.9271 101.972C51.9411 101.976 51.9614 101.982 51.9865 101.989C52.0367 102.004 52.106 102.024 52.1823 102.046C52.3358 102.09 52.5146 102.142 52.6248 102.175L53.1941 100.258ZM59.5063 101.789C59.0347 101.837 58.6377 101.464 58.6377 101.005H60.6377C60.6377 100.295 60.0261 99.7261 59.3049 99.7991L59.5063 101.789ZM52.3727 99.8966C51.7227 99.8499 51.1826 100.367 51.1826 101.005H53.1826C53.1826 101.514 52.7509 101.929 52.2296 101.891L52.3727 99.8966Z" fill="#DCDBEB" mask="url(#path-45-inside-1)"/>
<path fill-rule="evenodd" clip-rule="evenodd" d="M25.6758 18.1052L55.5434 13.3626C55.5434 13.3626 55.7551 13.3626 56.551 13.3626C57.3468 13.3626 58.8092 13.0937 58.8092 13.0937V37.7872C58.8092 37.7872 57.3298 38.1515 56.551 38.1515C55.7722 38.1515 54.0987 37.7872 54.0987 37.7872L25.6758 42.7988L39.085 27.9462L25.6758 18.1052Z" fill="#FAD6B4"/>
<path opacity="0.4" fill-rule="evenodd" clip-rule="evenodd" d="M48.169 14.5268L53.8771 13.5795C53.8771 13.5795 54.5088 13.5795 54.6679 13.5795C54.8271 13.5795 55.5089 13.3559 55.5089 13.3559V37.853C55.5089 37.853 54.518 37.1741 54.3623 37.1741C54.2065 37.1741 53.7258 37.1741 53.7258 37.1741C53.7258 37.1741 52.6128 37.8529 52.8858 35.2888C53.1588 32.7246 52.8858 26.8221 52.8858 26.8221C52.8858 26.8221 51.5824 18.9605 51.3546 16.9829C51.1269 15.0053 48.169 14.5268 48.169 14.5268Z" fill="#F8C89C"/>
<path fill-rule="evenodd" clip-rule="evenodd" d="M57.1524 13.4267C57.1524 13.4267 58.0245 13.4763 58.3949 13.4267C58.7652 13.3771 59.6374 13.0937 59.6374 13.0937V37.7507C59.6374 37.7507 58.8066 38.0595 58.3949 38.1208C57.9831 38.1821 57.1524 38.1208 57.1524 38.1208V13.4267Z" fill="#F8C89C"/>
<path opacity="0.2" d="M55.9105 13.4974V36.9264" stroke="white" stroke-linecap="square"/>
<path fill-rule="evenodd" clip-rule="evenodd" d="M51.1847 99.9607C48.9266 100.095 46.615 99.8469 44.4105 100.363C36.7108 102.164 51.9419 104.344 52.5866 104.121C54.4699 103.47 49.5649 103.781 47.9244 102.636C47.2157 102.141 47.1031 101.122 47.9244 100.865L51.1847 99.9607Z" fill="white"/>
</svg>
