<svg xmlns="http://www.w3.org/2000/svg" width="18" height="18" fill="none" viewBox="0 0 18 18">
    <path fill="#9A9A9A" fill-rule="evenodd" d="M14.111 5.616c0-.018 0-.037-.018-.055v-.018c0-.019-.018-.037-.036-.037l-2.996-2.95c-.009-.01-.018-.015-.027-.02a.095.095 0 0 1-.027-.018h-.018c-.018 0-.037 0-.055-.018h-5.5C4.654 2.5 4 3.145 4 3.957v10.086c0 .793.635 1.457 1.434 1.457h7.243c.78 0 1.434-.645 1.434-1.457V5.616zm-2.995-2.489l2.36 2.305h-1.307c-.581 0-1.071-.48-1.071-1.088V3.127h.018zM5.434 15.13h7.243c.6 0 1.071-.48 1.053-1.088V5.801h-1.561c-.44 0-.83-.201-1.092-.515a1.467 1.467 0 0 1-.342-.942V2.869h-5.3c-.6 0-1.072.498-1.072 1.088v10.086c0 .609.49 1.088 1.071 1.088z" clip-rule="evenodd"/>
    <path fill="#9A9A9A" d="M14.093 5.561h-.3v.123l.086.087.214-.21zm-.036-.055l-.21.213.087.087h.123v-.3zm-2.996-2.95l-.213.21.003.003.21-.214zm-.027-.02l.136-.267-.136.268zm-.027-.018l.214-.21-.088-.09h-.126v.3zm-.073-.018l.214-.21-.088-.09h-.126v.3zm2.542 2.932v.3h.736l-.527-.515-.21.215zm-2.36-2.305l.21-.215-.088-.085h-.122v.3zm-.018 0v-.3h-.3v.3h.3zm2.632 10.916h-.3v.01l.3-.01zm0-8.242h.3v-.3h-.3v.3zm-1.561 0v.3-.3zm-1.092-.515l.23-.192-.23.192zm-.342-2.417h.3v-.3h-.3v.3zm3.144 2.902a.242.242 0 0 1-.061-.11c-.008-.032-.007-.06-.007-.045h.6c0-.022.006-.154-.104-.265l-.428.42zm-.086-.228v.018h.6v-.018h-.6zm.264.263a.263.263 0 0 1-.264-.263h.6a.337.337 0 0 0-.336-.337v.6zM10.85 2.769l2.995 2.95.421-.427-2.995-2.95-.421.427zm.047.035c.01.005-.022-.01-.05-.038l.427-.421c-.046-.048-.096-.07-.105-.076l-.272.535zm-.105-.075c.047.047.096.07.105.075l.272-.535c-.009-.004.022.01.05.039l-.427.42zm.196.09h.018v-.6h-.018v.6zm-.268-.109c.111.114.245.108.268.108v-.6c-.015 0 .013-.001.046.007a.244.244 0 0 1 .113.065l-.427.42zm.195.09h.018v-.6h-.018v.6zm-5.482 0h5.482v-.6H5.434v.6zM4.3 3.957c0-.648.521-1.157 1.134-1.157v-.6c-.948 0-1.734.782-1.734 1.757h.6zm0 10.086V3.957h-.6v10.086h.6zM5.434 15.2A1.149 1.149 0 0 1 4.3 14.043h-.6c0 .952.763 1.757 1.734 1.757v-.6zm7.243 0H5.434v.6h7.243v-.6zm1.134-1.157c0 .648-.521 1.157-1.134 1.157v.6c.948 0 1.734-.782 1.734-1.757h-.6zm0-8.427v8.427h.6V5.616h-.6zm-.126-.399l-2.36-2.305-.419.43 2.36 2.305.42-.43zm-1.516.515h1.307v-.6h-1.307v.6zm-1.371-1.388c0 .773.623 1.388 1.37 1.388v-.6a.782.782 0 0 1-.77-.788h-.6zm0-1.217v1.217h.6V3.127h-.6zm.318-.3h-.018v.6h.018v-.6zm1.561 12.004H5.434v.6h7.243v-.6zm.753-.779a.744.744 0 0 1-.753.78v.6c.768 0 1.376-.62 1.353-1.398l-.6.018zm0-8.251v8.242h.6V5.801h-.6zm-1.261.3h1.56v-.6h-1.56v.6zm-1.322-.622a1.72 1.72 0 0 0 1.322.622v-.6a1.12 1.12 0 0 1-.862-.407l-.46.385zm-.412-1.135c0 .43.154.827.412 1.135l.46-.385a1.167 1.167 0 0 1-.272-.75h-.6zm0-1.475v1.475h.6V2.869h-.6zm-5 .3h5.3v-.6h-5.3v.6zm-.772.788c0-.432.345-.788.771-.788v-.6c-.772 0-1.37.64-1.37 1.388h.6zm0 10.086V3.957h-.6v10.086h.6zm.771.788a.782.782 0 0 1-.77-.788h-.6c0 .773.622 1.388 1.37 1.388v-.6z"/>
</svg>
