<svg xmlns="http://www.w3.org/2000/svg" width="18" height="18" fill="none" viewBox="0 0 18 18">
    <path fill="#FF4D4D" fill-rule="evenodd" d="M13.98 3.19l-1.901 2.871 1.9 2.871a.123.123 0 0 1-.1.19H5.242v5.756a.122.122 0 0 1-.121.122.122.122 0 0 1-.122-.122V3.122C5 3.055 5.054 3 5.122 3h8.756c.045 0 .086.025.107.065.022.04.02.088-.005.125zm-8.737.055v5.633h8.408l-1.82-2.749a.123.123 0 0 1 0-.136l1.82-2.748H5.243z" clip-rule="evenodd"/>
    <path fill="#FF4B47" d="M12.079 6.061l-.417-.276-.183.276.183.276.417-.276zm1.9-2.87l-.415-.279-.001.002.416.276zm0 5.741l-.416.276.416-.276zm.006.126l-.44-.236-.002.003.442.233zm-8.742.064v-.5h-.5v.5h.5zm8.742-6.057l-.442.233.002.004.44-.237zM5.243 8.878h-.5v.5h.5v-.5zm0-5.633v-.5h-.5v.5h.5zm8.408 5.633v.5h.93l-.513-.776-.417.276zm-1.82-2.749l.417-.276-.417.276zm0-.136l.417.276-.417-.276zm1.82-2.748l.417.276.514-.776h-.931v.5zm-1.155 3.092l1.9-2.87-.833-.553-1.901 2.871.833.552zm1.9 2.32l-1.9-2.872-.834.552 1.9 2.871.834-.552zm.03.637a.623.623 0 0 0-.03-.638l-.833.552a.377.377 0 0 1-.018-.386l.881.472zm-.548.328a.621.621 0 0 0 .55-.331l-.885-.466a.379.379 0 0 1 .335-.203v1zm-8.635 0h8.635v-1H5.243v1zm.5 5.256V9.122h-1v5.756h1zm-.621.622a.622.622 0 0 0 .621-.622h-1c0-.206.166-.378.379-.378v1zm-.622-.622c0 .34.275.622.622.622v-1c.212 0 .378.172.378.378h-1zM4.5 9v5.878h1V9h-1zm0-5.878V9h1V3.122h-1zm.622-.622a.622.622 0 0 0-.622.622h1a.378.378 0 0 1-.378.378v-1zm8.756 0H5.122v1h8.756v-1zm.55.331a.621.621 0 0 0-.55-.331v1a.379.379 0 0 1-.335-.202l.885-.467zm-.033.637a.622.622 0 0 0 .03-.64l-.88.474a.378.378 0 0 1 .019-.39l.831.556zm-8.652 5.41V3.245h-1v5.633h1zm7.908-.5H5.243v1h8.408v-1zm-2.237-1.973l1.82 2.749.834-.552-1.82-2.749-.834.552zm0-.688a.623.623 0 0 0 0 .688l.834-.552a.377.377 0 0 1 0 .416l-.834-.552zm1.82-2.748l-1.82 2.748.834.552 1.82-2.748-.834-.552zm-7.99.776h8.407v-1H5.243v1z"/>
</svg>
