<svg xmlns="http://www.w3.org/2000/svg" width="24" height="24" fill="none" viewBox="0 0 24 24">
    <path fill="#525557" fill-rule="evenodd" d="M14.692 5.154h2.799c1.132 0 2.053.922 2.053 2.054v.105c0 .866-.538 1.607-1.298 1.909v9.703a2.056 2.056 0 0 1-2.053 2.054H8.358a2.056 2.056 0 0 1-2.054-2.054V9.22a2.056 2.056 0 0 1-1.298-1.908v-.105c0-1.132.921-2.054 2.054-2.054h2.798A2.437 2.437 0 0 1 12.275 3c1.248 0 2.277.943 2.417 2.154zm-.984 0a1.462 1.462 0 0 0-1.433-1.18c-.71 0-1.301.509-1.432 1.18h2.865zm3.564 13.77c0 .596-.484 1.08-1.08 1.08H8.359c-.596 0-1.08-.484-1.08-1.08V9.368h9.994v9.558zm.219-10.53c.595 0 1.08-.485 1.08-1.08v-.106c0-.595-.485-1.08-1.08-1.08H7.06c-.596 0-1.08.485-1.08 1.08v.105c0 .596.484 1.08 1.08 1.08h10.43z" clip-rule="evenodd"/>
    <path fill="#525557" d="M14.692 5.154l-.149.017.015.133h.134v-.15zm3.554 4.068l-.055-.14-.095.038v.102h.15zm-11.942 0h.15V9.12l-.095-.038-.055.14zm3.554-4.068v.15h.134l.015-.133-.149-.017zm3.85 0v.15h.182l-.035-.179-.147.029zm-2.865 0l-.148-.029-.034.179h.182v-.15zM7.278 9.367v-.15h-.15v.15h.15zm9.994 0h.15v-.15h-.15v.15zm1.298-2.054v-.15h-.15v.15h.15zm0 0v.15h.15v-.15h-.15zm-1.08-2.309h-2.798v.3h2.799v-.3zm2.205 2.204a2.206 2.206 0 0 0-2.204-2.204v.3c1.05 0 1.904.854 1.904 1.904h.3zm0 .105v-.105h-.3v.105h.3zm-1.393 2.048a2.206 2.206 0 0 0 1.393-2.048h-.3c0 .802-.5 1.49-1.204 1.77l.11.278zm.094 9.564V9.222h-.3v9.703h.3zm-2.203 2.204a2.206 2.206 0 0 0 2.203-2.204h-.3c0 1.05-.854 1.904-1.903 1.904v.3zm-7.835 0h7.835v-.3H8.358v.3zm-2.204-2.204c0 1.215.988 2.204 2.204 2.204v-.3a1.906 1.906 0 0 1-1.904-1.904h-.3zm0-9.704v9.704h.3V9.22h-.3zM4.856 7.313c0 .93.579 1.724 1.392 2.048l.111-.279a1.906 1.906 0 0 1-1.203-1.769h-.3zm0-.105v.105h.3v-.105h-.3zM7.06 5.004a2.206 2.206 0 0 0-2.204 2.204h.3c0-1.05.854-1.904 1.904-1.904v-.3zm2.798 0H7.06v.3h2.798v-.3zm2.417-2.154A2.587 2.587 0 0 0 9.71 5.137l.298.034a2.287 2.287 0 0 1 2.268-2.021v-.3zm2.566 2.287a2.587 2.587 0 0 0-2.566-2.287v.3c1.17 0 2.137.885 2.268 2.021l.298-.034zm-2.566-1.013c.636 0 1.168.456 1.286 1.059l.294-.058a1.612 1.612 0 0 0-1.58-1.3v.3zM10.99 5.183a1.312 1.312 0 0 1 1.285-1.059v-.3c-.782 0-1.435.561-1.58 1.301l.295.058zm2.718-.179h-2.865v.3h2.865v-.3zm2.485 15.15c.678 0 1.23-.551 1.23-1.23h-.3c0 .513-.418.93-.93.93v.3zm-7.835 0h7.835v-.3H8.358v.3zm-1.23-1.23c0 .679.552 1.23 1.23 1.23v-.3a.931.931 0 0 1-.93-.93h-.3zm0-9.557v9.558h.3V9.367h-.3zm10.144-.15H7.278v.3h9.994v-.3zm.15 9.708V9.367h-.3v9.558h.3zm.998-11.612c0 .513-.417.93-.93.93v.3c.679 0 1.23-.551 1.23-1.23h-.3zm.15-.15v.3-.3zm-.15.045v.105h.3v-.105h-.3zm-.93-.93c.513 0 .93.417.93.93h.3c0-.678-.551-1.23-1.23-1.23v.3zm-10.43 0h10.43v-.3H7.06v.3zm-.93.93c0-.513.417-.93.93-.93v-.3c-.678 0-1.23.552-1.23 1.23h.3zm0 .105v-.105h-.3v.105h.3zm.93.93a.931.931 0 0 1-.93-.93h-.3c0 .679.552 1.23 1.23 1.23v-.3zm10.43 0H7.06v.3h10.43v-.3z"/>
    <path fill="#525557" stroke="#525557" stroke-width=".3" d="M9.664 18.458a.487.487 0 0 0 .487-.487v-5.484a.487.487 0 0 0-.974 0v5.484c0 .269.218.487.487.487zM12.275 18.458a.487.487 0 0 0 .487-.487v-5.484a.487.487 0 0 0-.974 0v5.484c0 .269.218.487.487.487zM14.886 18.458a.487.487 0 0 0 .488-.487v-5.484a.487.487 0 0 0-.975 0v5.484c0 .269.219.487.488.487z"/>
</svg>
