<svg xmlns="http://www.w3.org/2000/svg" width="24" height="24" fill="none" viewBox="0 0 24 24">
    <path fill="#525557" fill-rule="evenodd" d="M9.442 11.66a3.477 3.477 0 1 0 0-6.954 3.477 3.477 0 0 0 0 6.954zm6.02 5.417v1.452c0 .348-.18.572-.469.572-.29 0-.479-.228-.479-.572v-1.452c0-1.298-1.25-2.595-2.53-2.595H6.901c-1.278 0-2.519 1.295-2.519 2.595v1.452c0 .35-.176.572-.462.572-.296 0-.496-.234-.496-.572v-1.452A3.477 3.477 0 0 1 6.9 13.6h5.083a3.477 3.477 0 0 1 3.477 3.477zm5.501 0v1.452c0 .348-.18.572-.468.572-.29 0-.479-.228-.479-.572v-1.452c0-1.298-1.25-2.595-2.53-2.595h-.954c-.676 0-.591-.882 0-.882h.954a3.477 3.477 0 0 1 3.477 3.477zM6.873 8.183a2.569 2.569 0 1 0 5.138 0 2.569 2.569 0 0 0-5.137 0z" clip-rule="evenodd"/>
    <path fill="#525557" d="M12.72 8.183a3.277 3.277 0 0 1-3.278 3.277v.4a3.677 3.677 0 0 0 3.678-3.677h-.4zM9.441 4.906a3.277 3.277 0 0 1 3.277 3.277h.4a3.677 3.677 0 0 0-3.677-3.677v.4zM6.165 8.183a3.277 3.277 0 0 1 3.277-3.277v-.4a3.677 3.677 0 0 0-3.676 3.677h.4zm3.277 3.277a3.277 3.277 0 0 1-3.277-3.277h-.4a3.677 3.677 0 0 0 3.677 3.677v-.4zm6.22 7.07v-1.453h-.4v1.452h.4zm-.669.771c.201 0 .376-.08.498-.23a.85.85 0 0 0 .17-.542h-.4a.456.456 0 0 1-.08.29.225.225 0 0 1-.188.082v.4zm-.678-.771c0 .206.056.398.176.542.123.148.3.23.502.23v-.4a.24.24 0 0 1-.194-.086.442.442 0 0 1-.085-.287h-.4zm0-1.453v1.452h.4v-1.452h-.4zm-2.33-2.395c.572 0 1.156.292 1.6.75.445.457.73 1.058.73 1.645h.4c0-.712-.342-1.408-.842-1.924-.501-.515-1.182-.871-1.889-.871v.4zm-5.084 0h5.083v-.4H6.901v.4zm-2.319 2.395c0-.588.283-1.19.724-1.646.442-.457 1.022-.75 1.595-.75v-.4c-.706 0-1.384.356-1.882.872-.499.515-.837 1.212-.837 1.924h.4zm0 1.452v-1.452h-.4v1.452h.4zm-.662.772c.2 0 .374-.08.494-.23a.855.855 0 0 0 .168-.542h-.4a.462.462 0 0 1-.08.292.218.218 0 0 1-.182.08v.4zm-.696-.771c0 .207.061.4.186.543a.662.662 0 0 0 .51.228v-.4a.262.262 0 0 1-.208-.09.425.425 0 0 1-.088-.282h-.4zm0-1.453v1.452h.4v-1.452h-.4zM6.9 13.4a3.677 3.677 0 0 0-3.677 3.677h.4A3.277 3.277 0 0 1 6.9 13.8v-.4zm5.083 0H6.901v.4h5.083v-.4zm3.677 3.677a3.677 3.677 0 0 0-3.677-3.677v.4a3.277 3.277 0 0 1 3.277 3.277h.4zm5.502 1.452v-1.452h-.4v1.452h.4zm-.668.772c.2 0 .376-.08.497-.23a.849.849 0 0 0 .171-.542h-.4a.455.455 0 0 1-.081.29.225.225 0 0 1-.187.082v.4zm-.679-.771c0 .206.057.398.177.542.123.148.3.23.502.23v-.4a.24.24 0 0 1-.195-.086.442.442 0 0 1-.084-.287h-.4zm0-1.453v1.452h.4v-1.452h-.4zm-2.33-2.395c.573 0 1.157.292 1.601.75.445.457.73 1.058.73 1.645h.4c0-.712-.342-1.408-.843-1.924-.5-.515-1.182-.871-1.888-.871v.4zm-.527 0h.527v-.4h-.527v.4zm-.427 0h.427v-.4h-.427v.4zm0-1.282a.66.66 0 0 0-.675.631.61.61 0 0 0 .161.45c.122.13.3.2.514.2v-.4c-.124 0-.189-.038-.223-.074a.21.21 0 0 1-.053-.157c.007-.127.1-.25.276-.25v-.4zm.954 0h-.954v.4h.954v-.4zm3.677 3.677a3.677 3.677 0 0 0-3.677-3.677v.4a3.277 3.277 0 0 1 3.277 3.277h.4zm-11.72-6.526a2.369 2.369 0 0 1-2.37-2.368h-.4c0 1.529 1.24 2.768 2.77 2.768v-.4zm2.368-2.368a2.369 2.369 0 0 1-2.369 2.369v.4c1.53 0 2.77-1.24 2.77-2.77h-.4zM9.442 5.814a2.369 2.369 0 0 1 2.37 2.369h.4c0-1.53-1.24-2.769-2.77-2.769v.4zM7.074 8.183a2.369 2.369 0 0 1 2.368-2.369v-.4a2.769 2.769 0 0 0-2.768 2.769h.4z"/>
    <path stroke="#525557" stroke-linecap="round" stroke-width="1.2" d="M14.435 11.37c1.544 0 2.796-1.28 2.796-2.86 0-1.578-1.252-2.858-2.796-2.858"/>
</svg>
