<svg xmlns="http://www.w3.org/2000/svg" width="24" height="24" fill="none" viewBox="0 0 24 24">
    <rect width="16" height="16" x="8" y="7" fill="#EAF1FF" rx="3"/>
    <path fill="#0160A2" fill-rule="evenodd" d="M20.295 5.123l-3.133 4.202 3.113 4.18a.554.554 0 0 1-.444.885H6.361v6.878h1.702a.553.553 0 0 1 0 1.107h-4.51a.553.553 0 0 1 0-1.107h1.702V3.533a1.329 1.329 0 0 1-.774-1.206C4.48 1.595 5.076 1 5.808 1s1.328.595 1.328 1.327c0 .535-.318.996-.775 1.207v.705h13.49a.553.553 0 0 1 .444.884zm-13.933 8.16h12.367l-2.701-3.628a.553.553 0 0 1 0-.661l2.72-3.648H6.362v1.838h2.76a.553.553 0 1 1 0 1.107h-2.76v2.047h1.763a.553.553 0 1 1 0 1.107H6.362v1.838z" clip-rule="evenodd"/>
    <path fill="#0160A2" d="M17.162 9.325l-.16-.12-.09.12.09.12.16-.12zm3.133-4.202l.16.12-.16-.12zm-.02 8.383l-.16.12.16-.12zm.05.579l-.178-.09.179.09zm-13.964.305v-.2h-.2v.2h.2zm0 6.878h-.2v.2h.2v-.2zm-1.106 0v.2h.2v-.2h-.2zm0-17.735h.2v-.128l-.117-.053-.083.182zm1.88-1.206h.2-.2zm-.774 1.207l-.083-.182-.117.053v.129h.2zm0 .705h-.2v.2h.2v-.2zm0 9.044h-.2v.2h.2v-.2zm12.368 0v.2h.398l-.237-.32-.16.12zm-2.701-3.628l-.16.12.16-.12zm0-.661l-.16-.12.16.12zm2.72-3.648l.16.12.239-.32h-.399v.2zm-12.386 0v-.2h-.2v.2h.2zm0 1.838h-.2v.2h.2v-.2zm0 1.107v-.2h-.2v.2h.2zm0 2.047h-.2v.2h.2v-.2zm0 1.107v-.2h-.2v.2h.2zm10.96-2l3.133-4.202-.32-.24L17 9.206l.321.24zm3.113 3.941l-3.113-4.18-.32.238 3.113 4.181.32-.239zm.07.788a.754.754 0 0 0-.07-.788l-.32.24c.08.106.092.25.032.369l.357.18zm-.674.416c.285 0 .546-.161.673-.416l-.357-.18a.353.353 0 0 1-.316.196v.4zm-13.47 0h13.47v-.4H6.361v.4zm.2 6.678V14.39h-.4v6.878h.4zm1.502-.2H6.36v.4h1.702v-.4zm.753.753a.753.753 0 0 0-.753-.753v.4c.195 0 .353.158.353.354h.4zm-.753.754a.753.753 0 0 0 .753-.753h-.4a.353.353 0 0 1-.353.353v.4zm-4.51 0h4.51v-.4h-4.51v.4zm-.753-.753c0 .416.337.753.753.753v-.4a.353.353 0 0 1-.353-.354h-.4zm.753-.754a.753.753 0 0 0-.753.753h.4c0-.195.158-.353.353-.353v-.4zm1.702 0H3.553v.4h1.702v-.4zm-.2-17.535v17.735h.4V3.533h-.4zM4.28 2.328c0 .616.366 1.147.89 1.388l.167-.363a1.129 1.129 0 0 1-.657-1.025h-.4zM5.808.8c-.842 0-1.527.685-1.527 1.527h.4c0-.621.506-1.127 1.127-1.127V.8zm1.528 1.527C7.336 1.485 6.65.8 5.808.8v.4c.622 0 1.128.506 1.128 1.127h.4zm-.89 1.388c.523-.241.89-.772.89-1.388h-.4c0 .454-.27.846-.658 1.025l.167.363zm.115.524v-.705h-.4v.705h.4zm13.29-.2H6.361v.4h13.49v-.4zm.674.416a.753.753 0 0 0-.674-.416v.4c.134 0 .256.076.316.195l.358-.18zm-.07.788a.753.753 0 0 0 .07-.788l-.358.18c.06.119.047.262-.032.369l.32.239zm-13.893 8.04h-.4.4zm0 0h-.4.4zm12.167-.2H6.362v.4h12.367v-.4zm-2.862-3.308l2.702 3.627.32-.238-2.7-3.628-.322.239zm0-.9c-.199.266-.199.632 0 .9l.321-.24a.353.353 0 0 1 0-.422l-.32-.239zm2.721-3.649l-2.72 3.648.32.24 2.72-3.648-.32-.24zm-12.226.32h12.386v-.4H6.362v.4zm.2 1.638V5.346h-.4v1.838h.4zm2.56-.2h-2.76v.4h2.76v-.4zm.752.753a.753.753 0 0 0-.753-.753v.4c.195 0 .353.158.353.353h.4zm-.753.754a.753.753 0 0 0 .753-.754h-.4a.353.353 0 0 1-.353.354v.4zm-2.76 0h2.76v-.4h-2.76v.4zm.2 1.847V8.291h-.4v2.047h.4zm1.564-.2H6.362v.4h1.763v-.4zm.753.754a.753.753 0 0 0-.753-.754v.4c.195 0 .353.158.353.354h.4zm-.753.753a.753.753 0 0 0 .753-.753h-.4a.353.353 0 0 1-.353.353v.4zm-1.763 0h1.763v-.4H6.362v.4zm.2 1.638v-1.838h-.4v1.838h.4z"/>
</svg>
