<svg xmlns="http://www.w3.org/2000/svg" width="24" height="24" fill="none" viewBox="0 0 24 24">
    <path fill="#525557" fill-rule="evenodd" d="M5 6.73V21l3.519-3.535h9.63c.962 0 1.851-.837 1.851-1.804V6.73C20 5.78 19.222 5 18.278 5H6.722C5.778 5 5 5.781 5 6.73zm.556 0c0-.65.518-1.172 1.166-1.172h11.556c.648 0 1.166.521 1.166 1.172v8.93c0 .652-.648 1.247-1.296 1.247H8.333L5.556 19.66V6.73zm8.703 5.851a.28.28 0 0 1-.279.28H8.427a.28.28 0 0 1 0-.559h5.553a.28.28 0 0 1 .28.28zm2.314-3.418a.28.28 0 0 0 0-.558H8.427a.28.28 0 1 0 0 .558h8.146z" clip-rule="evenodd"/>
    <path fill="#525557" d="M5 21h-.35v.848l.598-.601L5 21zm3.519-3.535v-.35h-.146l-.103.103.249.247zm-.186-.558v-.35H8.19l-.102.101.246.249zM5.556 19.66h-.35v.84l.596-.591-.246-.248zM5.35 21V6.73h-.7V21h.7zm2.92-3.782l-3.518 3.535.496.494 3.519-3.535-.497-.494zm9.878-.103h-9.63v.7h9.63v-.7zm1.502-1.454c0 .762-.72 1.454-1.502 1.454v.7c1.144 0 2.202-.982 2.202-2.155h-.7zm0-8.93v8.93h.7V6.73h-.7zM18.278 5.35c.75 0 1.372.623 1.372 1.38h.7c0-1.14-.933-2.08-2.072-2.08v.7zm-11.556 0h11.556v-.7H6.722v.7zM5.35 6.73c0-.757.623-1.38 1.372-1.38v-.7c-1.14 0-2.072.94-2.072 2.08h.7zm1.372-1.522c-.843 0-1.516.68-1.516 1.522h.7c0-.46.363-.822.816-.822v-.7zm11.556 0H6.722v.7h11.556v-.7zm1.516 1.522c0-.843-.673-1.522-1.516-1.522v.7c.453 0 .816.363.816.822h.7zm0 8.93V6.73h-.7v8.93h.7zm-1.646 1.597c.429 0 .836-.194 1.132-.475.297-.28.514-.68.514-1.121h-.7c0 .209-.106.433-.295.613a.98.98 0 0 1-.65.283v.7zm-9.815 0h9.815v-.7H8.333v.7zm-2.531 2.652l2.778-2.753-.493-.498-2.778 2.754.493.497zM5.206 6.73v12.93h.7V6.73h-.7zm8.774 6.48a.63.63 0 0 0 .63-.629h-.7c0-.039.031-.07.07-.07v.7zm-5.553 0h5.553v-.7H8.427v.7zm-.629-.629c0 .348.282.63.63.63v-.7c.038 0 .07.031.07.07h-.7zm.63-.629a.63.63 0 0 0-.63.63h.7a.07.07 0 0 1-.07.07v-.7zm5.552 0H8.427v.7h5.553v-.7zm.63.63a.63.63 0 0 0-.63-.63v.7a.07.07 0 0 1-.07-.07h.7zm1.892-3.698c0-.04.032-.071.07-.071v.7a.63.63 0 0 0 .63-.63h-.7zm.07.07a.07.07 0 0 1-.07-.07h.7a.63.63 0 0 0-.63-.63v.7zm-8.145 0h8.146v-.7H8.427v.7zm.071-.07a.07.07 0 0 1-.07.07v-.7a.63.63 0 0 0-.63.63h.7zm-.07-.071c.038 0 .07.032.07.07h-.7c0 .348.282.63.63.63v-.7zm8.145 0H8.427v.7h8.146v-.7z"/>
</svg>
