<svg xmlns="http://www.w3.org/2000/svg" width="21" height="20" fill="none" viewBox="0 0 21 20">
    <g filter="url(#a)">
        <path fill="#FFC380" fill-rule="evenodd" d="M7.812 7.85l.004-.002c1.643-.97 2.496-2.103 2.608-3.461a.937.937 0 0 1 .936-.842c.486.008.942.203 1.283.549.342.347.53.806.53 1.292v.147c0 .904-.204 1.56-.587 2.254h2.476a1.367 1.367 0 0 1 .991 2.305 1.366 1.366 0 0 1-.297 2.086 1.366 1.366 0 0 1-.465 1.86 1.367 1.367 0 0 1-1.176 2.06h-1.378c-.331 0-.647.002-.953.005h-.01c-.276.003-.545.005-.808.005-1.707 0-3.171-.106-4.932-.987a.436.436 0 0 1-.241-.39V9.154c0-.165.093-.316.24-.39.12-.06.253-.123.392-.19l.002-.001c.398-.193.894-.432 1.385-.722z" clip-rule="evenodd"/>
        <path fill="#7C9FD0" d="M7.812 7.85l.235.399.005-.003-.24-.396zm.004-.002l-.235-.398.235.398zm2.608-3.461l-.46-.039.46.039zm.936-.842l.008-.462h-.002l-.006.462zm1.283.549l.33-.325-.33.325zm.53 1.292h.463-.463zm-.587 2.401l-.405-.223-.379.686h.784v-.463zm3.467 2.305l-.335-.318-.296.312.29.318.341-.312zm-.297 2.086l-.241-.394-.39.238.233.392.398-.236zm-.465 1.86l-.241-.395-.389.238.232.392.398-.235zm-3.507 2.065l.004.463-.004-.463zm-.005 0l-.005-.462.005.462zm-.005 0l.004.463-.004-.463zm-5.74-.982l-.207.414.207-.414zm0-6.358l-.207-.414.207.414zm.391-.19l.2.416-.2-.417zm.002-.001l.2.416-.2-.416zm1.625-.326L7.58 7.45a.824.824 0 0 0-.01.005l.48.79zm0 0c1.715-1.014 2.704-2.259 2.833-3.821l-.921-.076c-.096 1.154-.814 2.174-2.383 3.1l.47.797zm2.833-3.82a.475.475 0 0 1 .469-.419l.012-.924a1.4 1.4 0 0 0-1.402 1.265l.921.077zm.468-.419c.365.006.705.152.961.412l.659-.65a2.295 2.295 0 0 0-1.606-.686l-.014.924zm.961.412c.256.26.397.602.397.968h.925c0-.609-.236-1.184-.663-1.618l-.659.65zm.397.967h.925-.925zm0 0v.147h.925v-.146h-.925zm0 .147c0 .818-.18 1.397-.53 2.03l.81.448c.417-.756.645-1.487.645-2.478h-.925zm2.35 1.792h-2.475v.925h2.476v-.925zm1.829 1.828a1.83 1.83 0 0 0-1.828-1.828v.925c.498 0 .903.405.903.903h.925zm-.501 1.258c.323-.341.5-.787.5-1.258h-.924a.894.894 0 0 1-.247.621l.67.637zm.484.601c0-.474-.182-.907-.478-1.232l-.683.624a.898.898 0 0 1 .236.608h.925zm-.876 1.56c.524-.32.876-.899.876-1.56h-.925a.904.904 0 0 1-.433.772l.482.788zm.411.3a1.82 1.82 0 0 0-.254-.93l-.796.472c.08.134.125.29.125.458h.925zm-.876 1.56c.524-.32.876-.899.876-1.56h-.925a.904.904 0 0 1-.433.771l.482.789zm.411.3a1.82 1.82 0 0 0-.254-.93l-.796.471c.08.135.126.29.126.459h.924zm-1.828 1.828a1.83 1.83 0 0 0 1.828-1.828h-.924a.905.905 0 0 1-.904.903v.925zm-1.378 0h1.378v-.925h-1.378v.925zm-.949.006c.306-.003.62-.006.95-.006v-.925c-.335 0-.653.003-.959.006l.01.925zm-.005 0h.005l-.008-.925h-.006l.01.925zm-.005 0h.005l-.009-.925h-.005l.01.925zm-.812.005c.265 0 .536-.003.812-.005l-.009-.925c-.276.002-.543.005-.803.005v.925zm-5.139-1.036c1.856.928 3.405 1.036 5.139 1.036v-.925c-1.68 0-3.06-.105-4.725-.938l-.414.827zm-.496-.803c0 .34.192.65.496.803l.414-.827a.026.026 0 0 1 .014.024h-.924zm0-5.58v5.58h.924v-5.58h-.924zm.496-.803a.898.898 0 0 0-.496.804h.924c0 .01-.005.02-.014.024l-.414-.828zm.397-.193l-.397.193.414.828c.116-.059.245-.12.385-.188l-.402-.833zm.002-.001h-.002l.402.834.001-.001-.401-.833zm1.35-.703c-.471.279-.95.51-1.35.703l.402.833c.397-.191.909-.438 1.419-.74l-.47-.796z"/>
        <path fill="#FFD7AA" fill-rule="evenodd" d="M14.989 9.636c0-.623-.447-1.13-.996-1.13 0 0-2.215.778-6.762 1.384v4.562c0 .137.059.278.176.323 1.6.605 2.353.614 3.598.614.193 0 .39-.002.593-.004.224-.002.456-.005.7-.005h1.004c.55 0 .996-.507.996-1.13 0-.209-.05-.405-.138-.574.286-.198.478-.556.478-.964 0-.21-.05-.405-.139-.574.286-.198.478-.556.478-.964 0-.293-.1-.56-.261-.761.176-.21.273-.485.273-.777z" clip-rule="evenodd"/>
        <path fill="#73C3FF" fill-rule="evenodd" d="M4.8 13.807v2.296h-.873v-2.296a.436.436 0 0 1 .872 0z" clip-rule="evenodd"/>
        <path fill="#73C3FF" fill-rule="evenodd" d="M4.8 13.807v2.296h-.873v-2.296a.436.436 0 0 1 .872 0z" clip-rule="evenodd"/>
        <path fill="#7C9FD0" fill-rule="evenodd" d="M6.223 7.787h-3.72a.436.436 0 0 0-.435.436v7.438c0 .241.195.436.436.442h2.789a1.381 1.381 0 0 0 1.222-.762c.092-.183.144-.39.144-.61V8.224a.436.436 0 0 0-.436-.436z" clip-rule="evenodd"/>
        <path fill="#fff" fill-rule="evenodd" d="M4.8 13.778v2.325h-.873v-2.325a.436.436 0 0 1 .872 0z" clip-rule="evenodd"/>
    </g>
    <defs>
        <filter id="a" width="20.987" height="19.653" x=".013" y="0" color-interpolation-filters="sRGB" filterUnits="userSpaceOnUse">
            <feFlood flood-opacity="0" result="BackgroundImageFix"/>
            <feColorMatrix in="SourceAlpha" values="0 0 0 0 0 0 0 0 0 0 0 0 0 0 0 0 0 0 127 0"/>
            <feOffset dx="1"/>
            <feGaussianBlur stdDeviation="1.5"/>
            <feColorMatrix values="0 0 0 0 0.486275 0 0 0 0 0.623529 0 0 0 0 0.815686 0 0 0 0.158684 0"/>
            <feBlend in2="BackgroundImageFix" result="effect1_dropShadow"/>
            <feBlend in="SourceGraphic" in2="effect1_dropShadow" result="shape"/>
        </filter>
    </defs>
</svg>
