<svg xmlns="http://www.w3.org/2000/svg" width="24" height="24" fill="none" viewBox="0 0 24 24">
    <path fill="#525557" fill-rule="evenodd" d="M10.462 5.114c0 .063-.258.115-.572.115-.315 0-.572.051-.572.114s-.154.114-.343.114c-.189 0-.343.052-.343.115s-.103.114-.229.114c-.125 0-.228.052-.228.114 0 .063-.103.115-.229.115s-.229.051-.229.114-.103.114-.228.114c-.126 0-.23.052-.23.115s-.09.114-.202.114c-.112 0-.278.103-.369.229-.09.126-.234.229-.32.229-.085 0-.353.205-.595.457-.241.251-.496.457-.566.457-.165 0-.92.755-.92.92 0 .07-.206.325-.457.567-.252.242-.458.51-.458.595 0 .085-.103.229-.229.32-.125.09-.228.256-.228.368 0 .112-.052.203-.115.203-.062 0-.114.103-.114.229s-.051.229-.114.229-.115.103-.115.228c0 .126-.051.23-.114.23s-.114.102-.114.228-.052.228-.115.228-.114.103-.114.23c0 .125.051.228.114.228s.115.103.115.229c0 .125.051.228.114.228s.114.103.114.229.052.229.115.229.114.103.114.228c0 .126.052.229.114.229.063 0 .115.092.115.203 0 .112.103.278.228.369.126.09.23.234.23.32 0 .085.205.353.457.595.251.241.457.496.457.566 0 .165.755.92.92.92.07 0 .325.206.566.457.242.252.51.458.595.458.086 0 .23.103.32.229.09.125.257.228.369.228.111 0 .203.052.203.114 0 .063.103.115.229.115.125 0 .228.051.228.114s.103.115.229.115.229.051.229.114.103.114.228.114c.126 0 .23.052.23.115s.153.114.342.114c.189 0 .343.051.343.114s.257.115.572.115c.314 0 .572.051.572.114 0 .07.61.114 1.6.114.992 0 1.601-.043 1.601-.114 0-.063.258-.114.572-.114.315 0 .572-.052.572-.115s.154-.114.343-.114c.188 0 .343-.051.343-.114s.103-.115.229-.115c.125 0 .228-.051.228-.114s.103-.114.229-.114.229-.052.229-.115.103-.114.228-.114c.126 0 .229-.052.229-.114 0-.063.092-.115.204-.115.111 0 .277-.103.368-.229.09-.125.236-.228.322-.228.087 0 .302-.155.478-.343.176-.189.379-.343.45-.343.165 0 1.151-.984 1.151-1.15 0-.07.206-.324.457-.566.252-.241.458-.509.458-.594 0-.086.103-.23.229-.32.125-.09.228-.257.228-.369 0-.111.052-.203.115-.203.062 0 .114-.103.114-.229 0-.125.051-.228.114-.228s.115-.103.115-.23c0-.125.051-.228.114-.228s.114-.103.114-.228c0-.126.052-.23.115-.23s.114-.102.114-.228-.052-.229-.114-.229c-.063 0-.115-.102-.115-.228s-.051-.229-.114-.229-.114-.103-.114-.229c0-.125-.052-.228-.115-.228s-.114-.103-.114-.229-.052-.229-.114-.229c-.063 0-.115-.091-.115-.203 0-.112-.103-.278-.229-.368-.125-.091-.228-.235-.228-.32 0-.086-.206-.353-.458-.595-.251-.242-.457-.496-.457-.566 0-.166-.986-1.15-1.152-1.15-.07 0-.273-.154-.449-.342-.176-.19-.391-.343-.478-.343-.086 0-.232-.103-.322-.23-.09-.125-.257-.228-.369-.228-.111 0-.203-.051-.203-.114s-.103-.115-.229-.115c-.125 0-.228-.051-.228-.114s-.103-.114-.229-.114-.229-.052-.229-.115c0-.062-.103-.114-.228-.114-.126 0-.23-.051-.23-.114s-.154-.115-.342-.115c-.189 0-.343-.051-.343-.114s-.258-.114-.572-.114c-.314 0-.572-.052-.572-.115 0-.07-.61-.114-1.6-.114-.992 0-1.601.044-1.601.114zm2.973 1.83c0 .063.205.114.457.114s.457.052.457.115c0 .062.155.114.344.114.188 0 .343.051.343.114s.102.115.228.115.229.051.229.114.103.114.229.114c.125 0 .228.052.228.115s.103.114.229.114.229.051.229.114.077.115.173.115c.21 0 2.571 2.338 2.571 2.546 0 .081.103.222.229.312.125.091.228.257.228.369 0 .111.052.203.115.203s.114.103.114.229.052.228.114.228c.063 0 .115.103.115.23 0 .125-.052.228-.115.228s-.114.103-.114.229c0 .125-.051.228-.114.228s-.115.092-.115.204c0 .112-.103.277-.228.368-.126.09-.229.231-.229.313 0 .08-.488.636-1.085 1.232-.596.597-1.151 1.085-1.232 1.085-.082 0-.222.103-.313.229-.09.125-.256.228-.368.228-.112 0-.204.052-.204.115s-.103.114-.228.114c-.126 0-.23.052-.23.114 0 .063-.102.115-.228.115s-.228.051-.228.114-.155.114-.343.114c-.19 0-.344.052-.344.115s-.205.114-.457.114-.457.052-.457.114c0 .07-.534.115-1.373.115-.838 0-1.372-.045-1.372-.114 0-.063-.205-.115-.457-.115s-.457-.051-.457-.114-.155-.115-.343-.115c-.19 0-.344-.051-.344-.114s-.102-.114-.228-.114-.229-.052-.229-.115-.103-.114-.229-.114c-.125 0-.228-.051-.228-.114s-.092-.115-.204-.115c-.112 0-.277-.103-.368-.228-.09-.126-.231-.229-.313-.229-.192 0-2.317-2.125-2.317-2.317 0-.082-.103-.222-.229-.313-.125-.09-.228-.256-.228-.368 0-.112-.052-.204-.115-.204s-.114-.103-.114-.228c0-.126-.052-.23-.114-.23-.063 0-.115-.102-.115-.228s.052-.229.115-.229c.062 0 .114-.102.114-.228s.051-.229.114-.229.115-.091.115-.203c0-.112.103-.278.228-.369.126-.09.229-.231.229-.312 0-.193 2.125-2.318 2.317-2.318.082 0 .222-.103.313-.228.09-.126.256-.229.368-.229.112 0 .204-.051.204-.114s.103-.115.228-.115c.126 0 .23-.051.23-.114s.102-.114.228-.114.228-.052.228-.115.155-.114.344-.114c.188 0 .343-.052.343-.114 0-.063.205-.115.457-.115s.457-.051.457-.114c0-.07.534-.114 1.373-.114.838 0 1.372.044 1.372.114zm-2.287 1.83c0 .062-.155.114-.343.114-.189 0-.343.051-.343.114s-.079.114-.174.114c-.227 0-1.427 1.2-1.427 1.427 0 .096-.052.174-.115.174-.062 0-.114.155-.114.343 0 .189-.051.343-.114.343-.067 0-.115.381-.115.915s.048.915.115.915c.063 0 .114.154.114.343 0 .189.052.343.114.343.063 0 .115.078.115.174 0 .226 1.2 1.427 1.427 1.427.095 0 .174.051.174.114s.154.115.343.115c.188 0 .343.051.343.114 0 .067.38.114.915.114.533 0 .914-.047.914-.114 0-.063.155-.114.343-.114.189 0 .343-.052.343-.115s.079-.114.174-.114c.096 0 .456-.282.8-.627.345-.344.627-.704.627-.8 0-.096.052-.174.115-.174.062 0 .114-.154.114-.343 0-.189.051-.343.114-.343.067 0 .115-.381.115-.915s-.048-.915-.115-.915c-.063 0-.114-.154-.114-.343 0-.188-.052-.343-.114-.343-.063 0-.115-.078-.115-.174 0-.226-1.2-1.427-1.427-1.427-.095 0-.174-.051-.174-.114s-.154-.114-.343-.114c-.188 0-.343-.052-.343-.115 0-.066-.38-.114-.915-.114-.533 0-.914.048-.914.114zm1.6 1.829c0 .063.08.114.177.114.229 0 .738.51.738.738 0 .098.052.177.115.177s.114.305.114.686c0 .381-.05.686-.114.686-.063 0-.115.08-.115.177 0 .229-.509.738-.738.738-.097 0-.176.051-.176.114 0 .064-.305.115-.687.115-.38 0-.686-.051-.686-.115 0-.063-.08-.114-.176-.114-.23 0-.738-.51-.738-.738 0-.097-.052-.177-.115-.177s-.114-.305-.114-.686c0-.38.05-.686.114-.686.063 0 .115-.08.115-.177 0-.097.126-.303.28-.457.155-.154.36-.28.458-.28.097 0 .176-.052.176-.115 0-.064.305-.114.687-.114.38 0 .686.05.686.114z" clip-rule="evenodd"/>
</svg>
