<svg xmlns="http://www.w3.org/2000/svg" width="24" height="24" fill="none" viewBox="0 0 24 24">
    <rect width="16" height="16" x="8" y="7" fill="#EAF1FF" rx="3"/>
    <path fill="#0961A5" fill-rule="evenodd" d="M4 4.838V20l3.738-3.756H17.97c1.023 0 1.968-.89 1.968-1.917V4.838A1.843 1.843 0 0 0 18.108 3H5.83C4.826 3 4 3.83 4 4.838zm.59 0c0-.691.551-1.245 1.24-1.245h12.278c.688 0 1.24.554 1.24 1.245v9.489c0 .692-.69 1.324-1.378 1.324H7.542L4.59 18.577V4.838zm9.248 6.217a.297.297 0 0 1-.296.297h-5.9a.296.296 0 1 1 0-.593h5.9c.163 0 .296.133.296.296zm2.458-3.632a.297.297 0 0 0 0-.593H7.641a.297.297 0 1 0 0 .593h8.655z" clip-rule="evenodd"/>
    <path fill="#0961A5" d="M4 20h-.3v.727l.513-.515L4 20zm3.738-3.756v-.3h-.124l-.088.088.212.212zm-.196-.593v-.3h-.124l-.088.087.212.213zM4.59 18.577h-.3v.72l.511-.507-.21-.213zM4.3 20V4.838h-.6V20h.6zm3.226-3.968l-3.739 3.756.426.424 3.738-3.756-.425-.424zm10.444-.088H7.738v.6H17.97v-.6zm1.668-1.617c0 .852-.8 1.617-1.668 1.617v.6c1.178 0 2.268-1.013 2.268-2.217h-.6zm0-9.489v9.489h.6V4.838h-.6zM18.107 3.3c.836 0 1.53.695 1.53 1.538h.6c0-1.172-.96-2.138-2.13-2.138v.6zM5.83 3.3h12.278v-.6H5.83v.6zM4.3 4.838c0-.843.693-1.538 1.53-1.538v-.6c-1.17 0-2.13.966-2.13 2.138h.6zm1.53-1.545c-.856 0-1.54.69-1.54 1.545h.6c0-.527.418-.945.94-.945v-.6zm12.278 0H5.83v.6h12.278v-.6zm1.54 1.545c0-.856-.685-1.545-1.54-1.545v.6c.521 0 .94.418.94.945h.6zm0 9.489V4.838h-.6v9.489h.6zM17.97 15.95c.434 0 .85-.197 1.153-.485.304-.288.524-.693.524-1.14h-.6c0 .247-.124.503-.337.705-.212.2-.485.32-.74.32v.6zm-10.428 0H17.97v-.6H7.542v.6zm-2.74 2.839l2.95-2.926-.422-.426-2.95 2.926.421.426zM4.29 4.838v13.739h.6V4.838h-.6zm9.252 6.814c.329 0 .596-.267.596-.597h-.6v-.001l.001-.001h.001l.002-.001v.6zm-5.9 0h5.9v-.6h-5.9v.6zm-.597-.597c0 .33.267.597.596.597v-.6h.002l.002.002v.001h-.6zm.596-.596a.597.597 0 0 0-.596.596h.6v.002h-.001l-.001.001H7.64v-.6zm5.9 0h-5.9v.6h5.9v-.6zm.597.596a.597.597 0 0 0-.597-.596v.6h-.001a.002.002 0 0 1-.002-.002v-.002h.6zm2.155-3.929v-.001-.001h.002l.001-.001v.6c.33 0 .597-.267.597-.597h-.6zm.003.004h-.001l-.001-.001-.001-.001v-.002h.6a.597.597 0 0 0-.597-.596v.6zm-8.655 0h8.655v-.6H7.641v.6zm.004-.004v.002h-.001l-.001.002H7.64v-.6a.597.597 0 0 0-.596.596h.6zm-.004-.003h.002v.001l.002.001v.001h-.6c0 .33.267.597.596.597v-.6zm8.655 0H7.641v.6h8.655v-.6z"/>
</svg>
