<svg xmlns="http://www.w3.org/2000/svg" width="24" height="24" fill="none" viewBox="0 0 24 24">
    <path fill="#525557" fill-rule="evenodd" d="M2 12C2 6.488 6.488 2 12 2s10 4.488 10 10-4.488 10-10 10S2 17.512 2 12zm1.395 0c0 4.744 3.86 8.605 8.605 8.605 4.744 0 8.605-3.86 8.605-8.605 0-4.744-3.86-8.605-8.605-8.605-4.744 0-8.605 3.86-8.605 8.605z" clip-rule="evenodd"/>
    <path fill="#525557" d="M12.039 10.013a.685.685 0 0 0-.698.697v5.35c0 .395.303.697.698.697a.685.685 0 0 0 .698-.698V10.71a.685.685 0 0 0-.698-.697zM12.039 7.455a.933.933 0 0 0-.93.93c0 .511.418.93.93.93.511 0 .93-.419.93-.93a.933.933 0 0 0-.93-.93z"/>
</svg>
