<svg xmlns="http://www.w3.org/2000/svg" width="24" height="24" fill="none" viewBox="0 0 24 24">
    <path fill="#fff" fill-rule="evenodd" d="M20.46 14.062h-.352V3.502c0-.276-.243-.502-.54-.502H4.432c-.297 0-.54.226-.54.503v10.559H3.54c-.298 0-.541.226-.541.502 0 .277.243.503.54.503h7.92v1.307a.575.575 0 0 0-.136.352L7.703 20.12a.463.463 0 0 0 0 .704.554.554 0 0 0 .756 0l3-2.765v2.061c0 .277.244.503.541.503.297 0 .54-.226.54-.503V18.06l3 2.79a.554.554 0 0 0 .757 0 .463.463 0 0 0 0-.704l-3.621-3.394a.451.451 0 0 0-.136-.352v-1.307h7.92c.297 0 .54-.226.54-.503a.545.545 0 0 0-.54-.527zM4.972 4.006h14.054v10.056H4.973V4.006z" clip-rule="evenodd"/>
    <path fill="#fff" d="M20.108 14.062h-.15v.15h.15v-.15zm-16.216 0v.15h.15v-.15h-.15zm7.568 1.005h.15v-.15h-.15v.15zm0 1.307l.116.095.034-.042v-.053h-.15zm-.136.352l.103.11.047-.045v-.065h-.15zM7.703 20.12l.102.11-.102-.11zm.756.704l-.101-.11.101.11zm3-2.765h.15v-.343l-.251.232.101.11zm1.082 0l.102-.11-.253-.235v.345h.15zm3 2.79l.102-.11-.103.11zm.756-.704l-.102.11.102-.11zm-3.621-3.394h-.15v.065l.047.045.103-.11zm-.136-.352h-.15v.066l.048.044.102-.11zm0-1.307v-.15h-.15v.15h.15zM4.973 4.006v-.15h-.15v.15h.15zm14.054 0h.15v-.15h-.15v.15zm0 10.056v.15h.15v-.15h-.15zm-14.054 0h-.15v.15h.15v-.15zm15.486-.15h-.35v.3h.35v-.3zm-.2.15V3.502h-.3v10.56h.3zm0-10.56c0-.369-.322-.652-.691-.652v.3c.224 0 .39.17.39.353h.3zm-.691-.652H4.432v.3h15.136v-.3zm-15.136 0c-.37 0-.69.283-.69.653h.3c0-.184.166-.353.39-.353v-.3zm-.69.653v10.559h.3V3.502h-.3zm.15 10.409H3.54v.3h.35v-.3zm-.351 0c-.37 0-.691.283-.691.652h.3c0-.183.166-.353.39-.353v-.3zm-.691.652c0 .37.32.653.69.653v-.3c-.224 0-.39-.17-.39-.353h-.3zm.69.653h7.92v-.3H3.54v.3zm7.77-.15v1.307h.3v-1.307h-.3zm.033 1.213a.725.725 0 0 0-.169.446h.3c0-.084.037-.177.102-.258l-.233-.188zm-.121.337L7.6 20.01l.205.219 3.622-3.394-.205-.22zM7.6 20.01a.63.63 0 0 0-.21.462c0 .17.073.335.21.462l.204-.22a.33.33 0 0 1-.114-.242.33.33 0 0 1 .114-.242l-.204-.22zm0 .924a.704.704 0 0 0 .48.19v-.3a.404.404 0 0 1-.276-.11l-.204.22zm.48.19a.704.704 0 0 0 .48-.19l-.204-.22a.404.404 0 0 1-.276.11v.3zm.48-.19l3-2.765-.203-.22-3 2.765.203.22zm2.748-2.875v2.061h.3V18.06h-.3zm0 2.061c0 .37.321.653.691.653v-.3c-.225 0-.39-.17-.39-.353h-.3zm.691.653c.37 0 .69-.284.69-.653h-.3c0 .184-.165.353-.39.353v.3zm.69-.653V18.06h-.3v2.061h.3zm-.252-1.951l3 2.79.205-.22-3-2.79-.205.22zm3 2.79a.704.704 0 0 0 .48.191v-.3a.404.404 0 0 1-.275-.11l-.205.219zm.48.191a.704.704 0 0 0 .482-.191l-.205-.22a.404.404 0 0 1-.276.111v.3zm.482-.191a.63.63 0 0 0 .21-.462.63.63 0 0 0-.21-.462l-.205.22a.33.33 0 0 1 .114.242.33.33 0 0 1-.114.242l.204.22zm0-.923l-3.622-3.394-.205.219 3.622 3.394.205-.22zm-3.574-3.285a.6.6 0 0 0-.183-.461l-.205.22c.066.06.088.137.088.241h.3zm-.136-.352v-1.307h-.3V16.4h.3zm-.15-1.307v.15H17v-.3H12.704 12.663h-.022-.007-.003-.01-.003-.003-.003-.003-.003-.008-.003-.005-.005-.002-.007-.002-.002-.002-.002-.002-.001-.002-.002-.001-.002-.001-.002-.001-.001-.008-.001-.003v.15zm4.46.15H20.459v-.15-.15h-.001-.001-.003-.003-.001-.001-.001-.001-.001-.004-.001-.001-.002-.001-.004-.002-.002-.001-.002-.002-.001-.002-.002-.002-.002-.002-.002-.002-.002-.002-.002-.002-.005-.002-.002-.005-.005-.005-.003-.005-.003-.011-.003-.003-.003-.003-.003-.003H20.324h-.01-.028-.015H17v.3zm3.46 0c.37 0 .69-.283.69-.653h-.3c0 .184-.166.353-.39.353v.3zm.69-.653a.695.695 0 0 0-.69-.678v.3c.215 0 .39.185.39.378h.3zM4.973 4.156h14.054v-.3H4.973v.3zm13.904-.15v10.056h.3V4.006h-.3zm.15 9.905H4.973v.3h14.054v-.3zm-13.904.15V4.007h-.3v10.056h.3z"/>
</svg>
