<svg xmlns="http://www.w3.org/2000/svg" width="24" height="24" fill="none" viewBox="0 0 24 24">
    <path fill="#9A9A9A" fill-rule="evenodd" d="M19 7.315c0-.026 0-.051-.025-.077v-.025c0-.026-.025-.051-.05-.051l-4.148-4.085c-.012-.013-.025-.02-.037-.026-.013-.006-.026-.013-.038-.025h-.025c-.025 0-.05 0-.076-.026H6.986C5.905 3 5 3.894 5 5.017v13.966C5 20.081 5.88 21 6.986 21h10.028C18.095 21 19 20.106 19 18.983V7.315zm-4.147-3.447L18.12 7.06h-1.81a1.498 1.498 0 0 1-1.482-1.507V3.868h.025zM6.986 20.49h10.028c.83 0 1.483-.663 1.458-1.506V7.57h-2.161c-1.106 0-1.986-.919-1.986-2.017V3.511h-7.34c-.829 0-1.482.689-1.482 1.506v13.966c0 .843.678 1.506 1.483 1.506z" clip-rule="evenodd"/>
    <path fill="#9A9A9A" d="M18.975 7.238h-.35v.144l.1.102.25-.246zm-.05-.076l-.246.25.102.1h.144v-.35zm-4.148-4.085l-.25.245.005.004.245-.25zm-.075-.051l.25-.246-.103-.104h-.147v.35zm-.1-.026l.249-.246-.103-.104h-.147V3zm3.518 4.06v.35h.86l-.615-.6-.245.25zm-3.267-3.192l.244-.25-.102-.1h-.142v.35zm-.025 0v-.35h-.35v.35h.35zm3.644 15.115h-.35v.01l.35-.01zm0-11.413h.35v-.35h-.35v.35zm-4.147-4.06h.35v-.35h-.35v.35zm4.4 3.974a.27.27 0 0 1-.068-.124c-.009-.035-.007-.064-.007-.045h.7c0-.03.006-.188-.126-.322l-.499.49zm-.1-.271v.025h.7v-.025h-.7zm.3.299a.3.3 0 0 1-.215-.089.299.299 0 0 1-.085-.21h.7a.401.401 0 0 0-.4-.401v.7zm-4.393-4.186l4.147 4.085.491-.499-4.147-4.085-.491.499zm.05.037l-.011-.006a.246.246 0 0 1-.043-.035l.499-.491c-.057-.057-.116-.085-.129-.092l-.317.624zm-.13-.092c.057.057.116.086.13.092l.316-.624.01.006c.013.008.028.02.043.035l-.498.491zm.225.105h.025v-.7h-.025v.7zm-.325-.13c.134.136.294.13.325.13v-.7c-.02 0 .012-.002.048.007a.272.272 0 0 1 .126.071l-.499.492zm.224.104h.025v-.7h-.025v.7zm-7.59 0h7.59v-.7h-7.59v.7zM5.35 5.017c0-.932.75-1.667 1.636-1.667v-.7c-1.277 0-2.336 1.053-2.336 2.367h.7zm0 13.966V5.017h-.7v13.966h.7zm1.636 1.667c-.905 0-1.636-.754-1.636-1.667h-.7c0 1.283 1.028 2.367 2.336 2.367v-.7zm10.028 0H6.986v.7h10.028v-.7zm1.636-1.667c0 .932-.75 1.667-1.636 1.667v.7c1.277 0 2.336-1.053 2.336-2.367h-.7zm0-11.668v11.668h.7V7.315h-.7zm-.285-.506l-3.268-3.191-.489.5 3.268 3.192.489-.5zm-2.054.6h1.81v-.7h-1.81v.7zm-1.833-1.856c0 1.035.834 1.857 1.833 1.857v-.7c-.61 0-1.133-.506-1.133-1.157h-.7zm0-1.685v1.685h.7V3.868h-.7zm.375-.35h-.025v.7h.025v-.7zm2.161 16.621H6.986v.7h10.028v-.7zm1.108-1.146a1.096 1.096 0 0 1-1.108 1.146v.7a1.796 1.796 0 0 0 1.808-1.866l-.7.02zm0-11.423v11.413h.7V7.57h-.7zm-1.811.35h2.161v-.7h-2.161v.7zm-2.336-2.367c0 1.283 1.028 2.367 2.336 2.367v-.7c-.905 0-1.636-.754-1.636-1.667h-.7zm0-2.042v2.042h.7V3.511h-.7zm-6.99.35h7.34v-.7h-7.34v.7zM5.854 5.017c0-.633.505-1.156 1.133-1.156v-.7c-1.032 0-1.833.855-1.833 1.856h.7zm0 13.966V5.017h-.7v13.966h.7zm1.133 1.156c-.61 0-1.133-.505-1.133-1.156h-.7c0 1.034.834 1.856 1.833 1.856v-.7z"/>
</svg>
